<svg width="20" height="20" viewBox="0 0 20 20" fill="none" xmlns="http://www.w3.org/2000/svg">
<path d="M19.3751 10.3125C19.3751 9.48453 19.1403 8.67355 18.6977 7.97379C18.2552 7.27403 17.6232 6.7142 16.8751 6.35936V5.62499C16.8745 4.81962 16.6147 4.03583 16.1341 3.38961C15.6535 2.74338 14.9776 2.26906 14.2064 2.03684C13.4352 1.80462 12.6098 1.82683 11.8523 2.10019C11.0947 2.37355 10.4453 2.88354 10.0001 3.55467C9.55491 2.88354 8.90549 2.37355 8.14794 2.10019C7.39039 1.82683 6.56496 1.80462 5.7938 2.03684C5.02264 2.26906 4.34673 2.74338 3.8661 3.38961C3.38547 4.03583 3.12565 4.81962 3.1251 5.62499V6.35936C2.37692 6.71412 1.74478 7.2739 1.30214 7.97368C0.859488 8.67345 0.624512 9.48447 0.624512 10.3125C0.624512 11.1405 0.859488 11.9515 1.30214 12.6513C1.74478 13.3511 2.37692 13.9109 3.1251 14.2656V14.375C3.12565 15.1804 3.38547 15.9641 3.8661 16.6104C4.34673 17.2566 5.02264 17.7309 5.7938 17.9631C6.56496 18.1954 7.39039 18.1731 8.14794 17.8998C8.90549 17.6264 9.55491 17.1164 10.0001 16.4453C10.4453 17.1164 11.0947 17.6264 11.8523 17.8998C12.6098 18.1731 13.4352 18.1954 14.2064 17.9631C14.9776 17.7309 15.6535 17.2566 16.1341 16.6104C16.6147 15.9641 16.8745 15.1804 16.8751 14.375V14.2656C17.6226 13.91 18.2541 13.35 18.6965 12.6504C19.1389 11.9508 19.3742 11.1402 19.3751 10.3125ZM6.8751 16.875C6.2583 16.8746 5.66341 16.6463 5.20481 16.2338C4.7462 15.8213 4.45626 15.2539 4.39072 14.6406C4.59228 14.6724 4.79605 14.688 5.0001 14.6875H5.6251C5.79086 14.6875 5.94983 14.6216 6.06704 14.5044C6.18425 14.3872 6.2501 14.2282 6.2501 14.0625C6.2501 13.8967 6.18425 13.7378 6.06704 13.6205C5.94983 13.5033 5.79086 13.4375 5.6251 13.4375H5.0001C4.26363 13.4362 3.55127 13.1749 2.98869 12.6996C2.42611 12.2243 2.04947 11.5656 1.92522 10.8397C1.80096 10.1138 1.93708 9.36735 2.30955 8.73201C2.68202 8.09668 3.26691 7.6133 3.96103 7.36717C4.08249 7.32243 4.18731 7.24152 4.26135 7.13535C4.33539 7.02918 4.37509 6.90286 4.3751 6.77342V5.62499C4.3751 4.96195 4.63849 4.32606 5.10733 3.85722C5.57617 3.38838 6.21206 3.12499 6.8751 3.12499C7.53814 3.12499 8.17402 3.38838 8.64286 3.85722C9.1117 4.32606 9.3751 4.96195 9.3751 5.62499V11.5859C8.69084 10.9649 7.79913 10.6222 6.8751 10.625C6.70934 10.625 6.55037 10.6908 6.43316 10.808C6.31595 10.9253 6.2501 11.0842 6.2501 11.25C6.2501 11.4157 6.31595 11.5747 6.43316 11.6919C6.55037 11.8091 6.70934 11.875 6.8751 11.875C7.53814 11.875 8.17402 12.1384 8.64286 12.6072C9.1117 13.0761 9.3751 13.7119 9.3751 14.375C9.3751 15.038 9.1117 15.6739 8.64286 16.1428C8.17402 16.6116 7.53814 16.875 6.8751 16.875ZM15.0001 13.4375H14.3751C14.2093 13.4375 14.0504 13.5033 13.9332 13.6205C13.8159 13.7378 13.7501 13.8967 13.7501 14.0625C13.7501 14.2282 13.8159 14.3872 13.9332 14.5044C14.0504 14.6216 14.2093 14.6875 14.3751 14.6875H15.0001C15.2041 14.688 15.4079 14.6724 15.6095 14.6406C15.5581 15.1211 15.3687 15.5763 15.064 15.9514C14.7593 16.3264 14.3525 16.6051 13.8927 16.7537C13.433 16.9024 12.94 16.9146 12.4734 16.789C12.0069 16.6633 11.5867 16.4051 11.2638 16.0457C10.9409 15.6862 10.7291 15.2409 10.654 14.7636C10.5789 14.2862 10.6437 13.7974 10.8407 13.3561C11.0376 12.9149 11.3581 12.5402 11.7636 12.2773C12.169 12.0144 12.6419 11.8747 13.1251 11.875C13.2909 11.875 13.4498 11.8091 13.567 11.6919C13.6842 11.5747 13.7501 11.4157 13.7501 11.25C13.7501 11.0842 13.6842 10.9253 13.567 10.808C13.4498 10.6908 13.2909 10.625 13.1251 10.625C12.2011 10.6222 11.3094 10.9649 10.6251 11.5859V5.62499C10.6251 4.96195 10.8885 4.32606 11.3573 3.85722C11.8262 3.38838 12.4621 3.12499 13.1251 3.12499C13.7881 3.12499 14.424 3.38838 14.8929 3.85722C15.3617 4.32606 15.6251 4.96195 15.6251 5.62499V6.77342C15.6251 6.90286 15.6648 7.02918 15.7388 7.13535C15.8129 7.24152 15.9177 7.32243 16.0392 7.36717C16.7333 7.6133 17.3182 8.09668 17.6906 8.73201C18.0631 9.36735 18.1992 10.1138 18.075 10.8397C17.9507 11.5656 17.5741 12.2243 17.0115 12.6996C16.4489 13.1749 15.7366 13.4362 15.0001 13.4375ZM4.6876 9.99999C4.52184 9.99999 4.36287 9.93414 4.24566 9.81693C4.12845 9.69972 4.0626 9.54075 4.0626 9.37499C4.0626 9.20923 4.12845 9.05025 4.24566 8.93304C4.36287 8.81583 4.52184 8.74999 4.6876 8.74999C5.10137 8.74793 5.4976 8.58265 5.79018 8.29007C6.08276 7.99749 6.24804 7.60125 6.2501 7.18749V6.56249C6.2501 6.39673 6.31595 6.23776 6.43316 6.12054C6.55037 6.00333 6.70934 5.93749 6.8751 5.93749C7.04086 5.93749 7.19983 6.00333 7.31704 6.12054C7.43425 6.23776 7.5001 6.39673 7.5001 6.56249V7.18749C7.5001 7.93341 7.20378 8.64878 6.67633 9.17622C6.14889 9.70367 5.43352 9.99999 4.6876 9.99999ZM15.9376 9.37499C15.9376 9.54075 15.8717 9.69972 15.7545 9.81693C15.6373 9.93414 15.4784 9.99999 15.3126 9.99999C14.5667 9.99999 13.8513 9.70367 13.3239 9.17622C12.7964 8.64878 12.5001 7.93341 12.5001 7.18749V6.56249C12.5001 6.39673 12.5659 6.23776 12.6832 6.12054C12.8004 6.00333 12.9593 5.93749 13.1251 5.93749C13.2909 5.93749 13.4498 6.00333 13.567 6.12054C13.6842 6.23776 13.7501 6.39673 13.7501 6.56249V7.18749C13.7522 7.60125 13.9174 7.99749 14.21 8.29007C14.5026 8.58265 14.8988 8.74793 15.3126 8.74999C15.4784 8.74999 15.6373 8.81583 15.7545 8.93304C15.8717 9.05025 15.9376 9.20923 15.9376 9.37499Z" fill="#393D4E"/>
</svg>
