<svg width="20" height="18" viewBox="0 0 20 18" fill="none" xmlns="http://www.w3.org/2000/svg">
<path d="M19.3751 9.31249C19.3751 8.48453 19.1403 7.67355 18.6977 6.97379C18.2552 6.27403 17.6232 5.7142 16.8751 5.35936V4.62499C16.8745 3.81962 16.6147 3.03583 16.1341 2.38961C15.6535 1.74338 14.9776 1.26906 14.2064 1.03684C13.4352 0.804616 12.6098 0.826829 11.8523 1.10019C11.0947 1.37355 10.4453 1.88354 10.0001 2.55467C9.55491 1.88354 8.90549 1.37355 8.14794 1.10019C7.39039 0.826829 6.56496 0.804616 5.7938 1.03684C5.02264 1.26906 4.34673 1.74338 3.8661 2.38961C3.38547 3.03583 3.12565 3.81962 3.1251 4.62499V5.35936C2.37692 5.71412 1.74478 6.27391 1.30214 6.97368C0.859488 7.67345 0.624512 8.48447 0.624512 9.31249C0.624512 10.1405 0.859488 10.9515 1.30214 11.6513C1.74478 12.3511 2.37692 12.9109 3.1251 13.2656V13.375C3.12565 14.1804 3.38547 14.9641 3.8661 15.6104C4.34673 16.2566 5.02264 16.7309 5.7938 16.9631C6.56496 17.1954 7.39039 17.1731 8.14794 16.8998C8.90549 16.6264 9.55491 16.1164 10.0001 15.4453C10.4453 16.1164 11.0947 16.6264 11.8523 16.8998C12.6098 17.1731 13.4352 17.1954 14.2064 16.9631C14.9776 16.7309 15.6535 16.2566 16.1341 15.6104C16.6147 14.9641 16.8745 14.1804 16.8751 13.375V13.2656C17.6226 12.91 18.2541 12.35 18.6965 11.6504C19.1389 10.9508 19.3742 10.1402 19.3751 9.31249V9.31249ZM6.8751 15.875C6.2583 15.8746 5.66341 15.6463 5.20481 15.2338C4.7462 14.8213 4.45626 14.2539 4.39072 13.6406C4.59228 13.6724 4.79605 13.688 5.0001 13.6875H5.6251C5.79086 13.6875 5.94983 13.6216 6.06704 13.5044C6.18425 13.3872 6.2501 13.2282 6.2501 13.0625C6.2501 12.8967 6.18425 12.7378 6.06704 12.6205C5.94983 12.5033 5.79086 12.4375 5.6251 12.4375H5.0001C4.26363 12.4362 3.55127 12.1749 2.98869 11.6996C2.42611 11.2243 2.04947 10.5656 1.92522 9.83973C1.80096 9.11382 1.93708 8.36735 2.30955 7.73201C2.68202 7.09668 3.26691 6.6133 3.96103 6.36717C4.08249 6.32243 4.18731 6.24152 4.26135 6.13535C4.33539 6.02918 4.37509 5.90286 4.3751 5.77342V4.62499C4.3751 3.96195 4.63849 3.32606 5.10733 2.85722C5.57617 2.38838 6.21206 2.12499 6.8751 2.12499C7.53814 2.12499 8.17402 2.38838 8.64286 2.85722C9.1117 3.32606 9.3751 3.96195 9.3751 4.62499V10.5859C8.69084 9.96492 7.79913 9.62217 6.8751 9.62499C6.70934 9.62499 6.55037 9.69083 6.43316 9.80804C6.31595 9.92525 6.2501 10.0842 6.2501 10.25C6.2501 10.4157 6.31595 10.5747 6.43316 10.6919C6.55037 10.8091 6.70934 10.875 6.8751 10.875C7.53814 10.875 8.17402 11.1384 8.64286 11.6072C9.1117 12.0761 9.3751 12.7119 9.3751 13.375C9.3751 14.038 9.1117 14.6739 8.64286 15.1428C8.17402 15.6116 7.53814 15.875 6.8751 15.875ZM15.0001 12.4375H14.3751C14.2093 12.4375 14.0504 12.5033 13.9332 12.6205C13.8159 12.7378 13.7501 12.8967 13.7501 13.0625C13.7501 13.2282 13.8159 13.3872 13.9332 13.5044C14.0504 13.6216 14.2093 13.6875 14.3751 13.6875H15.0001C15.2041 13.688 15.4079 13.6724 15.6095 13.6406C15.5581 14.1211 15.3687 14.5763 15.064 14.9514C14.7593 15.3264 14.3525 15.6051 13.8927 15.7537C13.433 15.9024 12.94 15.9146 12.4734 15.789C12.0069 15.6633 11.5867 15.4051 11.2638 15.0457C10.9409 14.6862 10.7291 14.2409 10.654 13.7636C10.5789 13.2862 10.6437 12.7974 10.8407 12.3561C11.0376 11.9149 11.3581 11.5402 11.7636 11.2773C12.169 11.0144 12.6419 10.8747 13.1251 10.875C13.2909 10.875 13.4498 10.8091 13.567 10.6919C13.6842 10.5747 13.7501 10.4157 13.7501 10.25C13.7501 10.0842 13.6842 9.92525 13.567 9.80804C13.4498 9.69083 13.2909 9.62499 13.1251 9.62499C12.2011 9.62217 11.3094 9.96492 10.6251 10.5859V4.62499C10.6251 3.96195 10.8885 3.32606 11.3573 2.85722C11.8262 2.38838 12.4621 2.12499 13.1251 2.12499C13.7881 2.12499 14.424 2.38838 14.8929 2.85722C15.3617 3.32606 15.6251 3.96195 15.6251 4.62499V5.77342C15.6251 5.90286 15.6648 6.02918 15.7388 6.13535C15.8129 6.24152 15.9177 6.32243 16.0392 6.36717C16.7333 6.6133 17.3182 7.09668 17.6906 7.73201C18.0631 8.36735 18.1992 9.11382 18.075 9.83973C17.9507 10.5656 17.5741 11.2243 17.0115 11.6996C16.4489 12.1749 15.7366 12.4362 15.0001 12.4375V12.4375ZM4.6876 8.99999C4.52184 8.99999 4.36287 8.93414 4.24566 8.81693C4.12845 8.69972 4.0626 8.54075 4.0626 8.37499C4.0626 8.20923 4.12845 8.05025 4.24566 7.93304C4.36287 7.81583 4.52184 7.74999 4.6876 7.74999C5.10137 7.74793 5.4976 7.58265 5.79018 7.29007C6.08276 6.99749 6.24804 6.60125 6.2501 6.18749V5.56249C6.2501 5.39673 6.31595 5.23776 6.43316 5.12055C6.55037 5.00333 6.70934 4.93749 6.8751 4.93749C7.04086 4.93749 7.19983 5.00333 7.31704 5.12055C7.43425 5.23776 7.5001 5.39673 7.5001 5.56249V6.18749C7.5001 6.93341 7.20378 7.64878 6.67633 8.17622C6.14889 8.70367 5.43352 8.99999 4.6876 8.99999V8.99999ZM15.9376 8.37499C15.9376 8.54075 15.8717 8.69972 15.7545 8.81693C15.6373 8.93414 15.4784 8.99999 15.3126 8.99999C14.5667 8.99999 13.8513 8.70367 13.3239 8.17622C12.7964 7.64878 12.5001 6.93341 12.5001 6.18749V5.56249C12.5001 5.39673 12.5659 5.23776 12.6832 5.12055C12.8004 5.00333 12.9593 4.93749 13.1251 4.93749C13.2909 4.93749 13.4498 5.00333 13.567 5.12055C13.6842 5.23776 13.7501 5.39673 13.7501 5.56249V6.18749C13.7522 6.60125 13.9174 6.99749 14.21 7.29007C14.5026 7.58265 14.8988 7.74793 15.3126 7.74999C15.4784 7.74999 15.6373 7.81583 15.7545 7.93304C15.8717 8.05025 15.9376 8.20923 15.9376 8.37499Z" fill="#393D4E"/>
</svg>
