<svg width="18" height="21" viewBox="0 0 18 21" fill="none" xmlns="http://www.w3.org/2000/svg">
<path d="M16.6594 9.96561C16.8002 10.1078 16.8792 10.2999 16.8792 10.5C16.8792 10.7001 16.8002 10.8922 16.6594 11.0344L8.96252 18.7125C7.97791 19.6971 6.64248 20.2503 5.25002 20.2503C3.85757 20.2503 2.52214 19.6971 1.53752 18.7125C0.552908 17.7279 -0.000244141 16.3924 -0.000244141 15C-0.000244141 13.6075 0.552908 12.2721 1.53752 11.2875L10.8469 1.85624C11.1913 1.49306 11.605 1.20252 12.0635 1.00173C12.522 0.800936 13.016 0.693965 13.5165 0.687118C14.017 0.680272 14.5138 0.773688 14.9776 0.961862C15.4414 1.15003 15.8629 1.42916 16.2171 1.78277C16.5714 2.13639 16.8512 2.55735 17.0402 3.02083C17.2292 3.48431 17.3235 3.98093 17.3175 4.48143C17.3116 4.98193 17.2055 5.47617 17.0055 5.93502C16.8055 6.39386 16.5157 6.80803 16.1531 7.15311L6.84377 16.5844C6.63568 16.7957 6.38756 16.9633 6.11392 17.0776C5.84027 17.1919 5.54658 17.2505 5.25002 17.25C4.80421 17.2511 4.36812 17.1197 3.9971 16.8726C3.62607 16.6254 3.33683 16.2736 3.16607 15.8618C2.99532 15.45 2.95075 14.9967 3.03803 14.5595C3.1253 14.1223 3.34049 13.7209 3.65627 13.4062L11.4656 5.47499C11.5332 5.39919 11.6155 5.3379 11.7075 5.29484C11.7994 5.25179 11.8992 5.22785 12.0007 5.2245C12.1022 5.22114 12.2033 5.23843 12.2979 5.27531C12.3925 5.3122 12.4786 5.36792 12.5511 5.43908C12.6235 5.51025 12.6808 5.59539 12.7193 5.68933C12.7579 5.78328 12.7769 5.88407 12.7754 5.98561C12.7738 6.08715 12.7517 6.18731 12.7102 6.28003C12.6688 6.37274 12.609 6.45608 12.5344 6.52499L4.72502 14.4656C4.65393 14.5353 4.59743 14.6184 4.5588 14.7102C4.52017 14.8019 4.50019 14.9004 4.50002 15C4.4989 15.1995 4.57636 15.3915 4.71565 15.5344C4.85962 15.672 5.05087 15.7491 5.25002 15.75C5.44956 15.7511 5.64152 15.6737 5.7844 15.5344L15.0844 6.09374C15.2957 5.88565 15.4634 5.63753 15.5777 5.36388C15.692 5.09023 15.7506 4.79654 15.75 4.49999C15.7511 4.05418 15.6198 3.61809 15.3726 3.24706C15.1254 2.87603 14.7736 2.58679 14.3618 2.41604C13.95 2.24528 13.4967 2.20072 13.0596 2.28799C12.6224 2.37527 12.221 2.59045 11.9063 2.90624L2.60627 12.3469C2.2431 12.6913 1.95255 13.105 1.75176 13.5635C1.55097 14.0219 1.444 14.516 1.43715 15.0165C1.43031 15.517 1.52372 16.0138 1.7119 16.4776C1.90007 16.9414 2.17919 17.3628 2.53281 17.7171C2.88643 18.0713 3.30738 18.3512 3.77086 18.5402C4.23434 18.7292 4.73097 18.8235 5.23147 18.8175C5.73196 18.8115 6.2262 18.7054 6.68505 18.5055C7.1439 18.3055 7.55807 18.0157 7.90315 17.6531L15.5906 9.96561C15.7328 9.82478 15.9249 9.74577 16.125 9.74577C16.3252 9.74577 16.5172 9.82478 16.6594 9.96561V9.96561Z" fill="#677487"/>
</svg>
