<svg width="230" height="130" viewBox="0 0 230 130" fill="none" xmlns="http://www.w3.org/2000/svg">
<path fill-rule="evenodd" clip-rule="evenodd" d="M3.31049 26.2575C6.02888 24.4595 9.90313 23.3679 15.3399 24.0743C15.3399 24.0743 20.7125 6.65084 37.2797 13.3077C37.2797 13.3077 44.1506 -4.75785 62.4302 3.20469L63.7359 3.86823C69.0443 7.44281 71.2918 13.3077 71.2918 13.3077C87.8376 6.62944 93.2316 24.0743 93.2316 24.0743C110.013 21.9338 111.725 36.7672 111.725 36.7672H6.47838C0.806139 36.7672 -1.44135 29.3826 3.31049 26.2575Z" fill="white"/>
<path fill-rule="evenodd" clip-rule="evenodd" d="M48.9262 1.20739C45.643 2.18642 42.8671 4.15838 40.566 6.82305C39.3878 8.18732 38.4096 9.64675 37.6191 11.1067L37.5373 11.2592C37.3224 11.6629 37.135 12.0429 36.9742 12.3933L36.9328 12.4843L36.8809 12.465C32.5431 10.8516 28.6937 10.7587 25.3271 11.9768C22.4481 13.0185 20.0527 14.9649 18.0993 17.5455C17.0519 18.9291 16.1976 20.4084 15.5201 21.8878L15.4501 22.0423C15.2664 22.4511 15.1073 22.836 14.9721 23.1908L14.9029 23.3748L14.8998 23.3744C9.99403 22.8284 6.02275 23.6938 2.95632 25.722C-2.32253 29.1937 0.163815 37.4094 6.47846 37.4094H111.725C112.109 37.4094 112.407 37.0749 112.363 36.6937L112.351 36.5992C112.334 36.4789 112.306 36.3078 112.265 36.0918C112.177 35.6311 112.054 35.1197 111.893 34.57C111.432 33.0013 110.747 31.4326 109.792 29.9649C108.357 27.7609 106.44 25.9855 103.978 24.8032L103.844 24.7397C101.066 23.4408 97.709 22.9437 93.732 23.3691L93.6685 23.3761L93.6485 23.3217C93.4865 22.8875 93.2874 22.4051 93.0497 21.8864C92.3711 20.4062 91.5159 18.9262 90.468 17.5419C88.5125 14.9583 86.116 13.01 83.2373 11.9682L83.1139 11.9242C79.8195 10.7674 76.0676 10.8623 71.8536 12.4037L71.6369 12.4841L71.6543 12.5218C71.4604 12.0932 71.2249 11.617 70.9463 11.105C70.1516 9.64487 69.1694 8.18524 67.9875 6.82082C66.8259 5.47968 65.5303 4.30239 64.0947 3.33567C64.0729 3.32102 64.0503 3.30772 64.0269 3.29584L62.7212 2.6323L62.6867 2.61604C57.5551 0.380698 52.9695 0.00168777 48.9262 1.20739ZM62.1574 3.78639L63.4083 4.42211L63.3773 4.401C64.714 5.30108 65.9261 6.40252 67.0168 7.66172C68.1339 8.9514 69.0653 10.3355 69.8182 11.719C70.0813 12.2023 70.3029 12.6503 70.4841 13.0511L70.5711 13.2472C70.5977 13.3084 70.6219 13.3654 70.6438 13.4179L70.6922 13.5376C70.8207 13.8729 71.1992 14.0377 71.5322 13.9033C75.8428 12.1634 79.5773 12.0095 82.8002 13.1759C85.4229 14.125 87.6279 15.9176 89.444 18.3171C90.4311 19.6211 91.2403 21.0215 91.8822 22.4217C92.1066 22.9112 92.2938 23.3649 92.4453 23.7708L92.5179 23.9696C92.5326 24.0109 92.5465 24.0504 92.5594 24.0878L92.6182 24.2641C92.7103 24.5622 93.0034 24.7508 93.3129 24.7114C97.3733 24.1935 100.717 24.6623 103.422 25.961C105.661 27.0359 107.403 28.6499 108.715 30.6655C109.597 32.0206 110.233 33.4764 110.661 34.9321L110.704 35.0837C110.79 35.3844 110.862 35.6712 110.922 35.9414L110.962 36.1252H6.47847C1.43596 36.1252 -0.54943 29.5648 3.66342 26.7942C6.57207 24.8704 10.4059 24.0809 15.2573 24.7112C15.5545 24.7498 15.837 24.5778 15.9411 24.3004L15.9935 24.1422L16.0322 24.0299C16.0529 23.9708 16.0757 23.9074 16.1005 23.8397L16.126 23.7707C16.2771 23.3651 16.4639 22.9117 16.6878 22.4226C17.3285 21.0233 18.1368 19.6239 19.1233 18.3207C20.9373 15.9244 23.1411 14.1336 25.7641 13.1845C28.9875 12.0182 32.7247 12.1696 37.0404 13.9037C37.3738 14.0376 37.7523 13.872 37.88 13.5361L37.9281 13.4165L37.9746 13.3057C38.0077 13.2279 38.045 13.1425 38.0867 13.0498C38.2667 12.6493 38.4869 12.2014 38.7485 11.7182C39.4973 10.3352 40.4247 8.9517 41.538 7.66252C43.6894 5.17123 46.2659 3.34091 49.2932 2.43819C52.9935 1.33478 57.2143 1.66763 62.0083 3.72201L62.1574 3.78639Z" fill="#1D2675"/>
<path fill-rule="evenodd" clip-rule="evenodd" d="M73.0043 118.298C75.7227 116.5 79.597 115.408 85.0338 116.114C85.0338 116.114 90.4063 98.691 106.974 105.348C106.974 105.348 113.844 87.2823 132.124 95.2448L133.43 95.9084C138.738 99.483 140.986 105.348 140.986 105.348C157.531 98.6696 162.925 116.114 162.925 116.114C179.707 113.974 181.419 128.807 181.419 128.807H76.1722C70.5 128.786 68.2525 121.401 73.0043 118.298Z" fill="white"/>
<path fill-rule="evenodd" clip-rule="evenodd" d="M118.62 93.2475C115.336 94.2266 112.561 96.1985 110.259 98.8632C109.081 100.227 108.103 101.687 107.313 103.147L107.231 103.299C107.016 103.703 106.828 104.083 106.668 104.433L106.626 104.524L106.574 104.505C102.236 102.892 98.3871 102.799 95.0206 104.017C92.1416 105.059 89.7461 107.005 87.7927 109.586C86.7453 110.969 85.891 112.449 85.2135 113.928L85.1435 114.082C84.9598 114.491 84.8008 114.876 84.6655 115.231L84.5963 115.415L84.5932 115.415C79.6874 114.869 75.7162 115.734 72.6497 117.762C67.3703 121.21 69.8566 129.426 76.1695 129.45L181.419 129.45C181.803 129.45 182.101 129.115 182.057 128.734L182.044 128.639C182.028 128.519 182 128.348 181.958 128.132C181.87 127.671 181.748 127.16 181.586 126.61C181.125 125.041 180.44 123.473 179.485 122.005C178.051 119.801 176.133 118.026 173.671 116.843L173.537 116.78C170.759 115.481 167.402 114.984 163.425 115.409L163.362 115.416L163.342 115.362C163.18 114.928 162.981 114.445 162.743 113.927C162.064 112.446 161.209 110.966 160.161 109.582C158.206 106.998 155.809 105.05 152.931 104.008L152.807 103.964C149.513 102.808 145.761 102.902 141.547 104.444L141.33 104.524L141.348 104.562C141.154 104.133 140.918 103.657 140.64 103.145C139.845 101.685 138.863 100.225 137.681 98.8609C136.519 97.5198 135.224 96.3425 133.788 95.3758C133.766 95.3612 133.744 95.3479 133.72 95.336L132.415 94.6724L132.38 94.6562C127.248 92.4208 122.663 92.0418 118.62 93.2475ZM131.851 95.8265L133.102 96.4622L133.071 96.4411C134.407 97.3412 135.62 98.4427 136.71 99.7018C137.827 100.992 138.759 102.376 139.512 103.759C139.775 104.242 139.996 104.69 140.177 105.091L140.265 105.287C140.291 105.349 140.315 105.406 140.337 105.458L140.386 105.578C140.514 105.913 140.893 106.078 141.226 105.943C145.536 104.204 149.271 104.05 152.494 105.216C155.116 106.165 157.321 107.958 159.137 110.357C160.125 111.661 160.934 113.062 161.576 114.462C161.8 114.951 161.987 115.405 162.139 115.811L162.211 116.01C162.226 116.051 162.24 116.09 162.253 116.128L162.312 116.304C162.404 116.602 162.697 116.791 163.006 116.752C167.067 116.234 170.41 116.702 173.115 118.001C175.354 119.076 177.097 120.69 178.409 122.706C179.29 124.061 179.926 125.517 180.354 126.972L180.398 127.124C180.497 127.475 180.579 127.807 180.645 128.115L180.655 128.165L76.1719 128.165C71.13 128.146 69.1445 121.586 73.3551 118.835C76.2655 116.91 80.0993 116.121 84.9507 116.751C85.2479 116.79 85.5304 116.618 85.6345 116.341L85.6869 116.182L85.7256 116.07C85.7463 116.011 85.7691 115.948 85.7939 115.88L85.8194 115.811C85.9705 115.405 86.1573 114.952 86.3812 114.463C87.0219 113.063 87.8302 111.664 88.8167 110.361C90.6307 107.964 92.8345 106.174 95.4575 105.225C98.6809 104.058 102.418 104.21 106.734 105.944C107.067 106.078 107.446 105.912 107.573 105.576L107.621 105.457L107.668 105.346C107.701 105.268 107.738 105.183 107.78 105.09C107.96 104.689 108.18 104.242 108.442 103.758C109.191 102.375 110.118 100.992 111.231 99.7027C113.383 97.2114 115.959 95.381 118.987 94.4783C122.687 93.3749 126.908 93.7078 131.702 95.7621L131.851 95.8265Z" fill="#1D2675"/>
<path fill-rule="evenodd" clip-rule="evenodd" d="M120.78 63.6302C123.498 61.8322 127.372 60.7406 132.809 61.447C132.809 61.447 138.182 44.0235 154.749 50.6804C154.749 50.6804 161.62 32.6148 179.899 40.5774L181.205 41.2409C186.513 44.8155 188.761 50.6804 188.761 50.6804C205.307 44.0021 210.701 61.447 210.701 61.447C227.482 59.3065 229.194 74.1399 229.194 74.1399H123.969C118.275 74.1399 116.028 66.7553 120.78 63.6302Z" fill="white"/>
<path fill-rule="evenodd" clip-rule="evenodd" d="M166.395 38.5799C163.112 39.5589 160.336 41.5309 158.035 44.1955C156.857 45.5598 155.879 47.0192 155.088 48.4792L155.006 48.6317C154.792 49.0354 154.604 49.4154 154.443 49.7658L154.402 49.8568L154.35 49.8374C150.012 48.2241 146.163 48.1312 142.796 49.3493C139.917 50.391 137.522 52.3374 135.568 54.918C134.521 56.3016 133.667 57.7809 132.989 59.2603L132.919 59.4148C132.735 59.8236 132.576 60.2085 132.441 60.5633L132.372 60.7473L132.369 60.7469C127.463 60.2009 123.492 61.0663 120.425 63.0945C115.142 66.5689 117.638 74.7819 123.969 74.7819H229.194C229.578 74.7819 229.876 74.4474 229.832 74.0661L229.82 73.9717C229.803 73.8513 229.775 73.6803 229.734 73.4643C229.646 73.0036 229.523 72.4922 229.362 71.9424C228.901 70.3738 228.216 68.8051 227.261 67.3374C225.826 65.1334 223.909 63.358 221.447 62.1757L221.313 62.1122C218.535 60.8132 215.178 60.3162 211.201 60.7416L211.138 60.7486L211.118 60.6942C210.956 60.26 210.757 59.7776 210.519 59.2589C209.84 57.7787 208.985 56.2987 207.937 54.9144C205.982 52.3308 203.585 50.3825 200.706 49.3407L200.583 49.2967C197.289 48.1399 193.537 48.2348 189.323 49.7761L189.106 49.8566L189.123 49.8943C188.93 49.4656 188.694 48.9895 188.415 48.4775C187.621 47.0174 186.638 45.5577 185.457 44.1933C184.295 42.8522 182.999 41.6749 181.564 40.7082C181.542 40.6935 181.519 40.6802 181.496 40.6683L180.19 40.0048L180.156 39.9885C175.024 37.7532 170.439 37.3742 166.395 38.5799ZM179.626 41.1589L180.877 41.7946L180.846 41.7735C182.183 42.6736 183.395 43.775 184.486 45.0342C185.603 46.3239 186.534 47.708 187.287 49.0915C187.55 49.5748 187.772 50.0228 187.953 50.4236L188.04 50.6197C188.067 50.6809 188.091 50.7379 188.113 50.7904L188.161 50.9101C188.29 51.2454 188.668 51.4102 189.001 51.2758C193.312 49.5359 197.046 49.382 200.269 50.5484C202.892 51.4975 205.097 53.2901 206.913 55.6895C207.9 56.9936 208.709 58.394 209.351 59.7942C209.576 60.2837 209.763 60.7374 209.914 61.1433L209.987 61.3421C210.002 61.3834 210.016 61.4229 210.029 61.4603L210.087 61.6366C210.179 61.9346 210.472 62.1233 210.782 62.0839C214.842 61.5659 218.186 62.0348 220.891 63.3335C223.13 64.4084 224.873 66.0224 226.184 68.038C227.066 69.3931 227.702 70.8489 228.13 72.3046L228.173 72.4562C228.273 72.807 228.355 73.139 228.42 73.4476L228.43 73.4975L123.969 73.4977C118.909 73.4977 116.916 66.9394 121.133 64.1667C124.041 62.2428 127.875 61.4534 132.726 62.0837C133.024 62.1223 133.306 61.9503 133.41 61.6729L133.463 61.5147L133.501 61.4024C133.522 61.3433 133.545 61.2799 133.57 61.2122L133.595 61.1432C133.746 60.7376 133.933 60.2842 134.157 59.7951C134.798 58.3958 135.606 56.9964 136.592 55.6932C138.406 53.2968 140.61 51.5061 143.233 50.557C146.457 49.3907 150.194 49.5421 154.509 51.2762C154.843 51.4101 155.221 51.2444 155.349 50.9086L155.397 50.789L155.444 50.6781C155.477 50.6004 155.514 50.515 155.556 50.4223C155.736 50.0217 155.956 49.5739 156.218 49.0907C156.966 47.7077 157.894 46.3242 159.007 45.035C161.158 42.5437 163.735 40.7134 166.762 39.8107C170.463 38.7073 174.683 39.0401 179.477 41.0945L179.626 41.1589Z" fill="#1D2675"/>
<path fill-rule="evenodd" clip-rule="evenodd" d="M143.319 89.851H43.4658C41.3681 89.851 39.6558 88.1386 39.6558 86.0409V26.6643C39.6558 24.5667 41.3681 22.8543 43.4658 22.8543H143.319C145.416 22.8543 147.129 24.5667 147.129 26.6643V86.0409C147.129 88.1386 145.416 89.851 143.319 89.851Z" fill="#454B89"/>
<path fill-rule="evenodd" clip-rule="evenodd" d="M144.017 24.2946C144.297 24.0773 144.701 24.1284 144.918 24.4087C145.127 24.6782 145.088 25.0615 144.835 25.2837L144.804 25.3096L95.7677 63.3227C94.3804 64.4073 92.5084 64.4245 91.1077 63.3759L91.0403 63.3243L42.0022 25.3096C41.7219 25.0923 41.6708 24.6889 41.8881 24.4087C42.097 24.1392 42.478 24.0816 42.7561 24.2707L42.789 24.2946L91.8292 62.3109C92.7552 63.0349 93.9816 63.0493 94.9216 62.3528L94.9788 62.3093L144.017 24.2946Z" fill="white"/>
<path fill-rule="evenodd" clip-rule="evenodd" d="M71.1653 46.988C71.4196 46.7407 71.8261 46.7465 72.0733 47.0008C72.3107 47.2449 72.3149 47.6293 72.0899 47.8784L72.0605 47.9088L41.2592 77.8539C41.0049 78.1011 40.5984 78.0954 40.3512 77.8411C40.1138 77.597 40.1096 77.2126 40.3346 76.9635L40.364 76.9331L71.1653 46.988Z" fill="white"/>
<path fill-rule="evenodd" clip-rule="evenodd" d="M114.989 47.0008C115.227 46.7566 115.611 46.7416 115.866 46.9595L115.897 46.988L146.699 76.9331C146.953 77.1803 146.959 77.5869 146.712 77.8411C146.474 78.0852 146.09 78.1003 145.835 77.8824L145.803 77.8539L115.002 47.9088C114.748 47.6616 114.742 47.255 114.989 47.0008Z" fill="white"/>
<path fill-rule="evenodd" clip-rule="evenodd" d="M143.704 124.505C160.266 124.505 173.692 111.079 173.692 94.5172C173.692 77.9553 160.266 64.5293 143.704 64.5293C127.142 64.5293 113.716 77.9553 113.716 94.5172C113.716 111.079 127.142 124.505 143.704 124.505Z" fill="#FFD1CB"/>
<path fill-rule="evenodd" clip-rule="evenodd" d="M167.313 65.9206C166.071 65.15 164.423 65.5353 163.653 66.7768L157.103 77.3079C153.207 74.1614 148.263 72.2778 142.89 72.2778C130.39 72.2778 120.223 82.445 120.223 94.9453C120.223 107.446 130.39 117.613 142.89 117.613C155.391 117.613 165.558 107.446 165.558 94.9453C165.558 89.7868 163.824 85.035 160.913 81.2035L168.148 69.5594C168.94 68.3179 168.554 66.6911 167.313 65.9206ZM163.888 94.9453C163.888 106.525 154.47 115.943 142.89 115.943C131.31 115.943 121.892 106.525 121.892 94.9453C121.892 83.3654 131.31 73.9473 142.89 73.9473C147.942 73.9473 152.587 75.7453 156.204 78.7206L144.346 97.7921L137.475 88.6523C136.597 87.4751 134.928 87.2396 133.75 88.1172C132.573 88.9948 132.338 90.6644 133.215 91.8416L142.419 104.085C142.933 104.749 143.704 105.155 144.538 105.155C144.581 105.155 144.624 105.155 144.645 105.155C145.523 105.113 146.315 104.642 146.786 103.914L159.95 82.7661C162.433 86.1908 163.888 90.4075 163.888 94.9453Z" fill="#F98B7C"/>
</svg>
