<svg width="24" height="24" viewBox="0 0 24 24" fill="none" xmlns="http://www.w3.org/2000/svg">
<path d="M22.5 12.75V18.75C22.5 19.1478 22.342 19.5294 22.0607 19.8107C21.7794 20.092 21.3978 20.25 21 20.25H3C2.60218 20.25 2.22064 20.092 1.93934 19.8107C1.65804 19.5294 1.5 19.1478 1.5 18.75V12.75C1.5 12.3522 1.65804 11.9706 1.93934 11.6893C2.22064 11.408 2.60218 11.25 3 11.25H7.5C7.69891 11.25 7.88968 11.329 8.03033 11.4697C8.17098 11.6103 8.25 11.8011 8.25 12C8.25 12.1989 8.17098 12.3897 8.03033 12.5303C7.88968 12.671 7.69891 12.75 7.5 12.75H3V18.75H21V12.75H16.5C16.3011 12.75 16.1103 12.671 15.9697 12.5303C15.829 12.3897 15.75 12.1989 15.75 12C15.75 11.8011 15.829 11.6103 15.9697 11.4697C16.1103 11.329 16.3011 11.25 16.5 11.25H21C21.3978 11.25 21.7794 11.408 22.0607 11.6893C22.342 11.9706 22.5 12.3522 22.5 12.75ZM11.4656 12.5344C11.609 12.673 11.8006 12.7505 12 12.7505C12.1994 12.7505 12.391 12.673 12.5344 12.5344L17.0344 8.03437C17.154 7.88865 17.2151 7.70366 17.2058 7.51537C17.1966 7.32708 17.1176 7.14896 16.9843 7.01566C16.851 6.88236 16.6729 6.8034 16.4846 6.79416C16.2963 6.78491 16.1113 6.84603 15.9656 6.96563L12.75 10.1906V2.25C12.75 2.05109 12.671 1.86032 12.5303 1.71967C12.3897 1.57902 12.1989 1.5 12 1.5C11.8011 1.5 11.6103 1.57902 11.4697 1.71967C11.329 1.86032 11.25 2.05109 11.25 2.25V10.1906L8.03437 6.96563C7.88865 6.84603 7.70366 6.78491 7.51537 6.79416C7.32708 6.8034 7.14896 6.88236 7.01566 7.01566C6.88236 7.14896 6.8034 7.32708 6.79416 7.51537C6.78491 7.70366 6.84603 7.88865 6.96563 8.03437L11.4656 12.5344ZM18.75 15.75C18.75 15.5275 18.684 15.31 18.5604 15.125C18.4368 14.94 18.2611 14.7958 18.0555 14.7106C17.85 14.6255 17.6238 14.6032 17.4055 14.6466C17.1873 14.69 16.9868 14.7972 16.8295 14.9545C16.6722 15.1118 16.565 15.3123 16.5216 15.5305C16.4782 15.7488 16.5005 15.975 16.5856 16.1805C16.6708 16.3861 16.815 16.5618 17 16.6854C17.185 16.809 17.4025 16.875 17.625 16.875C17.9234 16.875 18.2095 16.7565 18.4205 16.5455C18.6315 16.3345 18.75 16.0484 18.75 15.75Z" fill="white"/>
</svg>
