<svg width="18" height="19" viewBox="0 0 18 19" fill="none" xmlns="http://www.w3.org/2000/svg">
<path d="M12.75 2.75001C12.947 2.55303 13.1808 2.39677 13.4382 2.29017C13.6956 2.18356 13.9714 2.12869 14.25 2.12869C14.5286 2.12869 14.8044 2.18356 15.0618 2.29017C15.3192 2.39677 15.553 2.55303 15.75 2.75001C15.947 2.947 16.1032 3.18085 16.2098 3.43822C16.3165 3.69559 16.3713 3.97144 16.3713 4.25001C16.3713 4.52859 16.3165 4.80444 16.2098 5.06181C16.1032 5.31918 15.947 5.55303 15.75 5.75001L5.625 15.875L1.5 17L2.625 12.875L12.75 2.75001Z" stroke="#393D4E" stroke-width="2" stroke-linecap="round" stroke-linejoin="round"/>
</svg>
