<svg width="20" height="16" viewBox="0 0 20 16" fill="none" xmlns="http://www.w3.org/2000/svg">
<g clip-path="url(#clip0_3660_37097)">
<path d="M1 7H2V13H1C0.868635 13.0002 0.738529 12.9744 0.617132 12.9242C0.495736 12.874 0.385435 12.8003 0.292545 12.7075C0.199656 12.6146 0.126002 12.5043 0.0758029 12.3829C0.0256035 12.2615 -0.000155569 12.1314 7.06822e-07 12L7.06822e-07 8C-0.000155569 7.86863 0.0256035 7.73853 0.0758029 7.61713C0.126002 7.49574 0.199656 7.38543 0.292545 7.29254C0.385435 7.19966 0.495736 7.126 0.617132 7.0758C0.738529 7.0256 0.868635 6.99984 1 7ZM17 5.5V14C16.9995 14.5303 16.7886 15.0387 16.4136 15.4136C16.0387 15.7886 15.5303 15.9995 15 16H5C4.46973 15.9995 3.96132 15.7886 3.58636 15.4136C3.2114 15.0387 3.00052 14.5303 3 14V5.5C2.99989 5.17167 3.06449 4.84653 3.19008 4.54317C3.31568 4.2398 3.49983 3.96416 3.732 3.73199C3.96416 3.49983 4.2398 3.31568 4.54317 3.19008C4.84653 3.06448 5.17167 2.99989 5.5 3H9V1C9 0.734784 9.10536 0.48043 9.29289 0.292893C9.48043 0.105357 9.73478 0 10 0C10.2652 0 10.5196 0.105357 10.7071 0.292893C10.8946 0.48043 11 0.734784 11 1V3H14.5C14.8283 2.99989 15.1535 3.06448 15.4568 3.19008C15.7602 3.31568 16.0358 3.49983 16.268 3.73199C16.5002 3.96416 16.6843 4.2398 16.8099 4.54317C16.9355 4.84653 17.0001 5.17167 17 5.5ZM8.25 8C8.25 7.75277 8.17669 7.5111 8.03934 7.30554C7.90199 7.09998 7.70676 6.93976 7.47835 6.84515C7.24995 6.75054 6.99861 6.72579 6.75614 6.77402C6.51366 6.82225 6.29093 6.9413 6.11612 7.11612C5.9413 7.29093 5.82225 7.51366 5.77402 7.75614C5.72579 7.99861 5.75054 8.24995 5.84515 8.47835C5.93976 8.70676 6.09998 8.90199 6.30554 9.03934C6.5111 9.17669 6.75277 9.25 7 9.25C7.16416 9.25001 7.32671 9.21769 7.47837 9.15487C7.63003 9.09206 7.76784 8.99999 7.88391 8.88391C7.99999 8.76784 8.09206 8.63003 8.15488 8.47837C8.21769 8.32671 8.25001 8.16416 8.25 8ZM8 12H6V13H8V12ZM11 12H9V13H11V12ZM14.25 8C14.25 7.75277 14.1767 7.5111 14.0393 7.30554C13.902 7.09998 13.7068 6.93976 13.4784 6.84515C13.2499 6.75054 12.9986 6.72579 12.7561 6.77402C12.5137 6.82225 12.2909 6.9413 12.1161 7.11612C11.9413 7.29093 11.8223 7.51366 11.774 7.75614C11.7258 7.99861 11.7505 8.24995 11.8452 8.47835C11.9398 8.70676 12.1 8.90199 12.3055 9.03934C12.5111 9.17669 12.7528 9.25 13 9.25C13.1642 9.25001 13.3267 9.21769 13.4784 9.15487C13.63 9.09206 13.7678 8.99999 13.8839 8.88391C14 8.76784 14.0921 8.63003 14.1549 8.47837C14.2177 8.32671 14.25 8.16416 14.25 8ZM14 12H12V13H14V12ZM20 8V12C20.0002 12.1314 19.9744 12.2615 19.9242 12.3829C19.874 12.5043 19.8003 12.6146 19.7075 12.7075C19.6146 12.8003 19.5043 12.874 19.3829 12.9242C19.2615 12.9744 19.1314 13.0002 19 13H18V7H19C19.1314 6.99984 19.2615 7.0256 19.3829 7.0758C19.5043 7.126 19.6146 7.19966 19.7075 7.29254C19.8003 7.38543 19.874 7.49574 19.9242 7.61713C19.9744 7.73853 20.0002 7.86863 20 8Z" fill="white"/>
</g>
<defs>
<clipPath id="clip0_3660_37097">
<rect width="20" height="16" fill="white"/>
</clipPath>
</defs>
</svg>
