<svg width="24" height="25" viewBox="0 0 24 25" fill="none" xmlns="http://www.w3.org/2000/svg">
<path opacity="0.2" d="M19.5 8.75H14.25V3.5L19.5 8.75Z" fill="#393D4E"/>
<path d="M20.0344 8.21564L14.7844 2.96564C14.6415 2.82635 14.4495 2.74889 14.25 2.75001H5.25C4.85218 2.75001 4.47064 2.90805 4.18934 3.18935C3.90804 3.47066 3.75 3.85219 3.75 4.25001V20.75C3.75 21.1478 3.90804 21.5294 4.18934 21.8107C4.47064 22.092 4.85218 22.25 5.25 22.25H18.75C19.1478 22.25 19.5294 22.092 19.8107 21.8107C20.092 21.5294 20.25 21.1478 20.25 20.75V8.75001C20.2511 8.55048 20.1737 8.35851 20.0344 8.21564ZM15 5.30939L17.6906 8.00001H15V5.30939ZM18.75 20.75H5.25V4.25001H13.5V8.75001C13.5 8.94892 13.579 9.13969 13.7197 9.28034C13.8603 9.42099 14.0511 9.50001 14.25 9.50001H18.75V20.75Z" fill="#393D4E"/>
</svg>
