<svg width="275" height="129" viewBox="0 0 275 129" fill="none" xmlns="http://www.w3.org/2000/svg">
<rect x="55.3506" y="80.5617" width="46.9279" height="11.7482" transform="rotate(90 55.3506 80.5617)" fill="#454B89"/>
<rect x="52.3208" y="84.5496" width="21.8458" height="6.311" transform="rotate(90 52.3208 84.5496)" fill="white"/>
<rect x="52.3179" y="107.315" width="2.03894" height="6.311" transform="rotate(90 52.3179 107.315)" fill="#F98B7C"/>
<path fill-rule="evenodd" clip-rule="evenodd" d="M49.0496 116.721C47.5571 116.721 46.3472 117.931 46.3472 119.424C46.3472 120.916 47.5571 122.126 49.0496 122.126C50.5421 122.126 51.752 120.916 51.752 119.424C51.752 117.931 50.5421 116.721 49.0496 116.721ZM49.0496 117.692C50.0058 117.692 50.7811 118.467 50.7811 119.424C50.7811 120.38 50.0058 121.155 49.0496 121.155C48.0933 121.155 47.3181 120.38 47.3181 119.424C47.3181 118.467 48.0933 117.692 49.0496 117.692Z" fill="white"/>
<path fill-rule="evenodd" clip-rule="evenodd" d="M51.5903 89.2601C51.8584 89.2601 52.0758 89.4775 52.0758 89.7456C52.0758 90.0041 51.8737 90.2155 51.6188 90.2302L51.5903 90.2311H46.9137C46.6456 90.2311 46.4282 90.0137 46.4282 89.7456C46.4282 89.4871 46.6303 89.2757 46.8852 89.261L46.9137 89.2601H51.5903Z" fill="#F98B7C"/>
<path fill-rule="evenodd" clip-rule="evenodd" d="M51.5903 91.6712C51.8584 91.6712 52.0758 91.8886 52.0758 92.1567C52.0758 92.4152 51.8737 92.6265 51.6188 92.6413L51.5903 92.6421H46.9137C46.6456 92.6421 46.4282 92.4248 46.4282 92.1567C46.4282 91.8981 46.6303 91.6868 46.8852 91.672L46.9137 91.6712H51.5903Z" fill="#F98B7C"/>
<path fill-rule="evenodd" clip-rule="evenodd" d="M51.5903 94.0824C51.8584 94.0824 52.0758 94.2997 52.0758 94.5679C52.0758 94.8264 51.8737 95.0377 51.6188 95.0525L51.5903 95.0533H46.9137C46.6456 95.0533 46.4282 94.836 46.4282 94.5679C46.4282 94.3093 46.6303 94.098 46.8852 94.0832L46.9137 94.0824H51.5903Z" fill="#F98B7C"/>
<rect x="67.0444" y="80.5985" width="46.9279" height="11.7482" transform="rotate(90 67.0444 80.5985)" fill="#454B89"/>
<rect x="64.0146" y="84.6027" width="21.8458" height="6.311" transform="rotate(90 64.0146 84.6027)" fill="white"/>
<rect x="64.0117" y="107.368" width="2.03894" height="6.311" transform="rotate(90 64.0117 107.368)" fill="#1D2675"/>
<path fill-rule="evenodd" clip-rule="evenodd" d="M60.7327 116.77C59.2402 116.77 58.0303 117.979 58.0303 119.472C58.0303 120.964 59.2402 122.174 60.7327 122.174C62.2252 122.174 63.4351 120.964 63.4351 119.472C63.4351 117.979 62.2252 116.77 60.7327 116.77ZM60.7327 117.74C61.6889 117.74 62.4641 118.516 62.4641 119.472C62.4641 120.428 61.6889 121.203 60.7327 121.203C59.7764 121.203 59.0012 120.428 59.0012 119.472C59.0012 118.516 59.7764 117.74 60.7327 117.74Z" fill="white"/>
<path fill-rule="evenodd" clip-rule="evenodd" d="M63.2246 99.3253C63.4928 99.3253 63.7101 99.5427 63.7101 99.8108C63.7101 100.069 63.508 100.281 63.2532 100.295L63.2246 100.296H58.5318C58.2637 100.296 58.0464 100.079 58.0464 99.8108C58.0464 99.5522 58.2485 99.3409 58.5033 99.3261L58.5318 99.3253H63.2246Z" fill="#1D2675"/>
<path fill-rule="evenodd" clip-rule="evenodd" d="M63.2246 86.8975C63.4928 86.8975 63.7101 87.1149 63.7101 87.383C63.7101 87.6415 63.508 87.8529 63.2532 87.8676L63.2246 87.8684H58.5318C58.2637 87.8684 58.0464 87.6511 58.0464 87.383C58.0464 87.1244 58.2485 86.9131 58.5033 86.8983L58.5318 86.8975H63.2246Z" fill="#1D2675"/>
<path fill-rule="evenodd" clip-rule="evenodd" d="M63.2246 101.72C63.4928 101.72 63.7101 101.938 63.7101 102.206C63.7101 102.464 63.508 102.676 63.2532 102.69L63.2246 102.691H58.5318C58.2637 102.691 58.0464 102.474 58.0464 102.206C58.0464 101.947 58.2485 101.736 58.5033 101.721L58.5318 101.72H63.2246Z" fill="#1D2675"/>
<path fill-rule="evenodd" clip-rule="evenodd" d="M63.2246 104.131C63.4928 104.131 63.7101 104.349 63.7101 104.617C63.7101 104.875 63.508 105.087 63.2532 105.102L63.2246 105.102H58.5318C58.2637 105.102 58.0464 104.885 58.0464 104.617C58.0464 104.358 58.2485 104.147 58.5033 104.132L58.5318 104.131H63.2246Z" fill="#1D2675"/>
<rect x="43.7715" y="80.602" width="46.9279" height="11.7482" transform="rotate(90 43.7715 80.602)" fill="#454B89"/>
<rect x="40.7417" y="84.6061" width="21.8458" height="6.311" transform="rotate(90 40.7417 84.6061)" fill="white"/>
<rect x="40.7388" y="107.355" width="2.03893" height="6.311" transform="rotate(90 40.7388 107.355)" fill="#F98B7C"/>
<path fill-rule="evenodd" clip-rule="evenodd" d="M37.4631 116.77C35.9706 116.77 34.7607 117.98 34.7607 119.472C34.7607 120.965 35.9706 122.175 37.4631 122.175C38.9556 122.175 40.1655 120.965 40.1655 119.472C40.1655 117.98 38.9556 116.77 37.4631 116.77ZM37.4631 117.741C38.4194 117.741 39.1946 118.516 39.1946 119.472C39.1946 120.428 38.4194 121.204 37.4631 121.204C36.5069 121.204 35.7317 120.428 35.7317 119.472C35.7317 118.516 36.5069 117.741 37.4631 117.741Z" fill="white"/>
<path fill-rule="evenodd" clip-rule="evenodd" d="M39.9389 99.3254C40.207 99.3254 40.4244 99.5428 40.4244 99.8109C40.4244 100.069 40.2223 100.281 39.9675 100.296L39.9389 100.296H35.2623C34.9942 100.296 34.7769 100.079 34.7769 99.8109C34.7769 99.5524 34.979 99.341 35.2338 99.3263L35.2623 99.3254H39.9389Z" fill="#1D2675"/>
<path fill-rule="evenodd" clip-rule="evenodd" d="M39.9389 86.8976C40.207 86.8976 40.4244 87.115 40.4244 87.3831C40.4244 87.6416 40.2223 87.853 39.9675 87.8677L39.9389 87.8686H35.2623C34.9942 87.8686 34.7769 87.6512 34.7769 87.3831C34.7769 87.1246 34.979 86.9132 35.2338 86.8985L35.2623 86.8976H39.9389Z" fill="#1D2675"/>
<path fill-rule="evenodd" clip-rule="evenodd" d="M39.9389 101.72C40.207 101.72 40.4244 101.938 40.4244 102.206C40.4244 102.464 40.2223 102.676 39.9675 102.69L39.9389 102.691H35.2623C34.9942 102.691 34.7769 102.474 34.7769 102.206C34.7769 101.947 34.979 101.736 35.2338 101.721L35.2623 101.72H39.9389Z" fill="#1D2675"/>
<path fill-rule="evenodd" clip-rule="evenodd" d="M39.9389 104.132C40.207 104.132 40.4244 104.349 40.4244 104.617C40.4244 104.876 40.2223 105.087 39.9675 105.102L39.9389 105.102H35.2623C34.9942 105.102 34.7769 104.885 34.7769 104.617C34.7769 104.358 34.979 104.147 35.2338 104.132L35.2623 104.132H39.9389Z" fill="#1D2675"/>
<path fill-rule="evenodd" clip-rule="evenodd" d="M56.8169 65.5374C56.8169 65.5374 57.1082 62.7864 55.0854 60.3268C53.0627 57.8671 53.0465 56.3136 51.9137 55.1485C50.781 53.9672 48.9848 54.5174 50.603 58.4982C52.2212 62.479 52.917 64.1134 52.917 64.1134L56.8169 65.5374Z" fill="white"/>
<path fill-rule="evenodd" clip-rule="evenodd" d="M49.8469 54.585C49.2606 55.321 49.3589 56.7272 50.1531 58.6809L51.1248 61.0611C51.3669 61.651 51.5888 62.1894 51.791 62.6776L52.2589 63.8017L52.4702 64.3034C52.5228 64.427 52.6242 64.5232 52.7504 64.5693L56.6502 65.9933C56.9468 66.1016 57.2663 65.9024 57.2995 65.5884L57.3055 65.5171C57.3066 65.5017 57.3076 65.4846 57.3087 65.4658C57.3351 64.9975 57.3056 64.3991 57.1778 63.7168C56.9885 62.7062 56.6148 61.7091 56.0129 60.7755C55.8453 60.5154 55.6612 60.2628 55.4602 60.0183C54.8918 59.3271 54.4561 58.6755 54.0795 57.9867C53.9498 57.7496 53.8308 57.5156 53.6981 57.2404L53.2797 56.3584C52.9432 55.6663 52.664 55.2239 52.2617 54.81C51.5019 54.0177 50.4446 53.8347 49.8469 54.585ZM51.5632 55.4845C51.8554 55.7851 52.0724 56.1154 52.3339 56.6361L52.4064 56.7829C52.4783 56.9307 52.7368 57.4811 52.7713 57.5534C52.9319 57.8901 53.0721 58.1682 53.2276 58.4526C53.6327 59.1934 54.1022 59.8956 54.7103 60.6351C54.8874 60.8504 55.0494 61.0728 55.1969 61.3016C55.7266 62.1234 56.0563 63.0029 56.2235 63.8956L56.2397 63.985C56.2916 64.281 56.3223 64.5567 56.3367 64.8061L56.3387 64.8459L53.2816 63.7297L52.815 62.6124L52.1755 61.0638C51.8592 60.2943 51.506 59.4304 51.1147 58.4681L51.0525 58.3154C50.378 56.6559 50.3021 55.5718 50.6063 55.19C50.7593 54.998 51.1357 55.0572 51.5303 55.4509L51.5632 55.4845Z" fill="#1D2675"/>
<path fill-rule="evenodd" clip-rule="evenodd" d="M47.5605 59.9221C47.7385 59.9221 58.7585 59.3557 60.0693 70.2786L47.5605 59.9221Z" fill="white"/>
<path fill-rule="evenodd" clip-rule="evenodd" d="M49.9793 59.5872C51.3873 59.7873 52.7782 60.1696 54.083 60.7797C57.6313 62.4388 59.984 65.493 60.5514 70.2209C60.5833 70.4871 60.3934 70.7288 60.1272 70.7608C59.861 70.7927 59.6193 70.6028 59.5874 70.3366C59.0614 65.9532 56.9256 63.1807 53.6718 61.6593C52.4609 61.0931 51.1613 60.7359 49.8427 60.5485C49.011 60.4303 48.3096 60.3948 47.743 60.4036L47.5607 60.4077C47.2925 60.4077 47.0752 60.1904 47.0752 59.9223C47.0752 59.6637 47.2773 59.4524 47.5321 59.4376L47.6442 59.4344C48.2733 59.4199 49.0522 59.4555 49.9793 59.5872Z" fill="#1D2675"/>
<path fill-rule="evenodd" clip-rule="evenodd" d="M55.0045 81.7193C55.0045 81.7193 53.6452 73.6607 51.849 70.8612C50.0528 68.0617 46.0558 68.272 46.0558 68.272C46.0558 68.272 35.8935 59.2586 34.4209 57.6404C32.9483 56.0061 33.5147 54.4526 36.1362 56.265C38.7577 58.0774 46.6707 63.8058 46.6707 63.8058C46.6707 63.8058 59.8429 59.3396 61.9951 71.9939L64.4224 79.5024L55.0045 81.7193Z" fill="white"/>
<path fill-rule="evenodd" clip-rule="evenodd" d="M33.3603 55.3618C32.8734 55.9868 33.2105 57.0223 34.0602 57.9654L34.1186 58.0286C34.7392 58.6923 36.476 60.3107 39.0421 62.6371L39.8244 63.3451L40.6103 64.0541C41.5827 64.9301 42.5947 65.8372 43.61 66.7439L45.7337 68.6352C45.8204 68.7121 45.9315 68.7552 46.0466 68.7574L46.1187 68.7555C46.3985 68.7477 46.7819 68.7624 47.2303 68.8184C47.9075 68.9029 48.5753 69.0651 49.1947 69.3218C50.1499 69.7175 50.9169 70.3074 51.4404 71.1233C52.045 72.0656 52.6586 73.7495 53.2468 75.9437C53.59 77.2237 53.9036 78.5973 54.1809 79.9712L54.2651 80.3945C54.3011 80.5783 54.3353 80.756 54.3675 80.9268L54.4613 81.4342L54.5258 81.8C54.5724 82.0765 54.8428 82.2561 55.1157 82.1918L64.5336 79.9749L64.5618 79.9674C64.8206 79.8901 64.9686 79.6137 64.8843 79.353L62.4675 71.8771L62.4737 71.9125C61.5711 66.6056 58.724 63.7304 54.5824 62.8434C52.4606 62.3889 50.2077 62.4963 48.0485 62.9482C47.6789 63.0256 47.3396 63.108 47.0355 63.1912L46.8473 63.244L46.7584 63.27L45.207 62.1491C44.5001 61.6388 43.7923 61.1286 43.0971 60.6282L40.6505 58.871C38.7349 57.4985 37.2703 56.4588 36.4123 55.8656L36.2917 55.7836C34.9536 54.8887 33.8857 54.6873 33.3603 55.3618ZM34.4554 55.9605C34.792 56.0312 35.2478 56.2487 35.7941 56.6191L36.1494 56.8651C36.802 57.3201 37.7179 57.9688 38.85 58.7769L40.7797 60.1583L41.6447 60.7796C42.1315 61.1294 42.6277 61.4865 43.1283 61.8472L46.386 64.199C46.5134 64.2913 46.6776 64.316 46.8266 64.2655L46.9174 64.2364L47.0198 64.2052C47.0561 64.1944 47.0947 64.1831 47.1354 64.1714L47.1981 64.1537C47.5068 64.0669 47.8589 63.9799 48.2474 63.8986C50.2851 63.4721 52.4091 63.3709 54.3791 63.7928C58.1381 64.5979 60.6816 67.1665 61.5165 72.0753L61.5236 72.1096C61.5264 72.1209 61.5296 72.1321 61.5332 72.1432L63.7984 79.1504L55.3927 81.129L55.3217 80.7471C55.2645 80.444 55.2014 80.1201 55.1326 79.7791C54.8516 78.3867 54.5336 76.9941 54.1846 75.6922L54.1176 75.445C53.5253 73.2799 52.907 71.6112 52.2575 70.599C51.6187 69.6033 50.6937 68.8919 49.5663 68.4248C48.8596 68.132 48.1088 67.9495 47.3505 67.8549L47.2574 67.8437C46.9192 67.8047 46.6146 67.7867 46.3556 67.7833L46.2357 67.7827L44.5334 66.2668L43.704 65.5258C42.9681 64.8677 42.2375 64.2125 41.5261 63.5722L40.0435 62.2342C37.2324 59.6896 35.3356 57.9243 34.7799 57.3137C34.2102 56.6813 34.0195 56.0955 34.1262 55.9585C34.128 55.9562 34.1346 55.9522 34.1624 55.9458C34.2264 55.931 34.325 55.9332 34.4554 55.9605Z" fill="#1D2675"/>
<path fill-rule="evenodd" clip-rule="evenodd" d="M45.8938 67.8837C45.8938 67.8837 40.6832 56.2812 39.8903 54.0966C39.0974 51.9121 40.1654 50.7631 41.9454 53.6597C43.7254 56.5563 47.7548 63.2718 47.7548 63.2718" fill="white"/>
<path fill-rule="evenodd" clip-rule="evenodd" d="M39.7335 51.5399C40.4875 51.157 41.3923 51.8539 42.3196 53.3413L42.6007 53.799C42.9122 54.3081 43.2842 54.9191 43.7086 55.619L44.8849 57.5627C45.4397 58.4814 46.0239 59.4505 46.6141 60.4312L48.1714 63.0221C48.3093 63.252 48.2348 63.5502 48.0049 63.6881C47.7835 63.821 47.4988 63.7568 47.3548 63.5465L47.3363 63.5173L45.9594 61.2264C45.4866 60.4405 45.0162 59.6597 44.5602 58.9037L42.7085 55.8423C42.2432 55.0759 41.8472 54.4266 41.5321 53.9139C41.1359 53.269 40.7687 52.8212 40.4623 52.5806C40.3572 52.498 40.2684 52.4473 40.2019 52.4249L40.1805 52.4185L40.1735 52.4166L40.1661 52.4331C40.1379 52.4961 40.1175 52.5942 40.1119 52.721C40.0986 53.0193 40.1679 53.4152 40.3207 53.857L40.347 53.931C40.6146 54.6682 41.415 56.5541 42.602 59.267L43.2864 60.8255L43.8613 62.1279C44.2021 62.8983 44.5512 63.6849 44.903 64.4751L46.337 67.6849C46.4469 67.9294 46.3376 68.2167 46.0931 68.3266C45.8485 68.4364 45.5612 68.3272 45.4513 68.0826L44.5593 66.0889L43.8379 64.4696C43.455 63.6086 43.0763 62.7543 42.7093 61.9232L41.8417 59.9512C40.573 57.056 39.7214 55.0534 39.4343 54.2623C38.9769 53.002 39.0259 51.8992 39.7335 51.5399Z" fill="#1D2675"/>
<path fill-rule="evenodd" clip-rule="evenodd" d="M45.3924 66.9452C45.3924 66.9452 44.9717 56.9933 44.9717 55.0676C44.9717 51.8959 46.8812 50.9897 47.3666 55.2618C47.6903 58.126 48.0625 63.3852 48.0625 63.3852" fill="white"/>
<path fill-rule="evenodd" clip-rule="evenodd" d="M45.908 51.8943C46.9123 51.7282 47.5826 52.9687 47.8404 55.1323L47.8491 55.2073C47.8775 55.4587 47.9069 55.7333 47.9371 56.0298L47.9631 56.2892C48.0248 56.9096 48.0892 57.6106 48.1556 58.3775C48.2412 59.3667 48.3263 60.4199 48.4076 61.4788L48.4989 62.6908L48.5468 63.3509C48.5657 63.6183 48.3643 63.8505 48.0968 63.8694C47.8389 63.8877 47.6139 63.701 47.5811 63.4478L47.5775 63.4083L47.484 62.137L47.4151 61.2366C47.3496 60.3932 47.282 59.5573 47.2138 58.7588L47.1461 57.9799C47.1042 57.508 47.0632 57.0647 47.0234 56.654L46.9712 56.1285C46.9413 55.8353 46.9124 55.5642 46.8844 55.3166C46.7755 54.3581 46.5893 53.6451 46.3588 53.2106C46.2697 53.0425 46.1819 52.9322 46.1079 52.8777L46.0859 52.8623C46.0719 52.853 46.0676 52.852 46.0664 52.8522C46.05 52.855 46.0133 52.8774 45.9613 52.9348C45.8816 53.0228 45.8005 53.1602 45.7282 53.3402C45.557 53.7659 45.4573 54.3665 45.4573 55.0676L45.4583 55.2592C45.4657 55.9821 45.5101 57.4448 45.5831 59.4634L45.6418 61.0449L45.6673 61.7098C45.6903 62.3065 45.7141 62.9133 45.7383 63.5213L45.8776 66.9247C45.8889 67.1926 45.6809 67.4189 45.413 67.4303C45.1547 67.4412 44.935 67.2482 44.9095 66.9942L44.9028 66.8534L44.8417 65.38C44.8088 64.5772 44.776 63.761 44.7441 62.9522L44.6716 61.0817L44.5821 58.6324C44.5206 56.865 44.4863 55.6278 44.4863 55.0676C44.4863 53.352 45.0127 52.0424 45.908 51.8943Z" fill="#1D2675"/>
<path fill-rule="evenodd" clip-rule="evenodd" d="M195.287 65.5373C195.287 65.5373 194.995 62.7863 197.018 60.3267C199.041 57.867 199.057 56.3135 200.19 55.1484C201.322 53.9833 203.119 54.5173 201.5 58.4981C199.882 62.4789 199.186 64.1133 199.186 64.1133L195.287 65.5373Z" fill="white"/>
<path fill-rule="evenodd" clip-rule="evenodd" d="M199.842 54.81C199.455 55.2074 199.183 55.631 198.864 56.2765L198.685 56.65C198.587 56.8574 198.476 57.0931 198.456 57.1353C198.302 57.4571 198.17 57.72 198.024 57.9867C197.647 58.6755 197.211 59.3272 196.643 60.0184C196.442 60.2628 196.258 60.5154 196.09 60.7755C195.488 61.7091 195.115 62.7062 194.925 63.7168C194.804 64.3666 194.771 64.9404 194.791 65.398L194.795 65.4658C194.798 65.5222 194.801 65.5635 194.804 65.5884C194.837 65.9024 195.156 66.1016 195.453 65.9933L199.353 64.5693C199.479 64.5233 199.58 64.427 199.633 64.3035L199.871 63.7371L200.356 62.5723C200.795 61.5106 201.325 60.2186 201.95 58.6809C202.744 56.7268 202.843 55.3242 202.256 54.5903C201.659 53.8448 200.605 54.0246 199.842 54.81ZM201.498 55.1968C201.796 55.57 201.727 56.622 201.082 58.2367L200.458 59.7697C200.196 60.4108 199.954 60.9994 199.733 61.5372L199.253 62.6962L198.821 63.7296L195.764 64.8459L195.767 64.806C195.782 64.5317 195.818 64.2256 195.88 63.8956C196.047 63.0028 196.377 62.1233 196.906 61.3016C197.054 61.0727 197.216 60.8504 197.393 60.6351C198.001 59.8956 198.47 59.1934 198.876 58.4525C199.014 58.1997 199.14 57.9519 199.279 57.6635L199.688 56.8017L199.769 56.6361C200.031 56.1154 200.248 55.7853 200.538 55.4868C200.945 55.0678 201.34 55.0003 201.498 55.1968Z" fill="#1D2675"/>
<path fill-rule="evenodd" clip-rule="evenodd" d="M204.543 59.9221C204.365 59.9221 193.345 59.3557 192.034 70.2786L204.543 59.9221Z" fill="white"/>
<path fill-rule="evenodd" clip-rule="evenodd" d="M202.124 59.587C203.011 59.461 203.762 59.423 204.376 59.4326L204.543 59.4366C204.811 59.4366 205.028 59.654 205.028 59.9221C205.028 60.1806 204.826 60.392 204.571 60.4067L204.543 60.4075C204.531 60.4075 204.46 60.4055 204.437 60.4049C203.857 60.3915 203.13 60.4247 202.261 60.5483C200.942 60.7357 199.642 61.0929 198.431 61.6591C195.178 63.1805 193.042 65.953 192.516 70.3364C192.484 70.6026 192.242 70.7925 191.976 70.7606C191.71 70.7287 191.52 70.487 191.552 70.2208C192.119 65.4929 194.472 62.4387 198.02 60.7795C199.325 60.1694 200.716 59.7871 202.124 59.587Z" fill="#1D2675"/>
<path fill-rule="evenodd" clip-rule="evenodd" d="M197.099 81.7193C197.099 81.7193 198.458 73.6607 200.255 70.8612C202.051 68.0617 206.048 68.272 206.048 68.272C206.048 68.272 216.21 59.2586 217.683 57.6404C219.155 56.0061 218.589 54.4526 215.967 56.265C213.346 58.0774 205.433 63.8058 205.433 63.8058C205.433 63.8058 192.261 59.3396 190.108 71.9939L187.681 79.5024L197.099 81.7193Z" fill="white"/>
<path fill-rule="evenodd" clip-rule="evenodd" d="M215.691 55.8657L215.07 56.2987C214.429 56.748 213.596 57.339 212.601 58.0495L210.758 59.3696L209.599 60.2021C209.01 60.6254 208.409 61.0581 207.805 61.4939L205.345 63.27L205.213 63.2317L205.168 63.219C204.839 63.1265 204.466 63.0343 204.055 62.9483C201.896 62.4964 199.643 62.389 197.521 62.8434L197.397 62.8706C193.364 63.7789 190.58 66.6009 189.657 71.7541L189.636 71.8771L187.219 79.3531C187.132 79.623 187.294 79.91 187.57 79.975L196.988 82.1919C197.261 82.2561 197.531 82.0765 197.578 81.8001L197.642 81.4342L197.712 81.0537C197.775 80.7189 197.845 80.3561 197.923 79.9712C198.2 78.5973 198.513 77.2237 198.857 75.9437L198.921 75.7064C199.489 73.6281 200.08 72.0314 200.663 71.1234C201.187 70.3074 201.953 69.7176 202.909 69.3218C203.528 69.0652 204.196 68.9029 204.873 68.8184C205.293 68.766 205.657 68.7498 205.931 68.7544L206.022 68.7569C206.138 68.763 206.252 68.7274 206.343 68.6573L206.38 68.6258L208.216 66.9912L209.047 66.2495C210.06 65.3437 211.063 64.4432 212.019 63.5797L213.398 62.3312C215.863 60.0933 217.503 58.5588 218.042 57.9672C218.893 57.0224 219.23 55.9869 218.743 55.3619C218.202 54.6673 217.086 54.9016 215.691 55.8657ZM217.941 55.9458L217.962 55.9515C217.973 55.9547 217.976 55.957 217.977 55.9585C218.084 56.0956 217.893 56.6814 217.322 57.3155L217.246 57.3967C216.637 58.0423 214.912 59.6483 212.403 61.9234L211.628 62.6247L210.843 63.3329C209.96 64.1283 209.044 64.9495 208.123 65.7728L205.867 67.7827L205.817 67.7828C205.521 67.7838 205.16 67.8042 204.753 67.855C203.995 67.9496 203.244 68.132 202.537 68.4248C201.41 68.8919 200.485 69.6033 199.846 70.5991C199.172 71.6495 198.531 73.4068 197.919 75.6923C197.57 76.9941 197.252 78.3868 196.971 79.7792L196.885 80.2079C196.831 80.487 196.78 80.7524 196.734 81.0016L196.711 81.129L188.305 79.1505L190.57 72.1433C190.577 72.1211 190.583 72.0984 190.587 72.0753C191.422 67.1665 193.965 64.5979 197.724 63.7928C199.694 63.3709 201.818 63.4722 203.856 63.8986C204.206 63.9718 204.526 64.0496 204.811 64.1277L204.905 64.1537C204.97 64.1718 205.029 64.189 205.084 64.2053L205.244 64.2547C205.259 64.2596 205.27 64.2632 205.277 64.2656C205.415 64.3125 205.567 64.2945 205.69 64.2178L205.888 64.0759L208.07 62.4995C208.877 61.9176 209.68 61.3394 210.459 60.7796L213.253 58.7769C214.564 57.8413 215.585 57.1193 216.243 56.6643C216.819 56.2664 217.298 56.0341 217.648 55.9606C217.778 55.9332 217.877 55.931 217.941 55.9458Z" fill="#1D2675"/>
<path fill-rule="evenodd" clip-rule="evenodd" d="M206.21 67.8838C206.21 67.8838 211.42 56.2813 212.213 54.0967C212.99 51.9121 211.938 50.7632 210.158 53.6598C208.378 56.5564 204.349 63.2719 204.349 63.2719" fill="white"/>
<path fill-rule="evenodd" clip-rule="evenodd" d="M209.744 53.4055C210.686 51.8726 211.602 51.1509 212.365 51.5403C213.056 51.8933 213.117 52.9625 212.69 54.2012L212.669 54.2623C212.365 55.0999 211.428 57.2958 210.034 60.4713L209.706 61.2169L209.236 62.2808C208.76 63.3574 208.267 64.4684 207.771 65.5792L206.652 68.0826C206.542 68.3272 206.255 68.4364 206.01 68.3266C205.766 68.2167 205.657 67.9294 205.766 67.6848L206.658 65.6932L207.542 63.707C207.869 62.9715 208.192 62.2428 208.506 61.5311L209.496 59.2805C210.686 56.5603 211.488 54.6699 211.755 53.934C211.923 53.4616 211.999 53.0373 211.985 52.722C211.979 52.6088 211.963 52.5183 211.939 52.4551L211.923 52.4171L211.919 52.4183C211.858 52.4344 211.775 52.4783 211.674 52.5537L211.64 52.58C211.346 52.8117 210.995 53.2357 210.615 53.843L210.571 53.9139C210.294 54.3651 209.954 54.9221 209.559 55.5715L208.05 58.0647L206.674 60.3454L204.765 63.5216C204.627 63.7515 204.328 63.8261 204.099 63.6881C203.877 63.5553 203.8 63.2738 203.918 63.0479L203.937 63.0139L204.957 61.316L206.193 59.2624L207.974 56.3135C208.701 55.1124 209.302 54.1254 209.744 53.4055Z" fill="#1D2675"/>
<path fill-rule="evenodd" clip-rule="evenodd" d="M206.711 66.9452C206.711 66.9452 207.132 56.9932 207.132 55.0675C207.132 51.8959 205.222 50.9897 204.737 55.2617C204.413 58.1259 204.041 63.3851 204.041 63.3851" fill="white"/>
<path fill-rule="evenodd" clip-rule="evenodd" d="M204.255 55.2068L204.272 55.0577C204.537 52.9402 205.203 51.73 206.196 51.8942C207.078 52.0402 207.602 53.3152 207.617 54.9952L207.617 55.1598C207.613 55.8983 207.562 57.5567 207.476 59.899L207.415 61.523L207.36 62.9521C207.336 63.5587 207.311 64.1694 207.287 64.7756L207.196 66.9656C207.185 67.2335 206.959 67.4415 206.691 67.4301C206.432 67.4192 206.23 67.2084 206.226 66.9531L206.231 66.8125L206.292 65.3402L206.365 63.5211L206.445 61.4858L206.546 58.7418C206.608 56.9718 206.644 55.7154 206.646 55.1265L206.646 55.0675C206.646 54.3664 206.547 53.7658 206.376 53.3401C206.303 53.16 206.222 53.0226 206.142 52.9347C206.09 52.8772 206.054 52.8548 206.037 52.8521L206.034 52.8529C206.029 52.8548 206.019 52.8607 205.996 52.8776C205.922 52.932 205.834 53.0424 205.745 53.2105C205.522 53.6309 205.34 54.3123 205.23 55.2242L205.219 55.3162C205.191 55.564 205.162 55.8352 205.133 56.1284L205.08 56.6539C205.027 57.2015 204.972 57.807 204.915 58.4611C204.839 59.3483 204.762 60.2877 204.689 61.2365L204.591 62.5195L204.525 63.4193C204.506 63.6868 204.274 63.8882 204.007 63.8693C203.739 63.8504 203.538 63.6182 203.557 63.3508L203.642 62.1942L203.672 61.7964C203.752 60.7369 203.837 59.6774 203.922 58.676L204.005 57.7365C204.046 57.2685 204.087 56.8294 204.127 56.4232L204.167 56.0296C204.197 55.7332 204.226 55.4585 204.255 55.2068Z" fill="#1D2675"/>
<path fill-rule="evenodd" clip-rule="evenodd" d="M200.125 77.3988C200.335 74.923 200.012 73.9359 200.012 73.9359C194.316 74.5346 189.752 69.0974 189.752 69.0974C189.752 69.0974 189.202 69.7123 187.681 71.6865C186.144 73.6608 183.247 71.4276 181.516 74.2595C180.124 76.5573 175.205 88.5644 173.36 93.0792C167.777 76.4764 160.592 68.0456 148.876 65.9257C147.355 56.6696 140.753 44.9214 114.506 46.9766C98.1942 49.9217 93.2102 58.2716 94.3429 67.0908H94.262C94.262 67.0908 83.6951 66.9452 77.7887 84.5189C76.0572 80.441 74.2933 76.4441 73.549 75.1981C71.8337 72.3662 65.9596 73.6284 64.4223 71.6704C62.885 69.6962 62.351 69.0812 62.351 69.0812C62.351 69.0812 57.7877 74.5184 52.0916 73.9197C52.0916 73.9197 51.7679 74.9068 51.9783 77.3826C52.1887 79.8585 49.1788 80.1498 49.8584 83.3862C50.5219 86.6226 61.1373 115.669 61.1373 115.669C62.1406 118.372 63.4514 126.819 68.9371 127.11C68.9856 127.207 69.0504 127.256 69.1313 127.256C77.821 127.223 184.056 127.32 184.056 127.32C184.056 127.32 184.072 127.207 184.072 126.981C188.798 125.864 190.027 118.21 190.982 115.653C190.982 115.653 201.581 86.6226 202.261 83.37C202.924 80.1498 199.915 79.8747 200.125 77.3988Z" fill="#F98B7C"/>
<path fill-rule="evenodd" clip-rule="evenodd" d="M200.174 76.9942C200.578 74.4051 200.077 73.4342 200.077 73.4342C194.882 74.5669 190.076 68.6443 190.076 68.6443C190.076 68.6443 189.429 69.2107 187.875 71.3952C187.244 72.2691 186.613 72.3662 185.966 72.5442C188.118 79.5672 198.248 80.5381 201.776 80.6352C201.501 79.1141 199.866 78.9684 200.174 76.9942Z" fill="#1D2675"/>
<path fill-rule="evenodd" clip-rule="evenodd" d="M51.9134 77.0104C51.5089 74.4213 52.0267 73.4342 52.0267 73.4342C57.2211 74.5669 62.0272 68.6443 62.0272 68.6443C62.0272 68.6443 62.8039 68.7252 64.3736 70.9098C65.0047 71.7836 66.0727 72.528 66.72 72.706C64.5678 79.729 53.7582 80.6837 50.2305 80.7646C50.4894 79.2597 52.2209 78.9846 51.9134 77.0104Z" fill="#1D2675"/>
<path fill-rule="evenodd" clip-rule="evenodd" d="M94.2946 66.5568C91.1391 67.2041 87.8541 68.8709 84.9575 72.0749C87.6599 75.9748 97.0779 89.2602 114.441 92.0759C114.441 91.995 114.409 91.8655 114.36 91.7199C104.732 87.7715 95.314 76.7839 94.2946 66.5568Z" fill="#1D2675"/>
<path fill-rule="evenodd" clip-rule="evenodd" d="M148.876 65.8611C149.475 69.4535 149.313 72.6899 149.232 74.5994C148.957 80.8942 146.141 85.2957 144.361 88.435L144.232 91.6553C151.579 89.9238 157.339 76.3309 158.327 69.6477C155.721 68.2075 155.252 67.1556 148.876 65.8611Z" fill="#1D2675"/>
<path fill-rule="evenodd" clip-rule="evenodd" d="M112.887 87.616C113.186 87.4426 113.567 87.5358 113.753 87.8223L113.795 87.8925L113.926 88.1221C113.982 88.2213 114.043 88.3312 114.11 88.4514L114.347 88.8791C114.53 89.2118 114.724 89.5711 114.928 89.9545L114.996 90.0831C115.912 91.8101 116.828 93.6538 117.683 95.5395C118.507 97.3564 119.231 99.1192 119.829 100.795C120.77 103.432 121.369 105.772 121.558 107.743C121.592 108.099 121.332 108.415 120.976 108.449C120.62 108.483 120.304 108.223 120.27 107.867C120.092 106.018 119.518 103.775 118.61 101.23C118.025 99.5906 117.314 97.8603 116.504 96.0742C115.713 94.3309 114.869 92.622 114.022 91.0106L113.853 90.6896C113.536 90.0932 113.243 89.554 112.98 89.0815L112.799 88.7594L112.651 88.5005C112.472 88.1912 112.578 87.7952 112.887 87.616Z" fill="#1D2675"/>
<path fill-rule="evenodd" clip-rule="evenodd" d="M143.449 86.8075C143.783 86.8993 143.984 87.2364 143.91 87.5708L143.793 88.0138L143.693 88.4012C143.642 88.6048 143.587 88.823 143.531 89.0549L143.502 89.172C143.201 90.4119 142.9 91.7675 142.618 93.1938C142.133 95.6557 141.76 98.064 141.543 100.319C141.304 102.809 141.266 105.012 141.461 106.846C141.499 107.202 141.242 107.521 140.886 107.558C140.531 107.596 140.212 107.339 140.174 106.983C139.968 105.052 140.007 102.765 140.254 100.195C140.476 97.8935 140.855 95.4443 141.348 92.9434C141.616 91.5826 141.903 90.2857 142.19 89.0895L142.244 88.8664C142.322 88.546 142.396 88.2499 142.465 87.9801L142.555 87.6288L142.653 87.2601C142.748 86.9154 143.104 86.7128 143.449 86.8075Z" fill="#1D2675"/>
<path fill-rule="evenodd" clip-rule="evenodd" d="M77.2345 84.489C77.4831 84.418 77.7419 84.5543 77.8261 84.7952L77.8347 84.8224C77.8484 84.8705 79.0973 87.5463 80.8658 91.3159L82.6892 95.1984L85.6069 101.4C85.7211 101.643 85.6171 101.932 85.3745 102.046C85.1319 102.161 84.8427 102.057 84.7285 101.814L81.8105 95.6114L78.822 89.2444C77.5533 86.5355 76.9295 85.1885 76.9011 85.0892C76.8275 84.8314 76.9767 84.5627 77.2345 84.489Z" fill="#1D2675"/>
<path fill-rule="evenodd" clip-rule="evenodd" d="M173.343 93.2098C173.477 92.9772 173.773 92.8969 174.006 93.0303C174.23 93.1588 174.313 93.4386 174.199 93.6668L174.185 93.6929L168.894 102.917C168.761 103.149 168.464 103.23 168.231 103.096C168.007 102.968 167.925 102.688 168.038 102.46L168.052 102.434L173.343 93.2098Z" fill="#1D2675"/>
<path fill-rule="evenodd" clip-rule="evenodd" d="M100.257 114.036C100.525 114.049 100.731 114.277 100.718 114.544L100.709 114.697L100.693 114.923C100.688 114.984 100.683 115.048 100.677 115.115C100.638 115.563 100.584 116.061 100.511 116.597C100.304 118.129 99.9897 119.663 99.547 121.099C98.9566 123.013 98.1805 124.608 97.1841 125.778C95.9695 127.204 94.4633 127.95 92.6709 127.87C92.403 127.858 92.1956 127.631 92.2075 127.364C92.2195 127.096 92.4463 126.888 92.7141 126.9C95.4747 127.023 97.4018 124.76 98.6192 120.812C99.0446 119.433 99.3481 117.95 99.5492 116.466C99.6132 115.994 99.6625 115.552 99.6989 115.151L99.7095 115.032C99.716 114.956 99.7217 114.885 99.7268 114.819L99.7479 114.508C99.7481 114.504 99.7483 114.5 99.7485 114.497C99.7611 114.238 99.9734 114.037 100.229 114.035L100.257 114.036Z" fill="#1D2675"/>
<path fill-rule="evenodd" clip-rule="evenodd" d="M139.377 127.353C137.937 116.236 136.416 99.7785 138.762 92.8202C142.468 81.865 141.028 68.0941 138.52 66.1037C136.012 64.1133 108.389 64.4855 108.389 64.4855L103.421 66.2008C103.421 66.2008 122.338 83.7745 127.937 115.831C128.811 120.864 129.409 124.812 129.798 127.903" fill="white"/>
<path fill-rule="evenodd" clip-rule="evenodd" d="M112.694 55.1808L112.289 62.1876L108.163 65.0357C108.163 65.0357 118.972 72.5279 128.633 83.6936C128.633 83.6936 134.572 79.5024 135.947 66.2169L132.84 65.7315L117.953 56.9123L112.694 55.1808Z" fill="white"/>
<path fill-rule="evenodd" clip-rule="evenodd" d="M112.209 55.1528L111.818 61.9227L107.887 64.6361C107.616 64.8228 107.608 65.2158 107.861 65.4159L108.184 65.6452L108.428 65.8208C108.713 66.0269 109.035 66.263 109.39 66.5284L109.681 66.7466C110.807 67.5937 112.048 68.5644 113.376 69.6502C117.5 73.0229 121.625 76.8067 125.473 80.9124C126.432 81.9359 127.364 82.9692 128.266 84.0112C128.429 84.1999 128.709 84.2341 128.913 84.0902L128.95 84.0632C129.025 84.0076 129.136 83.9186 129.279 83.7941C129.552 83.5554 129.855 83.2601 130.179 82.9047C131.096 81.8989 132.01 80.6112 132.86 79.0144C134.629 75.6908 135.891 71.474 136.43 66.2669L136.432 66.2385C136.443 65.993 136.268 65.7757 136.022 65.7373L133.007 65.2661L118.2 56.4946C118.17 56.4767 118.138 56.4621 118.105 56.4511L112.845 54.7197C112.543 54.6199 112.227 54.8344 112.209 55.1528ZM113.142 55.8394L117.75 57.3567L132.593 66.1492L132.625 66.1668C132.669 66.1886 132.717 66.2036 132.765 66.2112L135.415 66.6251L135.401 66.7493C134.843 71.5649 133.647 75.4704 132.003 78.5582C131.191 80.0826 130.324 81.3039 129.461 82.2505L129.393 82.3251C129.168 82.5681 128.956 82.7773 128.762 82.9544L128.689 83.019L129 83.376C128.09 82.324 127.15 81.2813 126.182 80.2485C122.302 76.1091 118.146 72.2968 113.99 68.8987L113.643 68.6158C112.32 67.5416 111.087 66.5836 109.971 65.7504L109.661 65.5202C109.488 65.3918 109.323 65.2711 109.168 65.1583L109.008 65.042L112.565 62.5872C112.688 62.5022 112.765 62.3651 112.774 62.2156L113.142 55.8394Z" fill="#1D2675"/>
<path fill-rule="evenodd" clip-rule="evenodd" d="M108.017 42.3808C108.017 42.3808 101.641 43.2546 103.454 48.9345C105.266 54.6144 111.949 50.4233 111.949 50.4233L110.056 42.2675L108.017 42.3808Z" fill="white"/>
<path fill-rule="evenodd" clip-rule="evenodd" d="M110.029 41.7828L107.99 41.8961C107.977 41.8968 107.964 41.898 107.951 41.8998L107.885 41.9095C107.71 41.9373 107.448 41.9913 107.126 42.0793C106.519 42.2448 105.912 42.4763 105.341 42.7867C103.076 44.019 102.039 46.0985 102.991 49.0821C103.744 51.4405 105.359 52.4731 107.495 52.3937C108.515 52.3559 109.589 52.0687 110.663 51.6151C111.019 51.4646 111.353 51.3048 111.659 51.1436L111.773 51.0831C111.976 50.9732 112.124 50.8865 112.207 50.8345C112.383 50.7245 112.469 50.5152 112.422 50.3135L110.529 42.1577C110.475 41.9279 110.265 41.7697 110.029 41.7828ZM109.675 42.7748L111.395 50.1831L111.312 50.2287C111.001 50.3962 110.656 50.5641 110.285 50.7206C109.311 51.1323 108.344 51.3906 107.459 51.4235C105.742 51.4872 104.531 50.7127 103.916 48.7869C103.117 46.2814 103.924 44.6632 105.805 43.6395C106.304 43.3682 106.842 43.1629 107.381 43.0159C107.543 42.9718 107.694 42.9359 107.832 42.9074L107.929 42.8881L108.039 42.8684L108.065 42.8643L109.675 42.7748Z" fill="#1D2675"/>
<path fill-rule="evenodd" clip-rule="evenodd" d="M123.196 19.6934C124.862 19.3536 136.319 17.2499 138.698 26.8944C141.077 36.5389 140.947 47.4942 140.446 52.5592C139.944 57.6242 117.581 57.9316 116.286 57.6403C114.991 57.3491 113.325 56.0383 113.325 56.0383L108.583 41.3612C108.583 41.3612 105.266 23.3506 123.196 19.6934Z" fill="white"/>
<path fill-rule="evenodd" clip-rule="evenodd" d="M125.952 18.8349C124.848 18.9123 123.916 19.0513 123.098 19.218C118.805 20.0936 115.469 21.8231 113.005 24.2782C110.917 26.3596 109.514 28.9003 108.699 31.766C108.067 33.9859 107.82 36.2718 107.859 38.4987C107.872 39.2261 107.916 39.8992 107.979 40.5053L107.993 40.6341C108.015 40.8308 108.038 41.008 108.06 41.1645L108.085 41.3248C108.094 41.3807 108.101 41.4224 108.106 41.4493C108.109 41.4701 108.115 41.4906 108.121 41.5106L112.862 56.1878C112.892 56.2796 112.948 56.3605 113.024 56.4201L113.126 56.4976L113.225 56.5717C113.277 56.6102 113.333 56.6508 113.393 56.6931C113.676 56.8945 113.98 57.0958 114.294 57.2844C114.66 57.504 115.018 57.6922 115.36 57.8393C115.649 57.9633 115.922 58.0563 116.179 58.1142C117.23 58.3506 123.828 58.1573 128.719 57.5908L129.072 57.549C132.176 57.1748 134.812 56.6591 136.796 55.9911L136.97 55.9314C139.39 55.0896 140.789 54.0182 140.929 52.6072C141.222 49.6421 141.32 45.5738 141.137 41.4229C140.908 36.244 140.268 31.2331 139.169 26.7784C138.068 22.3142 135.042 19.8808 130.77 19.073C129.223 18.7806 127.595 18.7198 125.952 18.8349ZM130.589 20.0269C134.514 20.769 137.225 22.9487 138.227 27.0108C139.308 31.3975 139.941 36.3465 140.167 41.4656C140.348 45.5713 140.251 49.5934 139.962 52.5114C139.779 54.3583 135.539 55.8041 128.812 56.6022L128.607 56.6262C123.823 57.1803 117.302 57.3714 116.392 57.1668C116.199 57.1232 115.981 57.049 115.744 56.9472C115.445 56.8189 115.125 56.6503 114.793 56.4515C114.502 56.2771 114.219 56.0896 113.956 55.9022L113.85 55.826L113.739 55.744L109.055 41.2444L109.035 41.1163L109.03 41.0861C109.006 40.9261 108.982 40.7388 108.958 40.5265C108.89 39.9164 108.843 39.2294 108.83 38.4814C108.793 36.3441 109.029 34.1517 109.633 32.0317C110.405 29.3177 111.727 26.9229 113.691 24.9658C116.016 22.6482 119.181 21.0078 123.292 20.1692C124.072 20.0103 124.962 19.8775 126.02 19.8033C127.586 19.6936 129.132 19.7514 130.589 20.0269Z" fill="#1D2675"/>
<path fill-rule="evenodd" clip-rule="evenodd" d="M110.671 40.9891C111.868 41.9438 115.428 47.8179 116.464 50.6336C116.464 50.6336 123.276 47.3648 133.406 46.0055C133.406 46.0055 138.957 45.4715 141.238 45.8761C141.238 45.8761 141.934 56.2002 138.051 62.0419C134.167 67.8836 124.506 67.5276 119.7 64.8576C114.878 62.1876 113.972 60.7474 112.548 57.4462C111.124 54.1451 106.949 41.7173 106.949 41.7173L110.671 40.9891Z" fill="#A8ADD3"/>
<path fill-rule="evenodd" clip-rule="evenodd" d="M108.017 43.5297C108.017 43.5297 104.489 39.1444 102.774 34.3706C101.172 29.872 102.725 24.7909 106.706 22.2341C110.023 20.0981 112.791 21.1499 112.791 21.1499C112.791 21.1499 108.324 15.114 113.292 8.75447C115.04 6.50516 117.645 5.08114 120.445 4.83841C127.306 4.23967 130.089 9.88721 130.089 9.88721C130.089 9.88721 135.882 -4.64427 151.805 1.69909C153.407 2.34637 155.382 4.41768 156.369 5.85788C162.372 14.58 147.258 27.4771 138.844 29.338C129.604 31.377 123.956 30.4384 120.687 28.4642C123.082 29.5969 122.16 44.0961 108.017 43.5297Z" fill="#1D2675"/>
<path fill-rule="evenodd" clip-rule="evenodd" d="M132.129 38.9504C132.467 38.873 132.803 39.0749 132.897 39.4043L132.905 39.4366L134.928 48.2558C135.005 48.5933 134.803 48.9296 134.474 49.0231L134.442 49.0314L131.836 49.6301C131.488 49.7102 131.141 49.4927 131.061 49.1443C130.983 48.8067 131.185 48.4702 131.514 48.3767L131.546 48.3684L133.521 47.9146L131.643 39.726C131.566 39.3885 131.767 39.052 132.097 38.9587L132.129 38.9504Z" fill="#1D2675"/>
<path fill-rule="evenodd" clip-rule="evenodd" d="M135.733 43.1297C136.23 43.0741 136.562 42.3954 136.475 41.6138C136.388 40.8322 135.914 40.2437 135.416 40.2993C134.919 40.3549 134.586 41.0336 134.674 41.8152C134.761 42.5967 135.235 43.1853 135.733 43.1297Z" fill="#1D2675"/>
<path fill-rule="evenodd" clip-rule="evenodd" d="M127.107 43.6961C127.604 43.6405 127.936 42.9619 127.849 42.1803C127.762 41.3987 127.288 40.8101 126.79 40.8658C126.293 40.9214 125.96 41.6 126.048 42.3816C126.135 43.1632 126.609 43.7517 127.107 43.6961Z" fill="#1D2675"/>
<path fill-rule="evenodd" clip-rule="evenodd" d="M127.374 36.6525C127.732 36.6454 128.027 36.9294 128.034 37.2869C128.062 38.6899 127.184 39.632 125.803 40.1747C125.36 40.3489 124.892 40.4708 124.425 40.5511L124.315 40.5692C124.086 40.6056 123.903 40.6247 123.786 40.6319C123.429 40.6538 123.122 40.3823 123.1 40.0255C123.079 39.6795 123.333 39.3803 123.674 39.3426L123.762 39.3352C123.781 39.3334 123.805 39.331 123.832 39.328C123.944 39.3159 124.07 39.2986 124.205 39.2753C124.592 39.2089 124.977 39.1086 125.33 38.9698C126.241 38.6116 126.734 38.0956 126.74 37.3597L126.74 37.3124C126.733 36.955 127.017 36.6595 127.374 36.6525Z" fill="#1D2675"/>
<path fill-rule="evenodd" clip-rule="evenodd" d="M134.598 33.0137C135.153 32.8771 135.73 32.8326 136.291 32.9409C137.167 33.1101 137.866 33.6371 138.258 34.5532C138.398 34.8819 138.245 35.2623 137.917 35.4028C137.588 35.5433 137.208 35.3907 137.067 35.062C136.851 34.5567 136.514 34.3025 136.045 34.212C135.695 34.1444 135.296 34.1751 134.907 34.2708C134.839 34.2874 134.777 34.3049 134.721 34.3223L134.663 34.341L134.614 34.3581C134.282 34.4889 133.906 34.3253 133.775 33.9927C133.644 33.66 133.808 33.2842 134.141 33.1534C134.238 33.115 134.395 33.0636 134.598 33.0137Z" fill="#1D2675"/>
<path fill-rule="evenodd" clip-rule="evenodd" d="M131.369 52.4553C130.15 52.6993 128.848 52.766 127.555 52.7054C126.433 52.6605 125.468 53.4512 125.914 54.3727C126.577 55.7761 127.978 56.5683 130.21 56.3102C132.422 56.0508 133.442 55.0475 133.439 53.6657L133.439 53.6179C133.439 52.7769 132.39 52.2735 131.415 52.4467L131.369 52.4553ZM132.276 53.4824C132.357 53.5201 132.417 53.5638 132.45 53.6037L132.468 53.6272C132.485 54.514 131.863 55.1388 130.097 55.3458C128.309 55.5526 127.308 55.0038 126.811 53.9984L126.79 53.9537C126.777 53.9273 126.782 53.9106 126.855 53.8509C126.993 53.7377 127.238 53.6644 127.513 53.6754C128.875 53.7392 130.253 53.6687 131.56 53.4074C131.809 53.3576 132.077 53.3892 132.276 53.4824Z" fill="#1D2675"/>
<rect x="186.171" y="126.992" width="49.7442" height="11.7483" transform="rotate(179.728 186.171 126.992)" fill="#1D2675"/>
<rect x="185.402" y="124.004" width="21.846" height="6.31107" transform="rotate(179.728 185.402 124.004)" fill="white"/>
<rect x="162.641" y="124.108" width="2.03897" height="6.31107" transform="rotate(179.728 162.641 124.108)" fill="#F98B7C"/>
<path fill-rule="evenodd" clip-rule="evenodd" d="M147.501 118.501C146.008 118.501 144.798 119.711 144.798 121.204C144.798 122.696 146.008 123.906 147.501 123.906C148.993 123.906 150.203 122.696 150.203 121.204C150.203 119.711 148.993 118.501 147.501 118.501ZM147.501 119.472C148.457 119.472 149.232 120.247 149.232 121.203C149.232 122.16 148.457 122.935 147.501 122.935C146.544 122.935 145.769 122.16 145.769 121.203C145.769 120.247 146.544 119.472 147.501 119.472Z" fill="white"/>
<path fill-rule="evenodd" clip-rule="evenodd" d="M180.169 118.129C180.427 118.127 180.64 118.328 180.656 118.583L180.657 118.611L180.69 123.304C180.692 123.572 180.476 123.791 180.208 123.793C179.949 123.794 179.736 123.594 179.72 123.339L179.719 123.311L179.687 118.618C179.685 118.35 179.901 118.131 180.169 118.129Z" fill="#F98B7C"/>
<path fill-rule="evenodd" clip-rule="evenodd" d="M177.776 118.145C178.034 118.144 178.246 118.346 178.262 118.6L178.263 118.629L178.279 123.306C178.28 123.574 178.063 123.792 177.795 123.793C177.537 123.794 177.325 123.592 177.309 123.337L177.308 123.309L177.292 118.632C177.291 118.364 177.508 118.146 177.776 118.145Z" fill="#F98B7C"/>
<path fill-rule="evenodd" clip-rule="evenodd" d="M175.365 118.161C175.623 118.16 175.835 118.362 175.851 118.617L175.852 118.645L175.868 123.322C175.869 123.59 175.652 123.808 175.384 123.809C175.126 123.81 174.914 123.608 174.898 123.354L174.897 123.325L174.881 118.648C174.88 118.38 175.097 118.162 175.365 118.161Z" fill="#F98B7C"/>
<rect x="191.929" y="115.941" width="46.9279" height="12.3469" transform="rotate(-180 191.929 115.941)" fill="#1D2675"/>
<rect x="187.929" y="112.307" width="21.8458" height="6.311" transform="rotate(-180 187.929 112.307)" fill="white"/>
<rect x="165.167" y="112.307" width="2.03894" height="6.311" transform="rotate(-180 165.167 112.307)" fill="#F98B7C"/>
<path fill-rule="evenodd" clip-rule="evenodd" d="M153.067 106.332C151.575 106.332 150.365 107.542 150.365 109.035C150.365 110.527 151.575 111.737 153.067 111.737C154.56 111.737 155.77 110.527 155.77 109.035C155.77 107.542 154.56 106.332 153.067 106.332ZM153.067 107.303C154.023 107.303 154.799 108.078 154.799 109.035C154.799 109.991 154.023 110.766 153.067 110.766C152.111 110.766 151.336 109.991 151.336 109.035C151.336 108.078 152.111 107.303 153.067 107.303Z" fill="white"/>
<path fill-rule="evenodd" clip-rule="evenodd" d="M172.729 106.348C172.987 106.348 173.199 106.55 173.213 106.805L173.214 106.834V111.51C173.214 111.779 172.997 111.996 172.729 111.996C172.47 111.996 172.259 111.794 172.244 111.539L172.243 111.51V106.834C172.243 106.566 172.461 106.348 172.729 106.348Z" fill="#F98B7C"/>
<path fill-rule="evenodd" clip-rule="evenodd" d="M185.14 106.348C185.399 106.348 185.61 106.55 185.625 106.805L185.626 106.834V111.51C185.626 111.779 185.408 111.996 185.14 111.996C184.882 111.996 184.67 111.794 184.656 111.539L184.655 111.51V106.834C184.655 106.566 184.872 106.348 185.14 106.348Z" fill="#F98B7C"/>
<path fill-rule="evenodd" clip-rule="evenodd" d="M170.317 106.348C170.576 106.348 170.787 106.55 170.802 106.805L170.803 106.834V111.51C170.803 111.779 170.586 111.996 170.317 111.996C170.059 111.996 169.848 111.794 169.833 111.539L169.832 111.51V106.834C169.832 106.566 170.049 106.348 170.317 106.348Z" fill="#F98B7C"/>
<path fill-rule="evenodd" clip-rule="evenodd" d="M167.922 106.348C168.181 106.348 168.392 106.55 168.407 106.805L168.408 106.834V111.51C168.408 111.779 168.191 111.996 167.922 111.996C167.664 111.996 167.453 111.794 167.438 111.539L167.437 111.51V106.834C167.437 106.566 167.654 106.348 167.922 106.348Z" fill="#F98B7C"/>
<rect x="183.053" y="86.4769" width="58.1097" height="40.9891" fill="#454B89"/>
<path fill-rule="evenodd" clip-rule="evenodd" d="M216.145 86.0885V127.709H215.174V86.0885H216.145Z" fill="white"/>
<path fill-rule="evenodd" clip-rule="evenodd" d="M234.14 90.5225C234.408 90.5225 234.625 90.7398 234.625 91.0079C234.625 91.2665 234.423 91.4778 234.168 91.4926L234.14 91.4934H207.844C207.576 91.4934 207.358 91.276 207.358 91.0079C207.358 90.7494 207.56 90.5381 207.815 90.5233L207.844 90.5225H234.14Z" fill="white"/>
<path fill-rule="evenodd" clip-rule="evenodd" d="M240.645 105.248C240.913 105.248 241.131 105.465 241.131 105.734C241.131 105.992 240.928 106.203 240.674 106.218L240.645 106.219H223.751C223.483 106.219 223.266 106.002 223.266 105.734C223.266 105.475 223.468 105.264 223.723 105.249L223.751 105.248H240.645Z" fill="white"/>
<path fill-rule="evenodd" clip-rule="evenodd" d="M238.153 118.987C238.421 118.987 238.638 119.204 238.638 119.472C238.638 119.731 238.436 119.942 238.181 119.957L238.153 119.957H205.206C204.938 119.957 204.721 119.74 204.721 119.472C204.721 119.213 204.923 119.002 205.178 118.987L205.206 118.987H238.153Z" fill="white"/>
<path fill-rule="evenodd" clip-rule="evenodd" d="M209.818 101.575C210.086 101.575 210.304 101.792 210.304 102.06C210.304 102.319 210.101 102.53 209.847 102.545L209.818 102.546H192.795C192.526 102.546 192.309 102.328 192.309 102.06C192.309 101.802 192.511 101.59 192.766 101.576L192.795 101.575H209.818Z" fill="white"/>
<path fill-rule="evenodd" clip-rule="evenodd" d="M193.442 95.1343C193.71 95.1343 193.927 95.3517 193.927 95.6198C193.927 95.8783 193.725 96.0897 193.47 96.1044L193.442 96.1053H183.118C182.85 96.1053 182.632 95.8879 182.632 95.6198C182.632 95.3613 182.834 95.1499 183.089 95.1352L183.118 95.1343H193.442Z" fill="white"/>
<path fill-rule="evenodd" clip-rule="evenodd" d="M203.248 114.067C203.516 114.067 203.733 114.285 203.733 114.553C203.733 114.811 203.531 115.023 203.277 115.037L203.248 115.038H183.053C182.785 115.038 182.567 114.821 182.567 114.553C182.567 114.294 182.769 114.083 183.024 114.068L183.053 114.067H203.248Z" fill="white"/>
<path fill-rule="evenodd" clip-rule="evenodd" d="M182.972 95.6844C178.635 97.3997 183.102 100.248 183.102 100.248C183.102 100.248 184.218 97.0114 189.947 95.6844C189.202 95.6844 182.972 95.6844 182.972 95.6844Z" fill="#454B89"/>
<path fill-rule="evenodd" clip-rule="evenodd" d="M189.947 95.199H182.972C182.911 95.199 182.85 95.2105 182.794 95.233C181.509 95.7412 180.789 96.4116 180.626 97.2383C180.454 98.1138 180.914 98.9636 181.751 99.7791C181.988 100.011 182.241 100.223 182.494 100.413L182.568 100.468C182.686 100.554 182.78 100.618 182.841 100.657C183.097 100.821 183.436 100.71 183.55 100.433L183.568 100.387C183.579 100.358 183.601 100.309 183.634 100.242C183.709 100.087 183.811 99.9127 183.942 99.7224C184.323 99.1668 184.861 98.6066 185.582 98.0795C186.715 97.2521 188.19 96.5896 190.056 96.1574C190.619 96.0271 190.524 95.199 189.947 95.199ZM186.955 96.1697L186.925 96.1835C186.211 96.5108 185.574 96.8835 185.01 97.2954C184.198 97.8884 183.584 98.5284 183.141 99.1729L183.09 99.249C183.04 99.3244 182.993 99.3983 182.95 99.4702L182.922 99.517L182.887 99.4893C182.73 99.3628 182.575 99.227 182.429 99.0841C181.805 98.476 181.487 97.8901 181.579 97.426L181.585 97.3967C181.684 96.978 182.123 96.5642 183.022 96.1881L183.066 96.1697H186.955Z" fill="white"/>
<path fill-rule="evenodd" clip-rule="evenodd" d="M241.341 105.669C245.677 107.384 241.211 110.232 241.211 110.232C241.211 110.232 240.095 106.996 234.366 105.669C235.127 105.685 241.341 105.669 241.341 105.669Z" fill="#454B89"/>
<path fill-rule="evenodd" clip-rule="evenodd" d="M241.339 105.183L238.041 105.19L234.826 105.188C234.612 105.187 234.46 105.185 234.376 105.183C233.793 105.171 233.688 106.01 234.257 106.142C236.122 106.574 237.597 107.236 238.73 108.064C239.452 108.591 239.99 109.151 240.371 109.707C240.502 109.897 240.603 110.072 240.679 110.226L240.705 110.279C240.727 110.328 240.742 110.363 240.749 110.382L240.752 110.39C240.855 110.687 241.208 110.81 241.472 110.641L241.536 110.6C241.608 110.551 241.704 110.483 241.819 110.397C242.072 110.208 242.325 109.995 242.562 109.763C243.398 108.948 243.859 108.098 243.686 107.223C243.524 106.396 242.804 105.726 241.519 105.217C241.462 105.195 241.401 105.183 241.339 105.183ZM241.247 106.154L241.291 106.172C242.21 106.557 242.649 106.982 242.734 107.41C242.825 107.874 242.508 108.46 241.884 109.068L241.795 109.153C241.676 109.265 241.551 109.372 241.426 109.474L241.39 109.501L241.363 109.455C241.305 109.359 241.242 109.259 241.171 109.157C240.729 108.513 240.115 107.873 239.303 107.28L239.218 107.218C238.711 106.857 238.147 106.526 237.522 106.231L237.373 106.161L241.247 106.154Z" fill="white"/>
<path fill-rule="evenodd" clip-rule="evenodd" d="M198.313 114.585C198.313 114.585 188.248 116.478 188.49 122.417C188.49 122.417 180.415 119.456 183.134 114.585H198.313Z" fill="#454B89"/>
<path fill-rule="evenodd" clip-rule="evenodd" d="M198.313 114.1H183.134C182.958 114.1 182.796 114.195 182.71 114.348C181.908 115.786 181.902 117.19 182.578 118.495C183.113 119.528 184.045 120.451 185.26 121.274C185.93 121.728 186.645 122.124 187.359 122.46C187.578 122.563 187.784 122.654 187.972 122.733L188.051 122.766C188.179 122.818 188.271 122.854 188.323 122.873C188.648 122.992 188.989 122.743 188.975 122.397C188.878 120.013 190.605 118.116 193.61 116.668C194.658 116.164 195.784 115.753 196.911 115.431C197.262 115.331 197.59 115.245 197.889 115.175L198.109 115.124C198.144 115.116 198.178 115.109 198.21 115.102L198.403 115.062C198.982 114.953 198.903 114.1 198.313 114.1ZM194.894 115.071L194.786 115.111C194.242 115.316 193.707 115.544 193.189 115.794L193.09 115.842C190.16 117.275 188.292 119.172 188.032 121.604L188.023 121.696L187.946 121.662C187.889 121.636 187.831 121.609 187.773 121.581C187.101 121.265 186.429 120.894 185.805 120.471L185.732 120.421C183.45 118.852 182.489 117.097 183.399 115.133L183.428 115.071H194.894Z" fill="white"/>
<path fill-rule="evenodd" clip-rule="evenodd" d="M273.769 126.77C274.127 126.77 274.417 127.06 274.417 127.417C274.417 127.764 274.144 128.047 273.802 128.064L273.769 128.065H1.10187C0.744388 128.065 0.45459 127.775 0.45459 127.417C0.45459 127.071 0.72709 126.788 1.06957 126.771L1.10187 126.77H273.769Z" fill="#1D2675"/>
</svg>
