<svg width="25" height="25" viewBox="0 0 25 25" fill="none" xmlns="http://www.w3.org/2000/svg">
<g clip-path="url(#clip0_98_7091)">
<rect x="1" y="12.4854" width="16" height="16" rx="1" transform="rotate(-45 1 12.4854)" fill="#FDEBFF"/>
<path d="M11.7013 6.7843L6.66316 11.8224C6.48848 11.9989 6.39049 12.2371 6.39049 12.4854C6.39049 12.7336 6.48848 12.9718 6.66316 13.1483L11.7013 18.1864C11.8777 18.3611 12.1159 18.4591 12.3642 18.4591C12.6125 18.4591 12.8507 18.3611 13.0271 18.1864L18.0653 13.1483C18.2399 12.9718 18.3379 12.7336 18.3379 12.4854C18.3379 12.2371 18.2399 11.9989 18.0653 11.8224L13.0271 6.7843C12.8507 6.60963 12.6125 6.51164 12.3642 6.51164C12.1159 6.51164 11.8777 6.60963 11.7013 6.7843ZM14.3529 9.70112L12.3642 11.6899L10.3755 9.70112L12.3642 7.71238L14.3529 9.70112ZM9.57997 10.4966L11.5687 12.4854L9.57997 14.4741L7.59123 12.4854L9.57997 10.4966ZM10.3755 15.2696L12.3642 13.2808L14.3529 15.2696L12.3642 17.2583L10.3755 15.2696ZM15.1484 14.4741L13.1597 12.4854L15.1484 10.4966L17.1372 12.4854L15.1484 14.4741Z" fill="#D220FF"/>
</g>
<rect x="0.292893" y="12.4854" width="17" height="17" rx="1.5" transform="rotate(-45 0.292893 12.4854)" stroke="#D220FF"/>
<defs>
<clipPath id="clip0_98_7091">
<rect x="1" y="12.4854" width="16" height="16" rx="1" transform="rotate(-45 1 12.4854)" fill="white"/>
</clipPath>
</defs>
</svg>
