<svg width="359" height="129" viewBox="0 0 359 129" fill="none" xmlns="http://www.w3.org/2000/svg">
<path fill-rule="evenodd" clip-rule="evenodd" d="M22.1721 31.8299C22.216 31.402 22.5984 31.0906 23.0264 31.1345C32.2732 32.0826 41.5176 35.1562 50.4118 39.6857C54.2081 41.619 57.6843 43.6902 60.7678 45.7622L61.1671 46.032C62.0193 46.6113 62.7878 47.1552 63.4676 47.6547L63.6229 47.7692C63.8748 47.9555 64.0983 48.1237 64.2925 48.2725L64.6375 48.5408C64.9734 48.8095 65.028 49.2996 64.7593 49.6356C64.501 49.9586 64.0378 50.0215 63.7039 49.787L63.6322 49.7318C63.5874 49.6964 63.5175 49.6418 63.4232 49.5691L63.0881 49.3139C62.9973 49.2454 62.9011 49.1735 62.7998 49.0982L62.6967 49.0218C61.8952 48.4291 60.9595 47.7679 59.899 47.0552C56.8652 45.0166 53.4423 42.9772 49.7049 41.0739C40.9693 36.6252 31.9023 33.6106 22.8675 32.6842C22.4396 32.6403 22.1282 32.2578 22.1721 31.8299Z" fill="#1D2675"/>
<path fill-rule="evenodd" clip-rule="evenodd" d="M24.0375 32.2208C24.5308 30.663 27.9579 19.291 20.6622 21.1084C17.0792 22.0171 17.7803 24.6914 19.4679 27.2098C17.1831 25.4184 14.6387 24.6394 13.1328 28.1705C11.6788 31.5977 14.2752 32.6362 17.287 32.8179C14.4829 33.5449 12.302 35.1027 14.1973 38.452C17.8322 44.8131 23.648 33.1035 24.0375 32.2987C24.0115 32.2727 24.0375 32.2468 24.0375 32.2208C24.0375 32.2468 24.0375 32.2468 24.0375 32.2208C24.0375 32.2468 24.0375 32.2468 24.0375 32.2208C24.0375 32.2208 24.0375 32.2468 24.0375 32.2208Z" fill="#454B89"/>
<path fill-rule="evenodd" clip-rule="evenodd" d="M29.8903 32.4486C30.2664 32.2397 30.7406 32.3752 30.9495 32.7512C31.1507 33.1134 31.0325 33.5665 30.6877 33.7861L30.6469 33.8104L26.2071 36.2769C25.8311 36.4858 25.3569 36.3504 25.148 35.9743C24.9468 35.6122 25.065 35.1591 25.4098 34.9394L25.4506 34.9152L29.8903 32.4486Z" fill="#1D2675"/>
<path fill-rule="evenodd" clip-rule="evenodd" d="M31.715 27.0455C32.1206 26.9583 32.5202 27.2041 32.6293 27.5989L32.6402 27.6434L33.9124 33.563C34.0028 33.9836 33.7351 34.3978 33.3145 34.4882C32.909 34.5754 32.5094 34.3296 32.4003 33.9348L32.3894 33.8904L31.1172 27.9707C31.0268 27.5501 31.2944 27.1359 31.715 27.0455Z" fill="#1D2675"/>
<path fill-rule="evenodd" clip-rule="evenodd" d="M58.205 58.1063L26.8151 59.3006C25.5169 59.3525 24.4265 58.3399 24.3745 57.0418L23.7514 40.6848C23.6995 39.3866 24.7121 38.2961 26.0102 38.2442L57.4001 37.0499C58.6983 36.998 59.7887 38.0105 59.8407 39.3087L60.4638 55.6657C60.5157 56.9639 59.5031 58.0543 58.205 58.1063Z" fill="white"/>
<path fill-rule="evenodd" clip-rule="evenodd" d="M57.3691 36.2716L25.9807 37.4658C24.2507 37.5351 22.9041 38.9884 22.9732 40.7159L23.5963 57.0714C23.6655 58.8014 25.1189 60.148 26.8464 60.0789L58.2347 58.8846C59.9648 58.8154 61.3113 57.362 61.2422 55.6346L60.6191 39.2776C60.5499 37.549 59.0965 36.2025 57.3691 36.2716ZM57.4298 37.8281C58.2781 37.7942 58.9944 38.4392 59.059 39.2807L59.0624 39.3383L59.6855 55.6953C59.7203 56.5633 59.0441 57.2931 58.1739 57.3279L26.7856 58.5222C25.9176 58.5569 25.1877 57.8807 25.1529 57.0105L24.5299 40.655C24.4951 39.787 25.1713 39.0572 26.0415 39.0224L57.4298 37.8281Z" fill="#1D2675"/>
<path fill-rule="evenodd" clip-rule="evenodd" d="M57.9984 37.4812C58.3194 37.1949 58.8118 37.223 59.0981 37.544C59.3735 37.8527 59.358 38.3198 59.0711 38.6098L59.0353 38.6438L45.8208 50.4304C44.0839 51.9845 41.4913 52.1396 39.6056 50.801L24.307 39.7056C23.9588 39.453 23.8812 38.966 24.1338 38.6178C24.3766 38.2829 24.8363 38.1983 25.1808 38.4168L25.2216 38.4445L40.443 49.484C41.7213 50.4324 43.5015 50.3591 44.7161 49.327L44.783 49.2686L57.9984 37.4812Z" fill="#1D2675"/>
<path fill-rule="evenodd" clip-rule="evenodd" d="M190.152 72.516C191.684 76.073 198.824 86.043 198.824 86.043L220.269 96.5322C221.672 97.2073 222.658 98.5314 222.918 100.063L227.228 125.3C227.539 126.935 229.097 128.052 230.759 127.792C232.446 127.533 233.641 125.949 233.381 124.261L229.85 93.3907C229.616 91.4174 228.37 89.6779 226.553 88.873C222.814 87.2113 216.349 82.0446 212.87 66.0251C209.547 50.6288 207.054 47.2535 207.054 47.2535L190.152 72.516Z" fill="#FFD1CB"/>
<path fill-rule="evenodd" clip-rule="evenodd" d="M228.85 120.656C229.193 120.621 229.5 120.86 229.555 121.194L229.561 121.237L230.002 125.624C230.038 125.981 229.778 126.299 229.422 126.335C229.079 126.37 228.772 126.131 228.716 125.797L228.711 125.754L228.269 121.366C228.234 121.01 228.494 120.692 228.85 120.656Z" fill="#1D2675"/>
<path fill-rule="evenodd" clip-rule="evenodd" d="M230.902 120.448C231.244 120.413 231.551 120.652 231.607 120.986L231.612 121.029L232.054 125.416C232.09 125.773 231.83 126.091 231.473 126.127C231.13 126.162 230.823 125.923 230.768 125.589L230.762 125.546L230.321 121.159C230.285 120.802 230.545 120.484 230.902 120.448Z" fill="#1D2675"/>
<path fill-rule="evenodd" clip-rule="evenodd" d="M112.651 61.845C112.91 62.2864 73.2641 117.225 73.2641 117.225C71.94 118.601 71.94 120.782 73.2641 122.158C74.5623 123.534 76.7172 123.638 78.1712 122.444L136.329 62.3903L112.651 61.845Z" fill="#FFD1CB"/>
<path fill-rule="evenodd" clip-rule="evenodd" d="M76.0126 115.179C76.2249 114.89 76.6312 114.828 76.92 115.04C77.1963 115.244 77.265 115.624 77.0846 115.91L77.0585 115.948L74.4621 119.479C74.2497 119.768 73.8435 119.83 73.5547 119.617C73.2784 119.414 73.2097 119.034 73.3901 118.748L73.4162 118.71L76.0126 115.179Z" fill="#1D2675"/>
<path fill-rule="evenodd" clip-rule="evenodd" d="M77.6742 116.399C77.8866 116.11 78.2928 116.048 78.5817 116.261C78.8579 116.464 78.9266 116.844 78.7462 117.13L78.7201 117.168L76.1237 120.699C75.9114 120.988 75.5051 121.05 75.2163 120.838C74.94 120.634 74.8713 120.254 75.0517 119.968L75.0779 119.93L77.6742 116.399Z" fill="#1D2675"/>
<path fill-rule="evenodd" clip-rule="evenodd" d="M56.4395 20.9785C56.4395 20.9785 62.0216 7.60729 74.0167 7.815C86.0119 8.0227 89.7766 14.8511 95.7741 11.1124C101.746 7.42554 110.807 2.95982 122.828 7.94481C135.239 13.0856 130.513 7.26976 147.234 0.882745C156.191 -2.54444 175.664 5.84177 166.135 20.1217C156.633 34.4016 137.965 18.4341 130.903 26.301C123.841 34.1679 118.077 39.6722 106.004 32.7659C93.9307 25.8856 56.4395 20.9785 56.4395 20.9785Z" fill="#1D2675"/>
<path fill-rule="evenodd" clip-rule="evenodd" d="M199.992 45.9293C200.745 45.0725 201.29 38.1403 211.104 32.4543C220.944 26.7683 234.238 23.419 255.58 37.7508C260.72 41.5415 279.206 44.6571 290.423 37.2056C294.758 34.3237 300.626 37.1796 301.145 42.3464C302.288 53.5107 299.977 68.5176 282.374 76.4884C252.1 90.1971 238.599 59.4044 225.644 51.4596C212.688 43.5147 207.08 47.1756 207.08 47.1756L199.992 45.9293Z" fill="#1D2675"/>
<path fill-rule="evenodd" clip-rule="evenodd" d="M208.508 68.4138C210.663 65.1424 211.338 61.4296 211.805 57.5611C212.922 47.9026 207.677 38.4779 195.89 34.116C184.258 29.8061 168.706 39.3607 124.568 33.2852L124.672 32.9217L67.9934 20.2775C69.2656 18.2264 70.6936 15.1367 68.9541 13.9164C66.2539 12.0211 61.217 18.46 61.217 18.46L59.0101 17.8369C59.0101 17.8369 58.6985 12.2028 54.7001 11.8653C53.2202 11.7615 51.8441 11.9692 53.2721 18.4341C51.4287 18.7456 37.9017 33.7785 36.0583 35.9335C34.189 38.0625 35.4612 43.7744 40.7837 43.6187C46.1062 43.4629 46.236 36.6864 46.236 36.6864C46.236 36.6864 58.4648 36.8941 63.8652 31.4937L111.378 74.8787L111.404 74.8268C111.482 74.9306 111.534 75.0345 111.612 75.1383C111.768 75.372 111.976 75.6316 112.183 75.8653C113.326 80.5387 114.883 84.0179 114.883 84.0179C114.001 84.5891 103.979 90.4049 99.0458 93.2868C97.3841 94.2475 96.3975 96.1168 96.5792 98.0381C96.9427 102.374 98.0332 110.786 98.6044 114.888C98.8121 116.342 99.8247 117.537 101.227 117.978L112.002 120.86C113.715 121.353 115.481 120.289 115.87 118.575C116.182 117.121 115.429 115.641 114.027 115.07C112.105 114.265 108.652 113.227 107.38 112.733C106.393 112.37 105.718 111.461 105.666 110.423L105.043 100.946C104.939 99.6479 105.848 98.4795 107.12 98.2458L126.204 94.7927C130.358 94.0398 133.577 90.7424 134.226 86.5882L134.953 81.8629C150.635 82.7197 170.575 81.1099 184.05 79.3185C183.739 81.1878 184.128 83.1091 185.115 84.7448L193.709 98.4535C194.903 100.375 194.903 102.789 193.709 104.711L182.752 122.366C181.662 124.235 182.726 126.65 184.855 127.065C186.023 127.299 187.244 126.832 187.971 125.897L205.366 104.867C207.262 102.556 207.599 99.3623 206.249 96.688C204.406 93.0791 202.77 86.9258 205.548 78.2799C206.742 74.2296 207.729 70.9842 208.508 68.4138Z" fill="#F98B7C"/>
<path fill-rule="evenodd" clip-rule="evenodd" d="M108.236 117.982C108.33 117.651 108.665 117.454 108.997 117.525L109.038 117.536L113.504 118.808C113.849 118.906 114.048 119.265 113.95 119.61C113.856 119.941 113.521 120.138 113.189 120.067L113.148 120.056L108.682 118.784C108.338 118.686 108.138 118.327 108.236 117.982Z" fill="#1D2675"/>
<path fill-rule="evenodd" clip-rule="evenodd" d="M108.833 115.879C108.927 115.548 109.262 115.351 109.594 115.422L109.635 115.433L114.101 116.705C114.446 116.803 114.646 117.162 114.547 117.507C114.453 117.838 114.118 118.035 113.787 117.964L113.745 117.953L109.28 116.681C108.935 116.583 108.735 116.224 108.833 115.879Z" fill="#1D2675"/>
<path fill-rule="evenodd" clip-rule="evenodd" d="M185.866 120.707C186.08 120.419 186.486 120.359 186.774 120.572C187.05 120.777 187.117 121.158 186.935 121.442L186.909 121.48L184.52 124.7C184.306 124.988 183.9 125.048 183.612 124.834C183.337 124.63 183.27 124.249 183.451 123.965L183.477 123.926L185.866 120.707Z" fill="#1D2675"/>
<path fill-rule="evenodd" clip-rule="evenodd" d="M187.398 121.849C187.611 121.562 188.018 121.501 188.306 121.715C188.581 121.919 188.648 122.3 188.467 122.585L188.44 122.623L186.052 125.842C185.838 126.13 185.432 126.191 185.144 125.977C184.868 125.773 184.801 125.392 184.983 125.107L185.009 125.069L187.398 121.849Z" fill="#1D2675"/>
<path fill-rule="evenodd" clip-rule="evenodd" d="M56.866 23.5582C57.2911 23.4925 57.6891 23.7838 57.7548 24.2089L57.7618 24.2596C57.7654 24.289 57.7692 24.3243 57.7727 24.3651C57.8156 24.8541 57.7785 25.3985 57.5941 25.936C57.2306 26.9954 56.3776 27.7034 55.0449 27.8048C53.5965 27.915 52.6521 27.2095 52.2533 26.0533C52.0752 25.5367 52.0283 25.0194 52.0498 24.5743L52.0533 24.5149C52.0539 24.5067 52.0544 24.4995 52.055 24.4932C52.0928 24.0647 52.4708 23.7479 52.8993 23.7857C53.3125 23.8222 53.6218 24.175 53.6095 24.5844L53.6058 24.6493C53.6012 24.7438 53.6027 24.8657 53.6151 25.0022C53.6325 25.194 53.6688 25.3794 53.726 25.5454C53.9053 26.0653 54.226 26.3048 54.9268 26.2515C55.6166 26.199 55.9525 25.9202 56.1206 25.4304C56.213 25.1611 56.241 24.8594 56.227 24.5898L56.2209 24.5012C56.218 24.4685 56.2157 24.4496 56.2153 24.447C56.1495 24.0219 56.4409 23.624 56.866 23.5582Z" fill="#1D2675"/>
<path fill-rule="evenodd" clip-rule="evenodd" d="M46.8853 25.029C46.8853 25.029 48.3911 26.2233 49.6114 23.7827L46.8853 25.029Z" fill="white"/>
<path fill-rule="evenodd" clip-rule="evenodd" d="M48.9144 23.4343C49.1068 23.0495 49.5746 22.8936 49.9594 23.0859C50.3442 23.2783 50.5001 23.7462 50.3077 24.131C50.0909 24.5646 49.8523 24.9244 49.5915 25.2138C48.7242 26.176 47.6977 26.296 46.8057 25.8813C46.6276 25.7984 46.4918 25.7113 46.4009 25.6391C46.0638 25.3718 46.0073 24.8819 46.2746 24.5449C46.5317 24.2208 46.9945 24.156 47.3294 24.3892L47.3689 24.4186C47.37 24.4195 47.4049 24.4419 47.4625 24.4687C47.7763 24.6146 48.0647 24.5809 48.4344 24.1708C48.5962 23.9912 48.7576 23.7478 48.9144 23.4343Z" fill="#1D2675"/>
<path fill-rule="evenodd" clip-rule="evenodd" d="M53.9209 12.6443C54.6738 13.527 56.6211 15.708 56.699 17.811L53.9209 12.6443Z" fill="white"/>
<path fill-rule="evenodd" clip-rule="evenodd" d="M53.4155 12.0517C53.7302 11.7832 54.1969 11.809 54.4805 12.1023L54.5779 12.2139L54.7652 12.4329C54.8777 12.5649 54.9765 12.6825 55.0757 12.8027C55.3347 13.1168 55.5709 13.4196 55.7958 13.7307C56.6972 14.9777 57.2841 16.1721 57.4406 17.3509C57.4598 17.4957 57.4722 17.6395 57.4775 17.7822C57.4934 18.2121 57.1578 18.5735 56.7279 18.5894C56.3134 18.6047 55.9626 18.2932 55.9237 17.8855L55.9207 17.8398C55.9173 17.7472 55.9092 17.6525 55.8963 17.5559C55.7806 16.6837 55.2972 15.7001 54.5333 14.6433C54.3295 14.3613 54.1131 14.084 53.8738 13.7938L53.6577 13.5353L53.3284 13.1497C53.0492 12.8225 53.0882 12.3308 53.4155 12.0517Z" fill="#1D2675"/>
<path fill-rule="evenodd" clip-rule="evenodd" d="M68.9022 14.5916C65.7347 15.4224 63.2422 19.7323 63.2422 19.7323L68.9022 14.5916Z" fill="white"/>
<path fill-rule="evenodd" clip-rule="evenodd" d="M68.7043 13.8381C69.1204 13.7289 69.5462 13.9778 69.6554 14.3939C69.7645 14.81 69.5157 15.2358 69.0996 15.3449C68.013 15.6299 66.8861 16.4405 65.7957 17.6214C65.2893 18.17 64.8254 18.7607 64.4159 19.3513C64.2966 19.5233 64.1894 19.6847 64.095 19.8325L63.9617 20.0459C63.9411 20.0799 63.9258 20.1055 63.9162 20.1222C63.7008 20.4946 63.2244 20.6219 62.852 20.4065C62.4796 20.1912 62.3523 19.7147 62.5677 19.3423L62.6475 19.209C62.6687 19.1743 62.6931 19.135 62.7205 19.0914C62.8398 18.9012 62.9786 18.6903 63.1357 18.4637C63.5839 17.8172 64.0916 17.1708 64.6512 16.5646C65.9248 15.1852 67.2773 14.2124 68.7043 13.8381Z" fill="#1D2675"/>
<path fill-rule="evenodd" clip-rule="evenodd" d="M40.5824 36.0342C40.4772 36.876 40.9495 37.7023 41.774 37.8054C42.5986 37.9084 43.2597 37.2237 43.3649 36.3819C43.4701 35.5401 42.9978 34.7137 42.1733 34.6107C41.3487 34.5077 40.6876 35.1924 40.5824 36.0342Z" fill="#1D2675"/>
<path fill-rule="evenodd" clip-rule="evenodd" d="M37.5761 36.8834C37.4709 37.7252 37.9431 38.5516 38.7677 38.6546C39.5923 38.7577 40.2533 38.0729 40.3585 37.2311C40.4637 36.3894 39.9915 35.563 39.1669 35.4599C38.3424 35.3569 37.6813 36.0417 37.5761 36.8834Z" fill="#1D2675"/>
<path fill-rule="evenodd" clip-rule="evenodd" d="M248.518 127.559C248.518 127.559 251.4 102.763 279.414 106.372C279.414 106.372 288.397 77.2413 316.075 88.4056C316.075 88.4056 327.576 59.5342 358.109 72.8276V127.221" fill="white"/>
<path fill-rule="evenodd" clip-rule="evenodd" d="M335.55 69.5257C342.257 67.6796 349.873 68.3922 358.421 72.1135C358.689 72.2304 358.868 72.487 358.887 72.7763L358.889 72.8277V127.221C358.889 127.651 358.54 128 358.11 128C357.695 128 357.356 127.676 357.332 127.267L357.331 127.221V73.3407L357.306 73.3303C349.36 69.9666 342.332 69.3274 336.154 70.976L335.963 71.0277C330.835 72.4391 326.483 75.3744 322.858 79.3893C321.015 81.4307 319.481 83.6203 318.241 85.809C317.843 86.51 317.504 87.1643 317.22 87.7574L317.144 87.9176C317.055 88.1067 316.977 88.277 316.912 88.4271L316.822 88.6359C316.811 88.6616 316.804 88.681 316.798 88.694C316.639 89.0949 316.184 89.2895 315.783 89.1281C308.506 86.1928 302.187 85.9304 296.729 87.9025C292.288 89.5076 288.561 92.5361 285.498 96.5848C283.837 98.7799 282.477 101.136 281.398 103.491C281.021 104.315 280.707 105.079 280.452 105.763L280.346 106.053C280.313 106.145 280.283 106.232 280.255 106.313L280.159 106.602C280.047 106.964 279.691 107.193 279.315 107.145C272.479 106.264 266.837 107.051 262.265 109.245C258.474 111.064 255.522 113.798 253.302 117.211C251.813 119.499 250.739 121.956 250.016 124.412C249.763 125.271 249.572 126.068 249.435 126.78L249.397 126.985C249.367 127.15 249.342 127.3 249.322 127.434L249.291 127.649C249.242 128.076 248.855 128.382 248.428 128.332C248.001 128.283 247.694 127.896 247.744 127.469L247.754 127.392C247.779 127.196 247.828 126.889 247.905 126.486C248.052 125.726 248.254 124.881 248.522 123.972C249.285 121.379 250.418 118.786 251.996 116.361C254.365 112.72 257.529 109.79 261.591 107.841C266.276 105.592 271.977 104.742 278.773 105.51L278.881 105.523L278.953 105.326L278.992 105.219C279.26 104.501 279.589 103.702 279.982 102.843C281.105 100.39 282.521 97.9375 284.255 95.6449C287.488 91.3725 291.447 88.1549 296.2 86.4374C301.797 84.4147 308.209 84.5906 315.456 87.3279L315.663 87.4067L315.734 87.2545C316.049 86.5852 316.432 85.8412 316.885 85.0411C318.178 82.7587 319.778 80.4771 321.702 78.3454C325.513 74.1238 330.112 71.0225 335.55 69.5257Z" fill="#1D2675"/>
<path fill-rule="evenodd" clip-rule="evenodd" d="M185.608 50.3172C185.608 50.3172 191.476 49.9537 191.813 45.8775C192.125 41.8012 188.231 41.983 187.322 43.6187L187.14 43.5927C187.062 41.7233 183.635 39.828 182.103 43.6446C180.571 47.4093 185.582 50.3172 185.608 50.3172Z" fill="white"/>
<path fill-rule="evenodd" clip-rule="evenodd" d="M134.875 81.6551C135.187 79.0328 134.382 70.9582 134.512 71.1919C134.642 71.4255 145.079 81.8109 158.372 81.6551C158.372 81.6292 135.784 82.8235 134.875 81.6551Z" fill="#1D2675"/>
<path fill-rule="evenodd" clip-rule="evenodd" d="M184.284 78.0981C184.751 76.021 185.53 73.2948 186.361 70.5946C183.012 73.9439 177.508 78.9289 169.485 80.8502C169.485 80.8502 178.312 80.0453 184.128 79.2404C184.154 79.0847 184.258 78.2538 184.284 78.0981Z" fill="#1D2675"/>
<path fill-rule="evenodd" clip-rule="evenodd" d="M67.007 24.8989C67.007 24.8989 67.007 28.8972 63.6577 31.7013C66.7214 34.5054 71.5766 38.5816 71.5766 38.5557C74.5624 30.7926 69.6034 27.0019 67.007 24.8989Z" fill="#1D2675"/>
<path fill-rule="evenodd" clip-rule="evenodd" d="M358.135 126.78C358.566 126.78 358.914 127.128 358.914 127.559C358.914 127.973 358.59 128.313 358.181 128.336L358.135 128.338H1.65683C1.22666 128.338 0.87793 127.989 0.87793 127.559C0.87793 127.144 1.20219 126.805 1.61107 126.781L1.65683 126.78H358.135Z" fill="#1D2675"/>
</svg>
