<svg width="316" height="129" viewBox="0 0 316 129" fill="none" xmlns="http://www.w3.org/2000/svg">
<rect x="24.189" y="7.93286" width="172.288" height="120.355" fill="#454B89"/>
<path fill-rule="evenodd" clip-rule="evenodd" d="M188.407 15.6553H118.249C117.929 15.6553 117.669 15.9146 117.669 16.2345V120.198C117.669 120.518 117.929 120.777 118.249 120.777H188.407C188.727 120.777 188.986 120.518 188.986 120.198V16.2345C188.986 15.9146 188.727 15.6553 188.407 15.6553ZM187.828 16.8137V119.619H118.828V16.8137H187.828Z" fill="#1D2675"/>
<path fill-rule="evenodd" clip-rule="evenodd" d="M131.164 64.5773C128.817 64.5773 126.898 66.3562 126.898 68.5737C126.898 70.7911 128.817 72.57 131.164 72.57C133.511 72.57 135.431 70.7911 135.431 68.5737C135.431 66.3562 133.511 64.5773 131.164 64.5773ZM131.164 65.7356C132.89 65.7356 134.273 67.0165 134.273 68.5737C134.273 70.1308 132.89 71.4117 131.164 71.4117C129.438 71.4117 128.056 70.1308 128.056 68.5737C128.056 67.0165 129.438 65.7356 131.164 65.7356Z" fill="#1D2675"/>
<path fill-rule="evenodd" clip-rule="evenodd" d="M166.881 23.4357H138.404C138.128 23.4357 137.89 23.6311 137.836 23.9023C136.621 30.0347 130.81 34.5754 123.982 34.5754L123.888 34.5752L123.788 34.574L123.758 34.5732C123.699 34.5715 123.648 34.5685 123.604 34.5641L123.572 34.5606C123.226 34.5174 122.921 34.7869 122.921 35.1353V101.105C122.921 101.424 123.18 101.684 123.5 101.684L123.577 101.683C123.603 101.682 123.63 101.681 123.662 101.679L123.913 101.666C123.933 101.665 123.95 101.665 123.966 101.664L123.982 101.664C130.886 101.664 136.733 106.299 137.873 112.522C137.924 112.797 138.163 112.997 138.443 112.997H166.842C167.122 112.997 167.363 112.796 167.412 112.521C168.532 106.305 174.392 101.664 181.303 101.664C181.896 101.664 182.49 101.701 183.084 101.776C183.43 101.819 183.735 101.549 183.735 101.201V35.0387C183.735 34.6894 183.428 34.4196 183.082 34.4643C182.508 34.5383 181.915 34.5754 181.303 34.5754C174.456 34.5754 168.646 30.035 167.449 23.904C167.396 23.632 167.158 23.4357 166.881 23.4357ZM166.413 24.5939L166.443 24.7229C167.996 31.1042 174.135 35.7338 181.303 35.7338L181.522 35.7323C181.815 35.7283 182.103 35.7164 182.388 35.6966L182.577 35.6818V100.559L182.372 100.543C182.016 100.518 181.659 100.506 181.303 100.506L181.079 100.508C173.941 100.604 167.861 105.304 166.396 111.71L166.367 111.839H138.916L138.887 111.708C137.404 105.298 131.337 100.604 124.206 100.508L124.079 100.507V35.733L124.203 35.7323C131.257 35.6381 137.285 31.0391 138.84 24.7244L138.871 24.5939H166.413Z" fill="#1D2675"/>
<path fill-rule="evenodd" clip-rule="evenodd" d="M32.1371 120.766L102.296 120.766C102.616 120.766 102.875 120.506 102.875 120.187L102.875 16.2228C102.875 15.9029 102.616 15.6436 102.296 15.6436L32.1371 15.6436C31.8173 15.6436 31.558 15.9029 31.558 16.2228L31.558 120.187C31.558 120.506 31.8173 120.766 32.1371 120.766ZM32.7165 119.608L32.7165 16.8022L101.717 16.8022L101.717 119.608L32.7165 119.608Z" fill="#1D2675"/>
<path fill-rule="evenodd" clip-rule="evenodd" d="M89.3858 64.577C87.0388 64.577 85.1191 66.356 85.1191 68.5734C85.1191 70.7908 87.0388 72.5698 89.3858 72.5698C91.7328 72.5698 93.6525 70.7908 93.6525 68.5734C93.6525 66.356 91.7328 64.577 89.3858 64.577ZM89.3858 65.7354C91.1119 65.7354 92.4941 67.0163 92.4941 68.5734C92.4941 70.1305 91.1119 71.4114 89.3858 71.4114C87.6597 71.4114 86.2775 70.1305 86.2775 68.5734C86.2775 67.0163 87.6597 65.7354 89.3858 65.7354Z" fill="#1D2675"/>
<path fill-rule="evenodd" clip-rule="evenodd" d="M82.1461 23.4357H53.6695C53.3924 23.4357 53.1541 23.632 53.101 23.9039C51.9047 30.0349 46.0945 34.5753 39.2478 34.5753C38.6351 34.5753 38.0421 34.5383 37.4685 34.4643C37.1221 34.4196 36.8152 34.6894 36.8152 35.0387V101.201C36.8152 101.549 37.1205 101.819 37.4662 101.776C38.0602 101.701 38.654 101.664 39.2478 101.664C46.1515 101.664 51.9984 106.299 53.1384 112.522C53.1888 112.797 53.4285 112.997 53.7081 112.997H82.1075C82.3871 112.997 82.6268 112.797 82.6772 112.522C83.8058 106.361 89.5476 101.757 96.361 101.666L96.5678 101.664C96.5896 101.664 96.611 101.665 96.6378 101.666L96.9192 101.681C96.9677 101.683 97.0062 101.684 97.0505 101.684C97.3704 101.684 97.6297 101.424 97.6297 101.104V35.1352C97.6297 34.7985 97.3444 34.5353 97.0131 34.5572L96.9786 34.5605C96.9481 34.5643 96.9138 34.5673 96.8752 34.5696L96.7921 34.5732C96.7316 34.575 96.6804 34.5753 96.5678 34.5753C89.7401 34.5753 83.9295 30.0346 82.7142 23.9023C82.6605 23.6311 82.4226 23.4357 82.1461 23.4357ZM81.6793 24.5938L81.7105 24.7244C83.2656 31.0391 89.2935 35.6381 96.3471 35.7322L96.4711 35.7329V100.507L96.3446 100.507C89.213 100.604 83.1465 105.298 81.6633 111.708L81.6339 111.839H54.1815L54.1523 111.708C52.6536 105.231 46.4757 100.506 39.2478 100.506L39.0338 100.507C38.7485 100.511 38.4633 100.523 38.1781 100.543L37.9734 100.558V35.6818L38.1628 35.6965C38.5186 35.7213 38.8802 35.7337 39.2478 35.7337L39.4691 35.7322C46.5411 35.6381 52.5703 31.0384 54.1071 24.7228L54.1373 24.5938H81.6793Z" fill="#1D2675"/>
<path fill-rule="evenodd" clip-rule="evenodd" d="M110.797 8.06799V128.23H109.638V8.06799H110.797Z" fill="#1D2675"/>
<path fill-rule="evenodd" clip-rule="evenodd" d="M139.659 83.7289L126.435 76.2381C125.566 75.7361 124.562 75.4658 123.539 75.4658H112.824C112.573 75.4658 112.496 75.8133 112.708 75.9292L127.439 83.6709H126.589V128.056H139.389V83.7289H139.659Z" fill="white"/>
<path fill-rule="evenodd" clip-rule="evenodd" d="M127.458 83.6517L112.727 75.9099C112.495 75.7941 112.592 75.4466 112.843 75.4466H112.399C110.565 75.4466 109.966 77.8985 111.588 78.748L120.913 83.6517H79.7715V128.037H127.438L127.458 83.6517Z" fill="#FFD1CB"/>
<path fill-rule="evenodd" clip-rule="evenodd" d="M106.144 113.48C106.877 111.665 107.322 109.561 107.322 107.302C107.322 105.043 106.897 102.939 106.163 101.124L108.094 96.336C108.383 95.6024 107.708 94.8494 106.877 94.9846L101.53 95.7761C101.008 95.5444 100.487 95.39 99.9273 95.2935V93.6138C99.9273 92.6292 99.1357 91.8376 98.1511 91.8376H97.4561C96.4714 91.8376 95.6799 92.6292 95.6799 93.6138V96.2781C92.8033 98.1508 90.7761 102.379 90.7761 107.263C90.7761 112.167 92.784 116.395 95.6799 118.268V120.391C95.6799 121.376 96.4714 122.168 97.4561 122.168H98.1511C99.1357 122.168 99.9273 121.376 99.9273 120.391V119.233C100.468 119.156 101.008 118.982 101.51 118.77L106.858 119.581C107.708 119.716 108.383 118.963 108.094 118.229L106.144 113.48Z" fill="#F98B7C"/>
<path fill-rule="evenodd" clip-rule="evenodd" d="M283.818 88.0342C282.95 83.9799 282.332 79.6746 281.907 75.6976C281.811 72.1259 281.675 68.3612 281.618 64.4228C281.598 63.554 281.463 62.7624 281.212 62.0288C289.07 47.916 288.606 27.3742 280.98 15.0568C271.849 0.287617 249.589 -3.34195 240.148 4.9018C230.688 13.1455 232.599 27.3742 236.634 29.6909C240.669 32.0077 239.627 27.0653 239.627 27.0653C239.627 27.0653 234.974 4.6122 260.246 10.8095C284.668 16.7944 271.829 47.2016 254.376 54.4415C238.835 55.1558 221.054 58.8626 213.833 60.4457C212.598 58.7467 210.899 57.2023 208.659 55.8701C211.111 51.5455 216.208 41.8538 212.752 41.9697C210.88 42.0276 189.199 43.3018 183.156 53.9588C179.816 54.7697 176.881 55.8894 174.391 57.0671C169.777 55.6771 153.058 51.7386 142.748 64.0946C140.837 67.9172 149.312 67.4924 155.876 72.3383C153.27 78.5356 152.015 89.1926 164.699 95.8146C170.124 98.6526 176.013 99.3476 181.669 98.8071C181.708 98.9036 181.785 99.0194 181.862 99.116C181.862 103.769 183.31 103.923 184.179 104.695C184.141 105.97 183.793 107.244 183.503 108.75C182.866 112.186 182.152 116.993 182.152 116.993C180.395 116.993 174.7 120.932 173.773 122.921C173.252 124.04 173.696 127.651 173.696 127.651C173.696 127.651 193.504 128.152 195.164 127.67C196.805 127.206 196.767 126.318 196.883 124.697C196.999 122.959 199.817 116.086 203.408 109.039C205.551 109.561 207.849 110.063 210.32 110.507C209.779 113.634 209.277 117.013 209.277 117.013C207.52 117.013 201.825 120.951 200.898 122.94C200.377 124.06 200.821 127.67 200.821 127.67C200.821 127.67 220.629 128.172 222.29 127.689C223.931 127.226 223.892 126.338 224.008 124.716C224.104 123.268 226.074 118.287 228.776 112.611C234.259 112.92 240.302 113.055 246.963 112.939C248.044 112.92 249.067 112.881 250.091 112.843C250.091 113.692 249.627 114.542 248.739 115.179L243.565 118.866L235.572 118.384C228.352 118.094 228.371 127.998 228.371 127.998H255.361C255.361 127.998 258.566 125.276 262.253 122.785C265.941 120.295 270.748 117.399 270.401 114.793C270.285 114.02 269.609 111.858 268.721 109.213C269.126 109.039 269.513 108.846 269.879 108.673C273.316 109.406 276.463 110.101 278.76 110.603C280.942 111.086 282.39 112.688 282.235 114.464L281.83 119.407C281.83 119.407 278.722 117.804 274.397 119.851C270.092 121.897 272.003 128.133 272.003 128.133L294.514 128.268C294.804 125.604 298.897 112.92 299.862 106.336C300.827 99.6758 286.599 100.854 283.818 88.0342Z" fill="#F98B7C"/>
<path fill-rule="evenodd" clip-rule="evenodd" d="M178.33 76.3015C179.388 76.1726 180.082 74.7125 179.878 73.0401C179.675 71.3677 178.652 70.1164 177.593 70.2452C176.535 70.374 175.841 71.8342 176.045 73.5066C176.249 75.1789 177.272 76.4303 178.33 76.3015Z" fill="#1D2675"/>
<path fill-rule="evenodd" clip-rule="evenodd" d="M165.415 78.4851C166.473 78.3563 167.166 76.8962 166.963 75.2238C166.759 73.5514 165.736 72.3001 164.678 72.4289C163.619 72.5577 162.926 74.0178 163.13 75.6902C163.333 77.3626 164.356 78.6139 165.415 78.4851Z" fill="#1D2675"/>
<path fill-rule="evenodd" clip-rule="evenodd" d="M178.098 85.1576C177.519 84.4433 176.225 84.3274 174.989 84.2309C174.468 84.1923 173.677 84.1151 173.445 83.9992C173.445 83.9799 173.426 83.9606 173.426 83.9413L173.271 83.0339C173.387 82.976 173.484 82.8795 173.58 82.7829L175.627 80.2345C176.109 79.6167 175.607 78.8638 174.796 78.9796L169.835 79.7326C168.985 79.8677 168.638 80.833 169.313 81.2577L172.209 83.0339L172.402 84.1923C172.248 84.366 171.572 84.6556 171.167 84.8294C169.97 85.3313 168.348 86.0071 168.908 87.3971C168.985 87.6095 169.198 87.7253 169.41 87.7253C169.468 87.7253 169.545 87.706 169.603 87.6867C169.873 87.5709 170.008 87.262 169.893 86.9917C169.738 86.6056 170.568 86.2194 171.572 85.7947C172.171 85.5437 172.75 85.2927 173.117 84.9645C173.58 85.1383 174.217 85.1962 174.912 85.2541C175.742 85.3313 176.997 85.4279 177.287 85.7947C177.325 85.8333 177.345 85.8912 177.325 86.0071C177.287 86.2967 177.48 86.5669 177.789 86.6056C177.808 86.6056 177.847 86.6056 177.866 86.6056C178.136 86.6056 178.349 86.4125 178.387 86.1422C178.407 85.7947 178.31 85.4472 178.098 85.1576Z" fill="#1D2675"/>
<path fill-rule="evenodd" clip-rule="evenodd" d="M163.38 82.5344C163.667 82.3923 164.014 82.5095 164.156 82.7961C164.293 83.0721 164.19 83.4045 163.926 83.5556L163.738 83.6537L163.617 83.7185C163.512 83.7755 163.396 83.84 163.269 83.9122C162.76 84.2025 162.191 84.5527 161.577 84.9631C159.822 86.1373 158.065 87.5554 156.427 89.2185C153.927 91.7571 151.934 94.6347 150.633 97.8535C149.07 101.72 148.565 105.941 149.305 110.53C149.356 110.846 149.141 111.143 148.825 111.194C148.509 111.245 148.212 111.03 148.161 110.715C147.388 105.914 147.918 101.48 149.559 97.4195C150.921 94.0492 153 91.0469 155.602 88.4056C157.299 86.6829 159.116 85.2159 160.933 84.0002C161.57 83.5741 162.163 83.2094 162.696 82.9058L162.851 82.8179C162.952 82.7617 163.045 82.7105 163.132 82.6642L163.308 82.5712C163.339 82.5552 163.363 82.5429 163.38 82.5344Z" fill="white"/>
<path fill-rule="evenodd" clip-rule="evenodd" d="M164.36 84.8039C164.619 84.6166 164.981 84.675 165.169 84.9344C165.349 85.1837 165.302 85.528 165.067 85.7206L164.94 85.8168L164.849 85.8869C164.786 85.9366 164.716 85.9922 164.64 86.0536C164.312 86.3194 163.946 86.6366 163.551 87.0043C162.419 88.0579 161.286 89.3014 160.228 90.7262C158.172 93.4957 156.659 96.6018 155.913 100.021C154.993 104.239 155.291 108.733 157.038 113.493C157.148 113.793 156.994 114.126 156.694 114.236C156.393 114.346 156.061 114.192 155.95 113.892C154.127 108.924 153.815 104.207 154.782 99.774C155.565 96.183 157.15 92.9299 159.298 90.0358C160.4 88.5511 161.58 87.2558 162.762 86.1563C163.142 85.8025 163.498 85.4921 163.822 85.2257L164.038 85.0515C164.184 84.9352 164.293 84.8525 164.36 84.8039Z" fill="white"/>
<path fill-rule="evenodd" clip-rule="evenodd" d="M187.592 78.1748C189.551 77.9577 191.771 77.8866 194.141 78.0484C197.348 78.2673 200.482 78.8945 203.43 80.019C208.902 82.1057 213.354 85.7523 216.405 91.2275C216.561 91.5069 216.461 91.8597 216.181 92.0154C215.902 92.1711 215.549 92.0708 215.393 91.7914C212.481 86.5644 208.244 83.0946 203.018 81.1013C200.184 80.0205 197.161 79.4156 194.062 79.2041C191.765 79.0473 189.614 79.1162 187.72 79.3262L187.482 79.3535C187.172 79.3904 186.893 79.4288 186.646 79.4672L186.524 79.4865C186.485 79.4927 186.449 79.4987 186.416 79.5045L186.278 79.529C185.964 79.5899 185.66 79.3847 185.599 79.0706C185.538 78.7566 185.743 78.4527 186.057 78.3918L186.217 78.3632C186.285 78.3515 186.369 78.3378 186.468 78.3225L186.669 78.2922C186.946 78.252 187.254 78.2123 187.592 78.1748Z" fill="#1D2675"/>
<path fill-rule="evenodd" clip-rule="evenodd" d="M187.943 80.8901L188.119 80.8872C188.471 80.8844 188.931 80.8965 189.483 80.9329C190.414 80.9943 191.422 81.1141 192.488 81.3059C195.415 81.8328 198.321 82.8135 201.039 84.3596C206.19 87.2898 210.106 91.9271 212.28 98.569C212.379 98.873 212.213 99.2001 211.909 99.2996C211.605 99.3991 211.278 99.2333 211.179 98.9293C209.097 92.5678 205.372 88.1575 200.466 85.3665C197.87 83.89 195.088 82.9509 192.283 82.446C191.261 82.2621 190.296 82.1474 189.407 82.0888L189.203 82.0763C188.739 82.0497 188.357 82.0422 188.068 82.0462L187.948 82.0489C187.628 82.0616 187.359 81.8128 187.346 81.4932C187.334 81.185 187.565 80.9235 187.868 80.8938L187.902 80.8914C187.911 80.891 187.925 80.8906 187.943 80.8901Z" fill="#1D2675"/>
<path fill-rule="evenodd" clip-rule="evenodd" d="M206.235 45.2303C208.635 44.3934 210.653 44.1355 212.105 44.1972L212.254 44.2049C212.294 44.2074 212.325 44.2099 212.346 44.212C212.664 44.2436 212.897 44.5273 212.865 44.8456C212.835 45.1526 212.57 45.3796 212.266 45.3671L212.153 45.3593L212.127 45.3578C211.678 45.3347 211.058 45.3535 210.291 45.4476C209.157 45.5869 207.924 45.8679 206.616 46.3241C203.033 47.5734 199.431 49.9259 195.996 53.6562C195.779 53.8915 195.413 53.9065 195.177 53.6898C194.942 53.4731 194.927 53.1067 195.144 52.8714C198.709 49.0003 202.473 46.542 206.235 45.2303Z" fill="#1D2675"/>
<path fill-rule="evenodd" clip-rule="evenodd" d="M235.625 80.7173C235.945 80.7254 236.198 80.9911 236.19 81.3109C235.871 93.9883 240.435 103.11 247.724 104.984L248 105.053C250.502 105.669 252.592 105.872 256.829 106.037L258.52 106.101C260.693 106.187 261.87 106.268 263.249 106.438L263.328 106.448C265.476 106.718 267.365 107.168 269.166 107.883C269.464 108.001 269.609 108.338 269.491 108.635C269.373 108.933 269.036 109.078 268.739 108.96C267.036 108.283 265.24 107.856 263.183 107.597L262.956 107.57C261.627 107.41 260.44 107.334 258.218 107.248L256.619 107.188C252.258 107.015 250.134 106.794 247.436 106.106C239.521 104.071 234.701 94.4377 235.032 81.2818C235.04 80.962 235.306 80.7093 235.625 80.7173Z" fill="#1D2675"/>
<path fill-rule="evenodd" clip-rule="evenodd" d="M213.405 60.9821C213.706 60.8735 214.038 61.0293 214.146 61.3301C217.472 70.5378 215.399 79.3157 208.822 86.455C202.762 93.0336 193.214 97.7719 182.596 99.5712C182.281 99.6246 181.982 99.4123 181.928 99.0969C181.875 98.7815 182.087 98.4826 182.403 98.4291C192.781 96.6705 202.095 92.048 207.97 85.6702C214.264 78.8384 216.23 70.5104 213.057 61.7236C212.948 61.4227 213.104 61.0908 213.405 60.9821Z" fill="#1D2675"/>
<path fill-rule="evenodd" clip-rule="evenodd" d="M197.858 99.0795C198.07 98.84 198.436 98.8179 198.676 99.03C198.915 99.2421 198.937 99.6082 198.725 99.8476C197.323 101.431 195.603 102.648 193.641 103.54C191.857 104.351 189.953 104.859 188.029 105.122C186.85 105.284 185.823 105.335 185.027 105.322L184.848 105.318C184.781 105.316 184.733 105.314 184.706 105.312C184.387 105.294 184.142 105.02 184.161 104.701C184.178 104.393 184.433 104.155 184.738 104.155L184.883 104.16L185.049 104.164C185.788 104.176 186.756 104.128 187.872 103.975C189.692 103.725 191.488 103.246 193.162 102.486C194.983 101.658 196.569 100.535 197.858 99.0795Z" fill="#1D2675"/>
<path fill-rule="evenodd" clip-rule="evenodd" d="M208.02 118.664C208.302 118.513 208.653 118.62 208.804 118.902C208.954 119.184 208.848 119.535 208.565 119.686C207.328 120.347 206.317 121.078 205.514 121.866C204.416 122.943 203.744 124.082 203.41 125.233C203.196 125.971 203.144 126.618 203.186 127.122L203.192 127.187C203.197 127.237 203.202 127.271 203.204 127.286L203.205 127.293C203.264 127.607 203.057 127.91 202.743 127.969C202.428 128.028 202.126 127.821 202.067 127.506L202.059 127.463C202.053 127.423 202.046 127.369 202.039 127.303C201.974 126.65 202.03 125.832 202.298 124.91C202.687 123.57 203.461 122.257 204.703 121.039C205.587 120.172 206.687 119.376 208.02 118.664Z" fill="#1D2675"/>
<path fill-rule="evenodd" clip-rule="evenodd" d="M209.683 120.416C209.946 120.235 210.307 120.302 210.488 120.565C210.669 120.829 210.603 121.189 210.339 121.371C209.508 121.941 208.845 122.591 208.33 123.305C207.72 124.151 207.34 125.055 207.147 125.971C207.025 126.548 206.99 127.051 207.007 127.436L207.015 127.567C207.05 127.885 206.821 128.171 206.503 128.207C206.186 128.242 205.899 128.013 205.864 127.695L205.858 127.632C205.856 127.614 205.855 127.594 205.854 127.571C205.825 127.08 205.861 126.451 206.013 125.732C206.239 124.664 206.681 123.611 207.39 122.628C207.983 121.806 208.742 121.062 209.683 120.416Z" fill="#1D2675"/>
<path fill-rule="evenodd" clip-rule="evenodd" d="M180.895 118.664C181.177 118.513 181.528 118.62 181.678 118.902C181.829 119.184 181.722 119.535 181.44 119.686C180.202 120.347 179.192 121.078 178.389 121.866C177.291 122.943 176.619 124.082 176.285 125.233C176.071 125.971 176.019 126.618 176.061 127.122L176.067 127.187C176.072 127.237 176.076 127.271 176.079 127.286L176.08 127.293C176.139 127.607 175.932 127.91 175.618 127.969C175.303 128.028 175 127.821 174.941 127.506L174.934 127.463C174.928 127.423 174.921 127.369 174.914 127.303C174.848 126.65 174.905 125.832 175.173 124.91C175.561 123.57 176.336 122.257 177.578 121.039C178.462 120.172 179.562 119.376 180.895 118.664Z" fill="#1D2675"/>
<path fill-rule="evenodd" clip-rule="evenodd" d="M182.557 120.416C182.821 120.235 183.182 120.302 183.363 120.565C183.544 120.829 183.477 121.189 183.214 121.371C182.383 121.941 181.719 122.591 181.205 123.305C180.595 124.151 180.215 125.055 180.021 125.971C179.899 126.548 179.865 127.051 179.881 127.436L179.89 127.567C179.925 127.885 179.696 128.171 179.378 128.207C179.06 128.242 178.774 128.013 178.738 127.695L178.733 127.632C178.731 127.614 178.73 127.594 178.728 127.571C178.699 127.08 178.736 126.451 178.888 125.732C179.114 124.664 179.556 123.611 180.265 122.628C180.858 121.806 181.617 121.062 182.557 120.416Z" fill="#1D2675"/>
<path fill-rule="evenodd" clip-rule="evenodd" d="M237.437 119.681C237.755 119.644 238.042 119.872 238.078 120.19C238.115 120.508 237.887 120.795 237.569 120.832C235.407 121.08 234.044 122.294 233.278 124.211C232.991 124.93 232.808 125.706 232.711 126.492C232.676 126.783 232.654 127.059 232.643 127.315L232.639 127.439C232.636 127.538 232.635 127.624 232.636 127.695L232.637 127.763C232.65 128.083 232.401 128.352 232.081 128.364C231.773 128.377 231.512 128.145 231.482 127.842L231.479 127.789L231.478 127.76C231.471 127.405 231.491 126.921 231.562 126.35C231.67 125.472 231.875 124.601 232.203 123.781C233.115 121.495 234.815 119.982 237.437 119.681Z" fill="#1D2675"/>
<path fill-rule="evenodd" clip-rule="evenodd" d="M239.22 121.409C239.521 121.302 239.853 121.46 239.96 121.761C240.067 122.062 239.91 122.394 239.608 122.501C238.138 123.024 237.084 123.852 236.372 124.906C235.932 125.556 235.647 126.255 235.487 126.953C235.438 127.166 235.405 127.365 235.384 127.545L235.375 127.621C235.368 127.698 235.363 127.757 235.361 127.799L235.36 127.846C235.358 128.166 235.098 128.424 234.778 128.423C234.458 128.421 234.2 128.161 234.201 127.841L234.202 127.788C234.205 127.719 234.211 127.624 234.223 127.505C234.247 127.259 234.291 126.987 234.358 126.695C234.548 125.864 234.886 125.034 235.412 124.256C236.262 123.001 237.514 122.016 239.22 121.409Z" fill="#1D2675"/>
<path fill-rule="evenodd" clip-rule="evenodd" d="M274.78 120.978C276.421 119.832 278.115 119.494 279.495 119.591L279.558 119.595C279.595 119.599 279.625 119.602 279.646 119.605C279.963 119.646 280.187 119.937 280.145 120.254C280.105 120.56 279.834 120.779 279.53 120.757L279.435 120.748L279.414 120.746C279.027 120.719 278.521 120.743 277.941 120.859C277.084 121.03 276.238 121.373 275.443 121.928C274.794 122.381 274.409 123.252 274.268 124.442C274.17 125.274 274.199 126.177 274.308 127.046L274.33 127.212C274.341 127.293 274.353 127.369 274.364 127.44L274.391 127.599C274.397 127.632 274.402 127.656 274.405 127.671C274.468 127.984 274.265 128.29 273.952 128.353C273.638 128.417 273.333 128.214 273.269 127.9L273.24 127.741L273.221 127.625L273.195 127.46C273.183 127.374 273.171 127.284 273.159 127.19C273.039 126.236 273.007 125.245 273.118 124.306C273.294 122.819 273.808 121.656 274.78 120.978Z" fill="#1D2675"/>
<path fill-rule="evenodd" clip-rule="evenodd" d="M279.019 122.367C279.335 122.318 279.631 122.535 279.68 122.851C279.729 123.167 279.512 123.463 279.196 123.512C277.87 123.718 277.233 124.384 277.042 125.432C276.941 125.981 276.976 126.589 277.097 127.175C277.117 127.272 277.138 127.36 277.159 127.441L277.188 127.547L277.205 127.603C277.306 127.907 277.142 128.235 276.838 128.335C276.534 128.436 276.207 128.272 276.106 127.968L276.086 127.904C276.05 127.788 276.006 127.619 275.963 127.41C275.814 126.689 275.771 125.941 275.902 125.224C276.179 123.706 277.188 122.651 279.019 122.367Z" fill="#1D2675"/>
<path fill-rule="evenodd" clip-rule="evenodd" d="M151.494 127.94C152.976 127.94 154.177 126.739 154.177 125.256C154.177 123.774 152.976 122.573 151.494 122.573C150.012 122.573 148.81 123.774 148.81 125.256C148.81 126.739 150.012 127.94 151.494 127.94Z" fill="#F98B7C"/>
<path fill-rule="evenodd" clip-rule="evenodd" d="M315.056 127.689C315.376 127.689 315.635 127.948 315.635 128.268C315.635 128.577 315.394 128.829 315.09 128.846L315.056 128.847H0.886315C0.566439 128.847 0.307129 128.588 0.307129 128.268C0.307129 127.96 0.548248 127.708 0.852283 127.69L0.886315 127.689H315.056Z" fill="#1D2675"/>
</svg>
