<svg width="394" height="200" viewBox="0 0 394 200" fill="none" xmlns="http://www.w3.org/2000/svg">
<path fill-rule="evenodd" clip-rule="evenodd" d="M209.891 197.778L208.911 164.056L210.896 162.535L215.588 197.778L264.289 198.397L253.59 102.026C247.866 77.7921 239.977 92.771 222.807 91.4304C200.171 89.6515 171.399 89.3163 168.486 128.066L166.887 197.778H209.891Z" fill="#1D2675"/>
<path fill-rule="evenodd" clip-rule="evenodd" d="M76.6016 135.8C75.8281 136.264 74.9258 135.336 75.0805 133.48C75.2094 131.623 84.1555 123.399 84.1555 123.399L85.032 122.523C85.032 122.523 85.1094 122.858 80.6492 121.079C76.1891 119.3 77.6844 114.762 80.1078 116.438C82.5312 118.114 88.0226 118.423 88.0226 118.423L103.027 118.887C111.303 123.012 106.018 135.078 106.018 135.078L93.9781 135.542L82.4023 141.755L76.6016 135.8Z" fill="white"/>
<path fill-rule="evenodd" clip-rule="evenodd" d="M77.0278 117.383C76.8477 119.116 78.0699 120.883 80.3626 121.797L81.0383 122.065C82.0081 122.446 82.7676 122.729 83.3638 122.928L83.4833 122.967L82.9971 123.421C82.7502 123.652 82.4846 123.903 82.2039 124.171C81.1345 125.188 80.065 126.234 79.0656 127.251C78.8553 127.465 78.6499 127.676 78.45 127.883L78.2519 128.089C75.7774 130.671 74.4193 132.373 74.3128 133.381L74.3088 133.426C74.2224 134.462 74.4214 135.367 74.8729 135.972L74.9133 136.025C75.2805 136.486 75.7876 136.727 76.3051 136.689L76.38 136.681L81.8482 142.295L81.8853 142.331C82.1262 142.547 82.4793 142.592 82.768 142.437L94.1863 136.308L106.048 135.851C106.344 135.84 106.607 135.66 106.726 135.388L106.772 135.281C106.83 135.143 106.909 134.944 107.003 134.691C107.204 134.149 107.405 133.542 107.593 132.885C108.231 130.649 108.563 128.385 108.423 126.25C108.184 122.631 106.6 119.804 103.372 118.195C103.272 118.145 103.163 118.118 103.051 118.114L88.0402 117.65L87.7735 117.63L87.6973 117.624C87.3967 117.6 87.061 117.567 86.6992 117.525C85.6673 117.405 84.6362 117.235 83.6797 117.01C82.3746 116.701 81.3209 116.312 80.6236 115.853L80.5476 115.802C78.913 114.672 77.2163 115.569 77.0278 117.383ZM79.6223 117.044L79.6678 117.074C80.5538 117.687 81.7994 118.155 83.3242 118.515C84.3455 118.756 85.4334 118.935 86.5205 119.061C86.8461 119.099 87.152 119.13 87.4327 119.154L87.8012 119.184L87.9791 119.196L102.83 119.655L102.909 119.697C105.446 121.054 106.68 123.333 106.879 126.352C107.007 128.285 106.699 130.381 106.105 132.46C105.929 133.077 105.741 133.646 105.553 134.152L105.488 134.325L93.9482 134.769L93.8898 134.774C93.7928 134.785 93.6986 134.814 93.6123 134.861L82.5497 140.798L77.1555 135.26C76.9052 135.003 76.5111 134.952 76.2035 135.137L76.1942 135.142C76.1816 135.149 76.1791 135.136 76.1128 135.047C75.9105 134.776 75.793 134.242 75.8511 133.544C75.863 133.374 76.196 132.814 76.7871 132.061L76.8452 131.988C77.4633 131.21 78.321 130.253 79.3688 129.159C79.6257 128.891 79.8927 128.616 80.1687 128.335C81.0316 127.458 81.9492 126.556 82.8739 125.67L83.2705 125.291C83.5019 125.071 83.7231 124.861 83.9316 124.665L84.6788 123.969L84.7024 123.946L85.5611 123.087L85.591 123.056C86.0708 122.527 85.6241 121.714 84.9669 121.766L84.9332 121.769L84.8649 121.756C84.7673 121.736 84.6315 121.701 84.456 121.649L84.3883 121.629C83.6848 121.417 82.5586 121.008 80.9357 120.361C79.253 119.689 78.4621 118.546 78.5664 117.543C78.6363 116.871 79.0212 116.651 79.6223 117.044Z" fill="#1D2675"/>
<path fill-rule="evenodd" clip-rule="evenodd" d="M82.6601 129.639C82.3765 129.793 71.4195 139.152 76.7304 141.575L82.6601 129.639Z" fill="white"/>
<path fill-rule="evenodd" clip-rule="evenodd" d="M82.2897 128.959C82.6647 128.755 83.1345 128.893 83.3391 129.268C83.5361 129.629 83.4152 130.078 83.0711 130.293L83.0305 130.317C82.6366 130.532 79.8454 133.187 78.2628 135.162L78.2033 135.236C77.0853 136.646 76.3597 137.899 76.1297 138.885C75.9015 139.863 76.1577 140.463 77.0515 140.871C77.4401 141.048 77.6114 141.507 77.434 141.896C77.2567 142.284 76.7979 142.456 76.4093 142.278C74.8117 141.549 74.2351 140.197 74.6233 138.533C74.9165 137.277 75.7436 135.849 76.9913 134.275L77.122 134.112C78.8299 132.003 81.6896 129.286 82.2897 128.959Z" fill="#1D2675"/>
<path fill-rule="evenodd" clip-rule="evenodd" d="M84.4389 132.526C84.4389 132.526 76.4725 140.08 76.6787 142.22C76.885 144.359 78.1483 145.004 80.4686 141.833" fill="white"/>
<path fill-rule="evenodd" clip-rule="evenodd" d="M85.0002 131.994C85.2828 132.292 85.2816 132.756 85.0056 133.052L84.9609 133.097L84.6435 133.402L84.3354 133.702C84.1576 133.876 83.9691 134.063 83.7717 134.259C82.8697 135.158 81.9679 136.091 81.1275 137.01C80.827 137.338 80.5395 137.659 80.2666 137.972L80.1046 138.158C78.4086 140.119 77.4021 141.662 77.4487 142.145C77.491 142.584 77.5817 142.918 77.6981 143.115L77.7326 143.17C77.7737 143.231 77.7967 143.244 77.8204 143.245C77.9309 143.251 78.1468 143.161 78.4487 142.924C78.849 142.609 79.3195 142.094 79.8445 141.376C80.0967 141.031 80.5806 140.956 80.9254 141.209C81.2701 141.461 81.3451 141.945 81.0928 142.29C79.8524 143.985 78.7615 144.842 77.7415 144.79C76.6325 144.734 76.0486 143.743 75.9089 142.294C75.8013 141.177 76.8843 139.517 78.9345 137.146C79.2648 136.764 79.6163 136.37 79.9863 135.966C80.8443 135.028 81.7622 134.078 82.6799 133.163L83.0311 132.815C83.1826 132.666 83.3276 132.524 83.4653 132.39L83.9068 131.965C84.2167 131.671 84.7063 131.684 85.0002 131.994Z" fill="#1D2675"/>
<path fill-rule="evenodd" clip-rule="evenodd" d="M86.9914 134.924C86.9914 134.924 80.3398 139.564 79.6179 144.385C80.7523 147.17 87.1976 141.137 88.4867 139.177C88.4867 139.177 91.864 138.791 95.3445 133.428" fill="white"/>
<path fill-rule="evenodd" clip-rule="evenodd" d="M94.6957 133.007C94.9283 132.649 95.4073 132.547 95.7656 132.78C96.1239 133.012 96.2258 133.491 95.9933 133.849C94.4075 136.293 92.7103 137.957 91.0081 138.977C90.3975 139.343 89.8258 139.601 89.3069 139.769C89.2059 139.802 89.1124 139.829 89.0269 139.853L88.9422 139.874L88.9181 139.907C88.0418 141.084 86.2185 142.867 84.5644 144.101L84.4519 144.184C83.3463 144.995 82.3464 145.548 81.4963 145.77C80.3189 146.078 79.336 145.743 78.9016 144.677C78.8492 144.549 78.8324 144.408 78.853 144.271C79.1821 142.073 80.5875 139.835 82.7152 137.62C83.5525 136.749 84.4471 135.94 85.3418 135.214C85.616 134.991 85.8735 134.79 86.1093 134.612L86.3536 134.43C86.4399 134.366 86.5057 134.319 86.5488 134.289C86.8991 134.045 87.3813 134.131 87.6257 134.481C87.8607 134.818 87.7903 135.277 87.4731 135.529L87.2551 135.687L87.1346 135.776C86.8885 135.96 86.6136 136.174 86.3169 136.414C85.4686 137.103 84.6203 137.87 83.8307 138.692C82.0204 140.576 80.8066 142.449 80.4422 144.172L80.4275 144.245L80.4421 144.259C80.5518 144.357 80.7267 144.366 81.0475 144.288L81.1056 144.273C81.7282 144.111 82.5748 143.643 83.5366 142.937C85.2311 141.693 87.1773 139.761 87.8405 138.752C87.9568 138.576 88.14 138.455 88.3466 138.417L88.3987 138.409C88.4543 138.403 88.6023 138.371 88.8307 138.297C89.2393 138.165 89.7038 137.956 90.2127 137.65C91.709 136.753 93.236 135.256 94.6957 133.007Z" fill="#1D2675"/>
<path fill-rule="evenodd" clip-rule="evenodd" d="M265.372 61.1892C264.959 59.4876 257.844 41.9822 238.92 46.004C235.723 46.6743 232.733 47.4736 229.923 48.3501C217.058 36.2072 198.031 20.5579 186.378 21.5118C180.294 22.0017 174.544 23.2134 169.698 24.554C161.989 10.0134 145.18 4.00637 122.905 26.2814C107.204 41.9822 112.386 54.4861 119.888 61.9368C117.542 66.3454 112.953 81.8657 118.677 110.818C113.262 110.818 108.957 110.895 107.616 111.153C103.156 112.004 104.574 115.33 101.326 116.361C98.0773 117.392 97.0203 117.805 97.0203 117.805C97.0203 117.805 102.28 128.246 98.825 135.259C98.825 135.259 99.9335 136.135 103.234 137.038C106.534 137.94 105.244 141.317 109.756 141.988C112.541 142.4 133.037 142.349 148.299 142.245C155.466 142.194 160.752 136.032 160.21 129.303L160.262 129.329L160.184 129.02C160.107 128.143 159.901 127.292 159.617 126.416L158.612 121.724C158.612 121.724 162.866 128.633 163.716 130.438C164.567 132.242 166.527 132.938 167.996 133.506C172.482 135.207 182.073 138.61 186.533 138.404C186.61 138.404 186.687 138.404 186.765 138.378C188.879 138.507 191.07 138.095 193.055 137.063C193.055 137.063 152.862 93.2353 137.11 72.0947C134.635 67.6861 132.418 64.6954 130.536 62.7103C128.834 59.565 127.829 56.729 128.19 54.6923C129.376 48.1439 147.01 31.7212 150.542 30.7673C154.048 29.8134 155.827 29.4009 155.827 29.4009C155.827 29.4009 155.131 51.547 158.56 68.279C159.901 88.2337 186.43 109.065 218.063 125.307C221.028 125.977 249.362 108.859 249.852 99.0361C250.135 93.1837 250.058 83.5157 248.202 74.8275C253.126 73.822 256.967 72.1978 258.54 69.9032C265.269 60.1322 265.784 62.865 265.372 61.1892Z" fill="#F98B7C"/>
<path fill-rule="evenodd" clip-rule="evenodd" d="M102.692 136.78C99.1344 135.929 97.9227 135.078 97.9227 135.078C101.713 128.143 96.1438 117.908 96.1438 117.908C96.1438 117.908 97.2782 117.495 100.81 116.438C102.228 116.026 102.847 115.227 103.363 114.402C111.561 121.414 108.545 135.568 107.101 140.724C105.219 139.487 105.373 137.424 102.692 136.78Z" fill="#1D2675"/>
<path fill-rule="evenodd" clip-rule="evenodd" d="M251.527 77.2252C258.561 77.2252 264.263 71.8348 264.263 65.1854C264.263 58.5359 258.561 53.1455 251.527 53.1455C244.494 53.1455 238.792 58.5359 238.792 65.1854C238.792 71.8348 244.494 77.2252 251.527 77.2252Z" fill="#1D2675"/>
<path fill-rule="evenodd" clip-rule="evenodd" d="M119.888 61.7822C119.888 61.7822 117.826 65.6494 117.13 71.8111C122.209 72.533 126.823 71.2182 129.659 69.233C129.221 69.001 123.652 66.1908 119.888 61.7822Z" fill="#1D2675"/>
<path fill-rule="evenodd" clip-rule="evenodd" d="M170.265 24.5024C176.117 35.9492 173.307 47.2672 169.775 54.95C180.552 54.5375 191.741 21.5117 187.126 21.4602C183.388 21.4344 173.72 23.6258 170.239 24.4508C170.239 24.4508 170.239 24.4766 170.265 24.5024Z" fill="#1D2675"/>
<path fill-rule="evenodd" clip-rule="evenodd" d="M145.076 82.9227C139.972 76.0391 127.004 61.1891 128.19 54.6149C129.376 48.0665 147.01 31.6438 150.542 30.6899C154.048 29.736 155.827 29.3235 155.827 29.3235C155.827 29.3235 154.487 71.1922 164.412 83.2836C174.312 95.3493 193.03 112.932 209.916 120.898C209.916 120.898 190.4 131.778 186.378 129.664C182.356 127.55 150.155 89.8063 145.076 82.9227Z" fill="white"/>
<path fill-rule="evenodd" clip-rule="evenodd" d="M135.512 24.3218L143.813 30.8444L149.872 31.5405C149.872 31.5405 147.113 44.8694 148.712 61.9624C148.712 61.9624 135.306 61.0085 123.111 50.8507L139.869 38.2179L134.893 30.8444L135.512 24.3218Z" fill="white"/>
<path fill-rule="evenodd" clip-rule="evenodd" d="M134.123 30.7714L134.12 30.8309C134.117 30.9892 134.163 31.1451 134.252 31.2771L138.817 38.0421L122.645 50.2331C122.247 50.5332 122.233 51.1259 122.616 51.445C123.622 52.2828 124.655 53.0751 125.714 53.8234C130.723 57.3636 136.088 59.791 141.454 61.3094C143.333 61.8413 145.08 62.2218 146.65 62.4761L146.974 62.5271C147.343 62.5835 147.682 62.6294 147.988 62.6659L148.251 62.6957C148.44 62.716 148.576 62.7282 148.657 62.7339C149.133 62.7678 149.526 62.366 149.482 61.8904C148.673 53.2374 148.895 44.9249 149.764 37.4766L149.81 37.0854C149.99 35.5883 150.183 34.2542 150.376 33.1006L150.441 32.7154C150.462 32.5928 150.483 32.4759 150.503 32.365L150.593 31.8796L150.629 31.6973L150.637 31.6529C150.7 31.2241 150.397 30.8223 149.96 30.7722L144.119 30.1009L135.989 23.7137C135.508 23.3356 134.799 23.6396 134.742 24.2488L134.123 30.7714ZM136.148 25.805L143.335 31.4526L143.379 31.4842C143.482 31.5543 143.601 31.5986 143.725 31.6129L148.958 32.214L148.895 32.5785C148.88 32.6651 148.865 32.7543 148.85 32.8461L148.781 33.2688C148.619 34.2724 148.459 35.3974 148.307 36.6341L148.228 37.2906C147.393 44.4508 147.146 52.3935 147.823 60.6761L147.857 61.0903L147.78 61.0803C147.508 61.0438 147.214 61.0003 146.897 60.9491C145.384 60.704 143.695 60.3362 141.875 59.821C136.669 58.3479 131.463 55.9922 126.606 52.5601L126.265 52.3169C125.699 51.909 125.14 51.4878 124.589 51.0532L124.364 50.8742L140.334 38.8355L140.372 38.8048C140.668 38.5511 140.731 38.1127 140.51 37.7853L135.689 30.6413L136.148 25.805Z" fill="#1D2675"/>
<path fill-rule="evenodd" clip-rule="evenodd" d="M130.175 15.4274C130.175 15.4274 134.945 10.7867 138.373 15.8141C141.777 20.8672 134.145 23.6774 134.145 23.6774L128.809 17L130.175 15.4274Z" fill="white"/>
<path fill-rule="evenodd" clip-rule="evenodd" d="M131.067 13.792C130.688 14.0246 130.343 14.2732 130.037 14.5226L129.931 14.6102C129.798 14.7219 129.698 14.8121 129.636 14.8731C129.62 14.8881 129.605 14.9038 129.591 14.9201L128.225 16.4928C127.98 16.7747 127.971 17.1912 128.204 17.4829L133.541 24.1603C133.749 24.4204 134.1 24.5183 134.413 24.4032L134.498 24.371C134.682 24.2994 134.95 24.1846 135.278 24.027C135.912 23.722 136.546 23.3598 137.143 22.9388C139.928 20.9721 140.99 18.3983 139.074 15.4709L139.012 15.3783C138.218 14.2133 137.297 13.4367 136.272 13.031C134.552 12.3501 132.765 12.7491 131.067 13.792ZM135.703 14.4693C136.399 14.7451 137.056 15.2878 137.664 16.1492L137.732 16.2462C139.165 18.3735 138.459 20.1156 136.25 21.6753C135.73 22.0424 135.169 22.3629 134.607 22.633L134.491 22.688L134.384 22.7375L129.815 17.0207L130.734 15.9635L130.783 15.919C130.848 15.8604 130.925 15.7941 131.014 15.7221C131.269 15.5139 131.559 15.3049 131.876 15.1103C133.201 14.2968 134.522 14.0019 135.703 14.4693Z" fill="#1D2675"/>
<path fill-rule="evenodd" clip-rule="evenodd" d="M103.44 15.7108C102.099 16.871 93.1015 24.889 99.3147 32.8811C105.528 40.8733 114.423 47.6538 118.805 50.4382C123.188 53.2226 137.729 35.1499 138.322 33.9124C138.915 32.6749 138.915 30.4835 138.915 30.4835L130.149 17.3866C130.175 17.4124 117.826 3.3874 103.44 15.7108Z" fill="white"/>
<path fill-rule="evenodd" clip-rule="evenodd" d="M102.937 15.1237L102.934 15.1262C102.25 15.7179 101.554 16.3823 100.781 17.2423C99.6254 18.5274 98.6227 19.9106 97.8588 21.3768C95.7343 25.4547 95.7544 29.5615 98.7043 33.3561C103.992 40.1572 112.034 47.0529 118.391 51.0912C120.795 52.6186 124.904 49.9183 130.37 44.3945L130.536 44.2263C134.135 40.5703 138.521 35.2878 139.019 34.2468C139.219 33.8306 139.366 33.3285 139.474 32.7545C139.569 32.2543 139.629 31.7252 139.662 31.1971L139.671 31.0446C139.684 30.8004 139.688 30.6072 139.688 30.4837C139.688 30.3305 139.643 30.1808 139.558 30.0535L130.792 16.9566L130.79 16.9576L130.764 16.9174L130.72 16.8642L130.575 16.7067L130.445 16.5707C130.353 16.4762 130.252 16.374 130.141 16.2651C129.67 15.8019 129.12 15.3075 128.497 14.8022C126.716 13.3574 124.701 12.1094 122.488 11.2197C116.123 8.66136 109.456 9.53872 102.937 15.1237ZM121.911 12.655C123.968 13.4822 125.854 14.6501 127.523 16.0036C128.106 16.4769 128.619 16.9387 129.057 17.3686L129.202 17.5125C129.248 17.5587 129.291 17.6031 129.332 17.6456L129.5 17.8225L129.536 17.8621L138.136 30.7112L138.133 30.8172C138.129 30.9066 138.124 31.0012 138.118 31.1001C138.088 31.5693 138.035 32.0374 137.954 32.468C137.869 32.9208 137.757 33.301 137.624 33.5785C137.232 34.3981 133.085 39.3993 129.644 42.9271L129.434 43.1412C124.54 48.1129 120.654 50.6963 119.22 49.7856C113.004 45.8362 105.093 39.0536 99.9255 32.4067C97.3824 29.1355 97.3654 25.6717 99.2306 22.0916C99.9286 20.7518 100.857 19.4715 101.931 18.2767C102.611 17.5212 103.226 16.9272 103.826 16.4005L103.943 16.2985C110.009 11.1019 116.064 10.305 121.911 12.655Z" fill="#1D2675"/>
<path fill-rule="evenodd" clip-rule="evenodd" d="M128.525 18.9079C128.525 20.4805 130.948 27.1063 132.547 29.7102C132.547 29.7102 125.534 33.2422 117.929 40.7188C117.929 40.7188 113.933 44.9469 112.798 47.061C112.798 47.061 120.636 54.0993 127.829 54.5891C135.022 55.079 140.951 46.9063 141.88 41.286C142.833 35.6657 142.266 34.0157 140.513 30.7672C138.76 27.5188 131.464 16.304 131.464 16.304L128.525 18.9079Z" fill="#A8ADD3"/>
<path fill-rule="evenodd" clip-rule="evenodd" d="M132.263 18.3148C132.263 18.3148 131.026 12.6687 128.267 8.28591C125.689 4.13513 120.61 2.22731 116.021 3.85153C112.18 5.21794 111.252 8.13122 111.252 8.13122C111.252 8.13122 109.266 0.706219 100.991 0.732001C98.0773 0.757782 95.2672 1.9695 93.282 4.10934C88.4094 9.34294 91.168 15.1437 91.168 15.1437C91.168 15.1437 75.8023 10.7093 70.6976 27.6992C70.182 29.4007 70.5945 32.314 71.1101 34.0414C74.2555 44.4312 94.2875 40.2289 101.145 34.557C108.699 28.3179 111.561 23.1101 112.077 19.2172C111.458 21.8211 123.678 30.2 132.263 18.3148Z" fill="#1D2675"/>
<path fill-rule="evenodd" clip-rule="evenodd" d="M128.267 39.8322C128.81 39.9285 129.179 40.4347 129.11 40.9766L129.028 41.4718L128.972 41.8327C128.935 42.0788 128.898 42.3352 128.863 42.5974C128.798 43.0881 128.743 43.564 128.702 44.0107C128.681 44.2426 128.664 44.4639 128.652 44.6731C128.618 45.2416 128.13 45.675 127.561 45.6411C126.993 45.6071 126.559 45.1187 126.593 44.5502C126.607 44.3189 126.626 44.0766 126.648 43.8244C126.692 43.3465 126.75 42.8424 126.819 42.3246C126.855 42.05 126.894 41.7818 126.933 41.5242L127.004 41.0704L127.071 40.6676C127.171 40.1068 127.706 39.7328 128.267 39.8322Z" fill="#1D2675"/>
<path fill-rule="evenodd" clip-rule="evenodd" d="M114.317 37.1575C114.745 36.8119 115.366 36.8654 115.73 37.2698L115.767 37.3129L120.626 43.338L121.549 41.7481C121.825 41.2714 122.425 41.0991 122.91 41.3475L122.958 41.3738C123.435 41.6504 123.607 42.2504 123.359 42.7353L123.333 42.7833L121.657 45.6708C121.303 46.2808 120.46 46.3599 119.997 45.8416L119.962 45.8006L114.161 38.6076C113.804 38.1643 113.873 37.515 114.317 37.1575Z" fill="#1D2675"/>
<path fill-rule="evenodd" clip-rule="evenodd" d="M113.256 40.9908C113.616 40.6262 113.448 39.8763 112.881 39.3158C112.314 38.7553 111.562 38.5966 111.202 38.9612C110.841 39.3258 111.009 40.0757 111.576 40.6362C112.143 41.1966 112.895 41.3554 113.256 40.9908Z" fill="#1D2675"/>
<path fill-rule="evenodd" clip-rule="evenodd" d="M120.603 35.3152C120.964 34.9506 120.796 34.2007 120.229 33.6403C119.662 33.0798 118.91 32.921 118.55 33.2856C118.189 33.6502 118.357 34.4001 118.924 34.9606C119.491 35.5211 120.243 35.6799 120.603 35.3152Z" fill="#1D2675"/>
<path fill-rule="evenodd" clip-rule="evenodd" d="M117.981 25.4819C118.55 25.4819 119.012 25.9436 119.012 26.5132C119.012 27.4555 118.056 28.3409 116.812 28.8906C115.485 29.4768 113.997 29.5861 112.646 29.0426C112.117 28.8301 111.861 28.2295 112.074 27.7011C112.28 27.1892 112.85 26.9328 113.366 27.1105L113.415 27.1291C114.207 27.4474 115.128 27.3797 115.978 27.004C116.329 26.849 116.635 26.6528 116.84 26.4628C116.883 26.4225 116.919 26.3856 116.946 26.3545L116.966 26.3299L116.969 26.3115C117.06 25.8548 117.452 25.5067 117.929 25.4832L117.981 25.4819Z" fill="#1D2675"/>
<path fill-rule="evenodd" clip-rule="evenodd" d="M106.312 33.2086C106.801 32.9156 107.434 33.074 107.727 33.5624C108.011 34.035 107.872 34.6435 107.42 34.9478L107.348 34.9941C107.311 35.0183 107.269 35.0483 107.222 35.0834C107.085 35.1863 106.948 35.3064 106.822 35.4392C106.35 35.9371 106.209 36.3892 106.459 36.8999L106.487 36.9549C106.758 37.4561 106.571 38.0817 106.069 38.3521C105.568 38.6225 104.942 38.4354 104.672 37.9341C103.892 36.4889 104.286 35.1171 105.325 34.0205C105.536 33.798 105.759 33.6032 105.983 33.4348L106.082 33.3621C106.176 33.2947 106.254 33.2434 106.312 33.2086Z" fill="#1D2675"/>
<path fill-rule="evenodd" clip-rule="evenodd" d="M229.474 47.2496C229.897 47.1872 230.29 47.4791 230.353 47.9016C230.413 48.3091 230.144 48.6893 229.745 48.7719L229.526 48.8083L229.314 48.8461C229.167 48.8728 229.006 48.904 228.83 48.9399C228.121 49.0842 227.33 49.2726 226.478 49.5098C224.042 50.1876 221.607 51.1193 219.34 52.3414C215.314 54.5119 212.273 57.3542 210.591 60.9495C210.41 61.3364 209.95 61.5034 209.563 61.3223C209.176 61.1413 209.009 60.681 209.19 60.294C211.029 56.3624 214.311 53.2957 218.606 50.9798C220.983 49.6982 223.524 48.7263 226.063 48.0196C226.878 47.7928 227.64 47.6086 228.333 47.463L228.521 47.4242C228.708 47.3861 228.88 47.3529 229.036 47.3243L229.355 47.2686C229.407 47.26 229.447 47.2537 229.474 47.2496Z" fill="#1D2675"/>
<path fill-rule="evenodd" clip-rule="evenodd" d="M190.965 72.7829C191.283 72.4972 191.772 72.5231 192.058 72.8406L192.417 73.2373C198.266 79.6497 203.17 82.8238 207.309 83.4067C210.387 83.8403 212.822 82.8875 215.341 80.7756L215.525 80.6191C216.131 80.0926 217.64 78.6756 217.638 78.6774C218.476 77.9228 219.032 77.5567 219.654 77.4876C220.078 77.4405 220.46 77.7464 220.508 78.1709C220.553 78.5803 220.27 78.9505 219.869 79.0187L219.824 79.0251C219.654 79.044 219.324 79.2544 218.802 79.7123L218.641 79.8574C218.409 80.0758 216.997 81.3977 216.462 81.8534C213.594 84.2959 210.723 85.4498 207.093 84.9384C202.45 84.2845 197.137 80.7992 190.908 73.8752C190.622 73.5576 190.648 73.0686 190.965 72.7829Z" fill="#1D2675"/>
<path fill-rule="evenodd" clip-rule="evenodd" d="M133.021 70.4108C133.424 70.4988 133.684 70.8853 133.62 71.2869L133.554 71.6062L133.47 72.0354C133.447 72.1518 133.424 72.2748 133.4 72.4042L133.326 72.8107C133.19 73.5693 133.055 74.4006 132.928 75.2904C132.429 78.7889 132.165 82.3181 132.262 85.6003C132.393 90.0304 133.177 93.6009 134.718 95.9867C134.949 96.3456 134.846 96.8243 134.487 97.056C134.129 97.2877 133.65 97.1847 133.418 96.8258C131.694 94.1555 130.854 90.3325 130.716 85.6459C130.616 82.2642 130.886 78.651 131.397 75.0718C131.55 73.9981 131.715 73.007 131.879 72.1217L131.951 71.7419L132.051 71.2375L132.101 71.0012C132.192 70.5839 132.604 70.3196 133.021 70.4108Z" fill="#1D2675"/>
<path fill-rule="evenodd" clip-rule="evenodd" d="M162.804 60.4505C163.226 60.5163 163.515 60.9119 163.449 61.3339L163.415 61.5672L163.377 61.8366C163.364 61.9324 163.35 62.0342 163.336 62.1419L163.273 62.6325C163.193 63.2813 163.113 63.9982 163.038 64.7736C162.601 69.2638 162.469 73.9158 162.826 78.25C163.283 83.7885 164.503 88.1988 166.607 91.0482C166.861 91.3918 166.788 91.8761 166.445 92.1298C166.101 92.3836 165.617 92.3108 165.363 91.9672C163.053 88.8388 161.762 84.1761 161.285 78.3769C160.919 73.9378 161.053 69.1986 161.498 64.6239L161.544 64.1573C161.607 63.5448 161.672 62.9712 161.738 62.4414L161.788 62.0523C161.812 61.8614 161.836 61.6867 161.858 61.5287L161.921 61.0955C161.987 60.6735 162.382 60.3847 162.804 60.4505Z" fill="#1D2675"/>
<path fill-rule="evenodd" clip-rule="evenodd" d="M230.155 67.3765C217.161 67.3765 206.642 79.8288 206.642 95.1687V107.08H253.693V95.1687C253.667 79.8288 243.123 67.3765 230.155 67.3765Z" fill="#1D2675"/>
<rect x="250.805" y="103.393" width="14.618" height="94.9781" fill="#454B89"/>
<path fill-rule="evenodd" clip-rule="evenodd" d="M184.883 107.08H254.492C255.884 107.08 256.993 105.945 256.993 104.579V104.527C256.993 103.135 255.859 102.027 254.492 102.027H184.883C183.491 102.027 182.382 103.161 182.382 104.527V104.579C182.356 105.945 183.491 107.08 184.883 107.08Z" fill="#454B89"/>
<path fill-rule="evenodd" clip-rule="evenodd" d="M277.18 67.3765H230.129C243.123 67.3765 253.641 79.8804 253.641 95.3233V107.286H277.154H300.666V95.3233C300.718 79.8804 290.173 67.3765 277.18 67.3765Z" fill="#454B89"/>
<path fill-rule="evenodd" clip-rule="evenodd" d="M326.447 85.5522L326.293 105.919L320.183 98.7007L314.769 105.094V85.5522H326.447Z" fill="#F98B7C"/>
<path fill-rule="evenodd" clip-rule="evenodd" d="M330.057 84.7788C330.484 84.7788 330.83 85.1251 330.83 85.5522C330.83 85.9641 330.508 86.3008 330.102 86.3244L330.057 86.3257H289.658C289.231 86.3257 288.884 85.9794 288.884 85.5522C288.884 85.1403 289.206 84.8036 289.612 84.7801L289.658 84.7788H330.057Z" fill="#1D2675"/>
<path fill-rule="evenodd" clip-rule="evenodd" d="M274.215 77.818L283.084 79.1071C283.084 79.1071 282.929 79.7774 284.914 80.8086C286.899 81.8141 288.137 80.6797 286.951 77.6891C285.765 74.6985 279.861 67.4024 279.861 67.4024L278.185 65.6235C272.771 60.8539 258.746 58.7399 257.715 58.7914C251.837 59.0493 249.207 66.6289 249.207 66.6289H257.689L258.875 68.4852C259.416 69.3102 260.035 70.0836 260.705 70.8055C261.221 71.3469 261.582 72.4297 259.571 74.1829C256.426 76.8899 258.102 78.9782 261.273 78.1274C264.418 77.2766 267.383 71.2696 267.383 71.2696L274.215 77.818Z" fill="white"/>
<path fill-rule="evenodd" clip-rule="evenodd" d="M257.709 58.0176L257.681 58.0186C254.876 58.1416 252.562 59.7258 250.706 62.2485C250.044 63.1491 249.487 64.1098 249.029 65.0705C248.892 65.3591 248.772 65.6305 248.668 65.8801L248.618 66.003C248.549 66.1759 248.501 66.3025 248.476 66.3753L248.463 66.4184C248.323 66.9074 248.69 67.4023 249.207 67.4023H257.265L258.223 68.9015C258.732 69.6774 259.312 70.4206 259.96 71.137L260.139 71.3317C260.301 71.5025 260.364 71.6743 260.324 71.9075C260.253 72.3162 259.89 72.8624 259.142 73.5302L259.063 73.5997C257.353 75.0709 256.694 76.6456 257.378 77.867C258.025 79.0223 259.637 79.3669 261.473 78.8743C262.974 78.4682 264.43 77.1506 265.863 75.2074C266.444 74.4206 266.981 73.5812 267.464 72.7421L267.583 72.5322L273.68 78.3763L273.719 78.412C273.829 78.5032 273.962 78.5627 274.103 78.5833L282.48 79.8007L282.484 79.808C282.777 80.3463 283.442 80.9153 284.557 81.4949C285.844 82.1464 287.049 82.1089 287.734 81.219C288.375 80.3868 288.323 79.0526 287.67 77.4039C287.241 76.3229 286.264 74.7311 284.857 72.7288C284.626 72.4001 284.385 72.0629 284.135 71.7183C283.331 70.6096 282.471 69.4725 281.611 68.3685L281.176 67.8137L280.679 67.1857L280.462 66.9157C280.45 66.9007 280.437 66.8861 280.424 66.8719L278.748 65.093C278.732 65.0756 278.714 65.0589 278.696 65.043C276.226 62.867 271.992 61.0942 266.727 59.7099L266.252 59.5868C262.716 58.686 258.664 57.9906 257.709 58.0176ZM258.572 59.6418L258.922 59.6883C259.371 59.7504 259.893 59.8318 260.456 59.9286C262.226 60.2329 264.188 60.649 266.112 61.1481L266.329 61.2048C271.308 62.5137 275.315 64.1796 277.577 66.1192L277.649 66.1823L279.278 67.9115L279.569 68.2755C279.817 68.5867 280.093 68.9372 280.391 69.3191C281.241 70.4101 282.09 71.5335 282.883 72.6263C283.067 72.8802 283.246 73.1299 283.419 73.3749L283.771 73.8757C285.014 75.6607 285.879 77.0837 286.232 77.9741C286.705 79.1688 286.737 79.9791 286.509 80.2755C286.369 80.4565 285.956 80.4693 285.263 80.1185C284.544 79.7447 284.111 79.4155 283.91 79.1576L283.893 79.1342L283.866 79.0956C283.862 79.09 283.859 79.0848 283.856 79.0799L283.855 79.0554C283.832 78.7016 283.565 78.3954 283.195 78.3416L274.571 77.088L267.918 70.7111C267.552 70.3607 266.959 70.4521 266.712 70.8843L266.575 71.1489L266.545 71.2071C266.423 71.437 266.282 71.694 266.123 71.9711C265.667 72.7627 265.161 73.5539 264.619 74.2891C263.377 75.9727 262.141 77.0911 261.071 77.3807C259.842 77.7104 258.958 77.5214 258.728 77.1114C258.496 76.6962 258.838 75.857 260 74.8345L260.076 74.769C262.071 73.0296 262.351 71.412 261.265 70.272C260.609 69.5645 260.023 68.8246 259.522 68.0607L258.341 66.2124L258.311 66.1691C258.166 65.9727 257.935 65.8554 257.689 65.8554H250.369L250.426 65.7358C250.844 64.8581 251.353 63.9803 251.953 63.1649C253.529 61.0216 255.42 59.7091 257.632 59.5703L257.753 59.5638L257.784 59.5637C257.892 59.5663 258.186 59.5931 258.572 59.6418Z" fill="#1D2675"/>
<path fill-rule="evenodd" clip-rule="evenodd" d="M280.222 72.3008C280.66 72.8164 284.991 78.4367 284.037 85.243C283.548 88.6461 280.866 88.0789 279.552 85.1398" fill="white"/>
<path fill-rule="evenodd" clip-rule="evenodd" d="M279.721 71.7115C280.046 71.4348 280.534 71.4744 280.811 71.7999C281.502 72.6124 282.536 74.2238 283.36 76.1021C284.662 79.068 285.246 82.1943 284.803 85.3532C284.521 87.3149 283.479 88.4751 282.032 88.3398C280.781 88.2229 279.585 87.1092 278.845 85.4557C278.671 85.0658 278.846 84.6083 279.236 84.4339C279.626 84.2594 280.083 84.4341 280.257 84.824C280.792 86.0178 281.571 86.7431 282.176 86.7997C282.665 86.8454 283.094 86.3673 283.271 85.1356C283.67 82.2926 283.138 79.4456 281.943 76.7237C281.508 75.732 281.009 74.8166 280.486 74.0011C280.19 73.5398 279.907 73.1454 279.721 72.9106L279.632 72.8017C279.356 72.4762 279.395 71.9881 279.721 71.7115Z" fill="#1D2675"/>
<path fill-rule="evenodd" clip-rule="evenodd" d="M276.87 71.8108C276.87 71.8108 279.551 75.3944 279.835 80.7827C280.17 87.2795 279.242 88.878 277.876 88.878C276.509 88.8522 274.936 88.4913 274.988 86.5061" fill="white"/>
<path fill-rule="evenodd" clip-rule="evenodd" d="M276.407 71.1916C276.749 70.9357 277.234 71.0055 277.49 71.3475L277.563 71.4487C277.671 71.6023 277.821 71.8304 278 72.129C278.368 72.741 278.734 73.4471 279.075 74.2395C279.927 76.2184 280.484 78.4013 280.608 80.7429L280.626 81.1153C280.9 87.1273 280.103 89.6515 277.861 89.6513C276.911 89.6334 276.132 89.4759 275.496 89.0863C274.64 88.562 274.184 87.6767 274.215 86.4861C274.226 86.0591 274.581 85.7219 275.008 85.733C275.42 85.7437 275.748 86.0743 275.761 86.4808L275.761 86.5262C275.732 87.6736 276.389 88.0764 277.876 88.1046C278.25 88.1046 278.507 87.8682 278.752 87.0459C279.102 85.8721 279.219 83.8448 279.063 80.8234C278.95 78.6771 278.438 76.6706 277.654 74.8512C277.342 74.1248 277.007 73.48 276.674 72.9253C276.597 72.7974 276.525 72.6808 276.457 72.576L276.316 72.3658L276.251 72.2742C275.995 71.9322 276.065 71.4475 276.407 71.1916Z" fill="#1D2675"/>
<path fill-rule="evenodd" clip-rule="evenodd" d="M273.209 71.8109C274.266 73.1 276.123 79.9578 275.684 84.5984C275.246 89.2133 270.451 86.4547 270.348 83.6188C270.27 80.9633 270.399 73.7703 267.692 71.5273" fill="white"/>
<path fill-rule="evenodd" clip-rule="evenodd" d="M267.096 71.0339C267.369 70.705 267.856 70.6593 268.185 70.9318C269.616 72.1172 270.404 74.3606 270.793 77.4765L270.837 77.8417C270.992 79.1954 271.046 80.247 271.091 82.2333L271.117 83.4852C271.118 83.522 271.119 83.5569 271.12 83.5907C271.158 84.6139 272.102 85.7873 273.158 86.177C274.137 86.5382 274.763 86.1156 274.914 84.5257C275.107 82.4859 274.843 79.7953 274.252 77.1144L274.197 76.8694C273.705 74.7171 273.056 72.8829 272.635 72.3312L272.611 72.3014C272.34 71.9711 272.388 71.4837 272.719 71.2129C273.049 70.942 273.536 70.9902 273.807 71.3205C275.245 73.0743 276.858 80.3909 276.454 84.6716C276.209 87.2486 274.578 88.3497 272.622 87.6283C271.004 87.0313 269.636 85.3302 269.574 83.6413L269.56 83.0342L269.541 82.1388C269.497 80.2386 269.442 79.233 269.289 77.9212L269.277 77.8246C268.939 74.9919 268.255 72.9983 267.198 72.1229C266.87 71.8504 266.824 71.3628 267.096 71.0339Z" fill="#1D2675"/>
<path fill-rule="evenodd" clip-rule="evenodd" d="M180.474 182.696C178.953 181.69 175.138 183.083 171.064 185.094C172.405 184.114 173.72 183.057 174.957 182C181.093 176.74 178.721 172.59 175.215 171.713C173.771 171.352 170.884 173.363 167.893 175.941C171.502 165.474 161.86 161.607 159.308 161.349C157.838 161.194 156.627 161.323 155.776 161.478C153.095 157.998 149.434 153.795 148.402 153.666C145.85 153.357 145.102 164.443 145.051 165.242L142.756 166.067C142.06 166.325 141.416 166.634 140.797 167.021C137.652 164.443 134.042 161.839 133.114 161.916C130.845 162.123 132.031 171.971 132.418 174.884C132.134 175.348 131.902 175.838 131.696 176.328C131.593 176.586 131.516 176.869 131.438 177.127L115.402 198.371H166.913V196.901C168.434 196.386 170.471 195.69 173.359 194.89C181.763 192.519 184.084 185.094 180.474 182.696Z" fill="#F98B7C"/>
<path fill-rule="evenodd" clip-rule="evenodd" d="M133.734 162.604C134.009 162.277 134.497 162.236 134.824 162.511C135.151 162.786 135.193 163.274 134.917 163.601L134.931 163.584C134.933 163.583 134.933 163.582 134.933 163.582L134.929 163.591C134.899 163.644 134.865 163.722 134.83 163.826C134.352 165.253 134.64 168.024 136.363 172.519C136.516 172.918 136.316 173.365 135.917 173.518C135.519 173.671 135.071 173.472 134.918 173.073L134.792 172.741C133.063 168.128 132.768 165.11 133.364 163.334C133.48 162.986 133.614 162.747 133.734 162.604Z" fill="#1D2675"/>
<path fill-rule="evenodd" clip-rule="evenodd" d="M147.935 154.384C148.037 153.969 148.456 153.716 148.87 153.817C149.27 153.916 149.521 154.309 149.447 154.708L149.379 155.011C149.37 155.05 149.362 155.092 149.352 155.136C149.287 155.452 149.221 155.807 149.159 156.193C148.948 157.514 148.84 158.849 148.89 160.082C148.959 161.811 149.337 163.153 150.042 163.96C150.323 164.281 150.29 164.77 149.968 165.051C149.647 165.332 149.158 165.299 148.877 164.977C147.893 163.851 147.427 162.193 147.344 160.144C147.29 158.796 147.406 157.364 147.632 155.949C147.688 155.597 147.747 155.268 147.808 154.968L147.865 154.692C147.895 154.552 147.919 154.448 147.935 154.384Z" fill="#1D2675"/>
<path fill-rule="evenodd" clip-rule="evenodd" d="M143.272 167.356L145.412 166.145L143.272 167.356Z" fill="#F98B7C"/>
<path fill-rule="evenodd" clip-rule="evenodd" d="M150.168 172.683C150.708 172.394 150.782 171.478 150.332 170.637C149.883 169.796 149.08 169.347 148.54 169.636C148 169.925 147.927 170.841 148.377 171.682C148.826 172.523 149.628 172.972 150.168 172.683Z" fill="#1D2675"/>
<path fill-rule="evenodd" clip-rule="evenodd" d="M158.006 169.538C158.546 169.249 158.62 168.333 158.17 167.492C157.72 166.65 156.918 166.202 156.378 166.491C155.838 166.779 155.765 167.695 156.214 168.537C156.664 169.378 157.466 169.826 158.006 169.538Z" fill="#1D2675"/>
<path fill-rule="evenodd" clip-rule="evenodd" d="M156.73 171.739L155.956 173.518C155.853 173.776 155.518 173.93 155.234 173.827L153.456 173.312C153.017 173.183 153.017 172.667 153.43 172.461L155.982 171.198C156.446 170.966 156.91 171.326 156.73 171.739Z" fill="#1D2675"/>
<path fill-rule="evenodd" clip-rule="evenodd" d="M155.125 172.451C155.486 172.255 155.935 172.378 156.149 172.722L156.173 172.763C156.51 173.388 157.774 173.904 159.153 173.904C159.58 173.904 159.927 174.251 159.927 174.678C159.927 175.105 159.58 175.451 159.153 175.451C157.265 175.451 155.471 174.718 154.812 173.499C154.609 173.123 154.749 172.654 155.125 172.451Z" fill="#1D2675"/>
<path fill-rule="evenodd" clip-rule="evenodd" d="M155.176 172.425C155.552 172.222 156.021 172.362 156.224 172.738C156.924 174.031 156.555 175.651 155.289 177.182C155.017 177.511 154.529 177.557 154.2 177.285C153.871 177.013 153.825 176.525 154.097 176.196C154.978 175.131 155.21 174.179 154.887 173.52L154.864 173.473C154.66 173.097 154.8 172.628 155.176 172.425Z" fill="#1D2675"/>
<path fill-rule="evenodd" clip-rule="evenodd" d="M137.774 175.777C140.681 174.535 143.75 174.411 146.573 174.937L146.769 174.975C147.244 175.07 147.599 175.162 147.811 175.23C148.219 175.359 148.444 175.794 148.315 176.201C148.19 176.594 147.781 176.817 147.387 176.717L147.248 176.676C147.204 176.664 147.149 176.649 147.082 176.632C146.853 176.573 146.588 176.514 146.289 176.458C143.74 175.983 140.967 176.095 138.381 177.199C136.278 178.098 134.464 179.605 133.015 181.829C132.781 182.187 132.302 182.288 131.944 182.055C131.586 181.822 131.485 181.343 131.719 180.985C133.337 178.501 135.391 176.794 137.774 175.777Z" fill="#1D2675"/>
<path fill-rule="evenodd" clip-rule="evenodd" d="M140.174 177.924C142.862 176.606 145.646 176.239 147.965 176.384L148.158 176.398C148.211 176.403 148.254 176.407 148.285 176.411C148.709 176.46 149.013 176.843 148.964 177.268C148.917 177.677 148.559 177.974 148.153 177.951L147.952 177.934C147.927 177.932 147.899 177.93 147.868 177.928C145.794 177.798 143.264 178.132 140.855 179.313C138.28 180.576 136.269 182.651 135.016 185.721C134.855 186.117 134.403 186.306 134.008 186.145C133.612 185.984 133.422 185.532 133.584 185.137C134.985 181.705 137.268 179.349 140.174 177.924Z" fill="#1D2675"/>
<path fill-rule="evenodd" clip-rule="evenodd" d="M168.168 174.542C168.258 174.124 168.669 173.858 169.087 173.948C169.504 174.038 169.77 174.449 169.68 174.867C169.047 177.814 167.185 181.674 164.204 184.788C159.786 189.402 153.561 191.811 145.35 191.15C144.924 191.116 144.606 190.743 144.641 190.317C144.675 189.891 145.048 189.574 145.474 189.608C153.218 190.231 158.989 187.998 163.087 183.718C165.854 180.828 167.591 177.226 168.168 174.542Z" fill="#1D2675"/>
<path fill-rule="evenodd" clip-rule="evenodd" d="M166.236 163.292C169.142 160.12 173.001 158.38 177.868 158.852C178.293 158.893 178.604 159.271 178.563 159.696C178.522 160.121 178.144 160.433 177.718 160.391C173.371 159.97 169.973 161.503 167.377 164.337C166.564 165.223 165.893 166.175 165.357 167.125C165.194 167.415 165.054 167.686 164.936 167.933L164.887 168.037C164.838 168.143 164.801 168.227 164.776 168.287L164.747 168.358C164.592 168.756 164.144 168.953 163.746 168.799C163.348 168.644 163.15 168.196 163.305 167.798L163.33 167.735C163.364 167.652 163.415 167.534 163.484 167.386C163.627 167.077 163.802 166.734 164.01 166.365C164.601 165.318 165.339 164.271 166.236 163.292Z" fill="white"/>
<path fill-rule="evenodd" clip-rule="evenodd" d="M166.961 165.611C170.527 162.663 174.885 161.432 179.921 162.928C180.331 163.049 180.564 163.48 180.442 163.889C180.321 164.299 179.89 164.532 179.481 164.411C174.985 163.075 171.143 164.161 167.946 166.804C167.157 167.456 166.472 168.156 165.896 168.854C165.724 169.062 165.574 169.257 165.444 169.434L165.33 169.594C165.283 169.66 165.25 169.71 165.23 169.741L165.221 169.754C164.993 170.115 164.515 170.223 164.154 169.995C163.793 169.766 163.685 169.289 163.914 168.928L163.968 168.843C164.118 168.617 164.363 168.282 164.703 167.87C165.339 167.099 166.091 166.33 166.961 165.611Z" fill="white"/>
<path fill-rule="evenodd" clip-rule="evenodd" d="M392.731 197.598C393.158 197.598 393.505 197.944 393.505 198.371C393.505 198.783 393.183 199.12 392.777 199.143L392.731 199.145H1.42334C0.996182 199.145 0.649902 198.798 0.649902 198.371C0.649902 197.959 0.971889 197.622 1.37789 197.599L1.42334 197.598H392.731Z" fill="#1D2675"/>
</svg>
