<svg width="24" height="24" viewBox="0 0 24 24" fill="none" xmlns="http://www.w3.org/2000/svg">
<rect width="24" height="24" rx="4" fill="white" fill-opacity="0.9"/>
<path d="M19.154 6.46154H16.077V5.84615C16.075 5.35715 15.8799 4.88875 15.5341 4.54296C15.1883 4.19718 14.7199 4.00202 14.2309 4H10.5386C10.0496 4.00202 9.58118 4.19718 9.23539 4.54296C8.88961 4.88875 8.69445 5.35715 8.69243 5.84615V6.46154H5.61551C5.4523 6.46154 5.29577 6.52637 5.18036 6.64178C5.06496 6.75719 5.00012 6.91371 5.00012 7.07692C5.00012 7.24013 5.06496 7.39666 5.18036 7.51207C5.29577 7.62747 5.4523 7.69231 5.61551 7.69231H6.23089V18.7692C6.23089 19.0957 6.36056 19.4087 6.59138 19.6395C6.82219 19.8703 7.13524 20 7.46166 20H17.3078C17.6342 20 17.9473 19.8703 18.1781 19.6395C18.4089 19.4087 18.5386 19.0957 18.5386 18.7692V7.69231H19.154C19.3172 7.69231 19.4737 7.62747 19.5891 7.51207C19.7045 7.39666 19.7694 7.24013 19.7694 7.07692C19.7694 6.91371 19.7045 6.75719 19.5891 6.64178C19.4737 6.52637 19.3172 6.46154 19.154 6.46154ZM9.9232 5.84615C9.9232 5.68294 9.98803 5.52642 10.1034 5.41101C10.2188 5.2956 10.3754 5.23077 10.5386 5.23077H14.2309C14.3941 5.23077 14.5506 5.2956 14.666 5.41101C14.7814 5.52642 14.8463 5.68294 14.8463 5.84615V6.46154H9.9232V5.84615ZM17.3078 18.7692H7.46166V7.69231H17.3078V18.7692ZM11.154 10.7692V15.6923C11.154 15.8555 11.0891 16.012 10.9737 16.1275C10.8583 16.2429 10.7018 16.3077 10.5386 16.3077C10.3754 16.3077 10.2188 16.2429 10.1034 16.1275C9.98803 16.012 9.9232 15.8555 9.9232 15.6923V10.7692C9.9232 10.606 9.98803 10.4495 10.1034 10.3341C10.2188 10.2187 10.3754 10.1538 10.5386 10.1538C10.7018 10.1538 10.8583 10.2187 10.9737 10.3341C11.0891 10.4495 11.154 10.606 11.154 10.7692ZM14.8463 10.7692V15.6923C14.8463 15.8555 14.7814 16.012 14.666 16.1275C14.5506 16.2429 14.3941 16.3077 14.2309 16.3077C14.0677 16.3077 13.9112 16.2429 13.7957 16.1275C13.6803 16.012 13.6155 15.8555 13.6155 15.6923V10.7692C13.6155 10.606 13.6803 10.4495 13.7957 10.3341C13.9112 10.2187 14.0677 10.1538 14.2309 10.1538C14.3941 10.1538 14.5506 10.2187 14.666 10.3341C14.7814 10.4495 14.8463 10.606 14.8463 10.7692Z" fill="#393D4E"/>
</svg>
