<svg width="18" height="18" viewBox="0 0 18 18" fill="none" xmlns="http://www.w3.org/2000/svg">
<path fill-rule="evenodd" clip-rule="evenodd" d="M3.84999 8.14182C3.37594 8.14182 2.99165 8.52611 2.99165 9.00015C2.99165 9.4742 3.37594 9.85849 3.84999 9.85849L8.14158 9.8585L8.14159 14.1503C8.14159 14.6243 8.52588 15.0086 8.99993 15.0086C9.47397 15.0086 9.85826 14.6243 9.85826 14.1503L9.85826 9.8585L14.1501 9.8585C14.6241 9.8585 15.0084 9.47421 15.0084 9.00016C15.0084 8.52611 14.6241 8.14182 14.1501 8.14182L9.85826 8.14182L9.85826 3.85019C9.85826 3.37614 9.47397 2.99185 8.99992 2.99185C8.52587 2.99185 8.14158 3.37614 8.14158 3.85019L8.14158 8.14182L3.84999 8.14182Z" fill="#393D4E"/>
</svg>
