<svg width="169" height="97" viewBox="0 0 169 97" fill="none" xmlns="http://www.w3.org/2000/svg">
<path fill-rule="evenodd" clip-rule="evenodd" d="M140.085 83.0062C138.368 83.9662 135.191 85.1155 132.568 82.5465C129.863 79.9099 127.93 79.9639 127.024 80.2208C126.754 80.1668 126.456 80.2885 126.307 80.5454L120.615 90.889C120.169 91.7003 119.303 92.2141 118.37 92.2141H99.8329C99.4679 92.2141 99.1704 92.5115 99.1704 92.8766C99.1704 93.2417 99.4679 93.5392 99.8329 93.5392H118.37C119.79 93.5392 121.088 92.7685 121.778 91.5245L125.104 85.467C126.348 85.6293 128.038 86.1837 129.62 87.7386C132.676 90.7132 136.259 89.0366 137.57 88.2389C137.895 88.0496 138.152 87.7656 138.341 87.4411L140.572 83.5065C140.775 83.182 140.41 82.8169 140.085 83.0062Z" fill="#454B89"/>
<path fill-rule="evenodd" clip-rule="evenodd" d="M48.0877 71.04C48.0066 70.8642 47.7902 70.7966 47.628 70.8913C47.5739 70.9183 47.006 71.2699 44.5316 72.5003L43.3959 73.0547C38.0009 75.6507 30.037 78.9499 26.8054 77.5842C26.6702 77.5302 26.5215 77.5572 26.4269 77.6654C26.4133 77.6789 25.2505 78.9364 22.7085 80.1262C20.3694 81.2214 16.3401 82.4654 10.4584 82.1814C10.2556 82.1679 10.0798 82.3437 10.1204 82.56C10.1474 82.7223 10.2826 82.8304 10.4449 82.844C10.9722 82.871 11.4725 82.8845 11.9728 82.8845L12.2161 84.48C12.2702 84.8316 12.7435 84.9262 12.9192 84.6152L13.9469 82.8304C14.6635 82.7899 15.353 82.7223 16.0156 82.6411L16.3942 84.0203C16.4888 84.3583 16.9621 84.3989 17.1108 84.0879L17.9221 82.3437C18.4764 82.2355 18.9902 82.1138 19.477 81.9921L19.788 83.1414C19.8826 83.4795 20.3559 83.52 20.5046 83.209L21.3429 81.4242C21.9649 81.2079 22.5057 80.978 22.9925 80.7482L23.2088 81.5459C23.3035 81.884 23.7767 81.9245 23.9254 81.6135L24.7638 79.8017C25.859 79.1392 26.508 78.5578 26.7919 78.2738C27.4815 78.5172 28.3198 78.5848 29.2663 78.5307L29.8342 79.9369C29.9694 80.2614 30.4156 80.2479 30.5373 79.9234L31.1592 78.2873C31.7542 78.1792 32.3626 78.044 32.9846 77.8682L33.2415 78.9634C33.3226 79.3149 33.7959 79.369 33.9446 79.0445L34.8235 77.3138C35.4184 77.1245 36.0133 76.9082 36.6083 76.6918L36.8381 77.6789C36.9192 78.0169 37.3654 78.0845 37.5412 77.7871L38.5959 75.9347C39.1232 75.7183 39.6505 75.502 40.1778 75.2721L40.4347 76.2186C40.5294 76.5566 41.0026 76.5972 41.1514 76.2862L41.9897 74.4744C42.5576 74.2175 43.0984 73.9606 43.6257 73.7037L43.8285 74.4744C43.9232 74.8124 44.3964 74.853 44.5452 74.542L45.3159 72.8924C47.4116 71.8378 47.8038 71.5944 48.0066 71.4862C48.0877 71.3916 48.1688 71.2023 48.0877 71.04Z" fill="#454B89"/>
<path fill-rule="evenodd" clip-rule="evenodd" d="M64.1913 66.267C64.0561 66.213 63.9074 66.24 63.8127 66.3482C63.7992 66.3617 62.6364 67.6192 60.0944 68.809C57.7552 69.9042 53.726 71.1482 47.8443 70.8642C47.6414 70.8507 47.4657 71.0265 47.5062 71.2428C47.5333 71.4051 47.6685 71.5132 47.8307 71.5268C48.3581 71.5538 48.8583 71.5673 49.3586 71.5673L49.5885 73.1358C49.6426 73.5008 50.1293 73.5955 50.3186 73.271L51.3192 71.5132C52.0358 71.4727 52.7254 71.4051 53.3879 71.3239L53.753 72.676C53.8476 73.0276 54.3344 73.0682 54.4831 72.7437L55.2809 71.0265C55.8353 70.9183 56.3491 70.7966 56.8358 70.6749L57.2685 71.973C57.3902 72.3245 57.8769 72.338 58.0122 71.9865L58.7017 70.107C59.3237 69.8907 59.8645 69.6608 60.3513 69.431L60.5541 70.2017C60.6488 70.5532 61.1355 70.5938 61.2843 70.2693L62.1091 68.498C63.2043 67.8355 63.8533 67.2541 64.1372 66.9701" fill="#454B89"/>
<path fill-rule="evenodd" clip-rule="evenodd" d="M150.335 73.8389C150.267 73.6631 150.064 73.5685 149.902 73.6496C144.696 75.8265 139.22 74.7313 133.636 70.418C129.431 67.173 126.754 63.2113 126.727 63.1842C126.618 63.0355 126.416 62.9949 126.267 63.0896C126.118 63.1978 126.078 63.4006 126.172 63.5493C126.186 63.5763 126.97 64.7392 128.363 66.3211L129.025 69.4986C129.093 69.8502 129.566 69.9178 129.742 69.6203L130.404 68.498C130.972 69.0524 131.581 69.6068 132.23 70.1476L132.933 72.5949C133.027 72.9194 133.46 72.9735 133.636 72.6896L134.258 71.7161C134.812 72.1082 135.367 72.4597 135.935 72.7978L136.908 75.5425C137.016 75.8535 137.449 75.8941 137.611 75.6102L138.476 74.0958C139.017 74.3256 139.545 74.5149 140.085 74.6772L141.356 76.8947C141.532 77.1921 141.965 77.138 142.073 76.8135L142.546 75.2316C143.236 75.3262 143.925 75.3803 144.615 75.3803C144.669 75.3803 144.723 75.3803 144.777 75.3803L146.143 77.1651C146.332 77.422 146.738 77.3409 146.833 77.0299L147.387 75.0963C148.306 74.9071 149.212 74.6366 150.118 74.258C150.294 74.1904 150.402 74.0011 150.335 73.8389Z" fill="#454B89"/>
<path fill-rule="evenodd" clip-rule="evenodd" d="M10.3907 82.0868C10.6068 82.0868 10.7833 82.2556 10.7957 82.4686L10.7964 82.4924V95.8513C10.7964 96.0753 10.6148 96.2569 10.3907 96.2569C10.1747 96.2569 9.99813 96.088 9.9858 95.8751L9.98511 95.8513V82.4924C9.98511 82.2684 10.1667 82.0868 10.3907 82.0868Z" fill="#F98B7C"/>
<path fill-rule="evenodd" clip-rule="evenodd" d="M26.6566 77.4896C26.8726 77.4896 27.0492 77.6584 27.0616 77.8714L27.0622 77.8952V95.6349C27.0622 95.8589 26.8806 96.0406 26.6566 96.0406C26.4406 96.0406 26.264 95.8717 26.2517 95.6587L26.251 95.6349V77.8952C26.251 77.6712 26.4326 77.4896 26.6566 77.4896Z" fill="#F98B7C"/>
<path fill-rule="evenodd" clip-rule="evenodd" d="M47.8307 70.7561C48.0467 70.7561 48.2233 70.9249 48.2356 71.1378L48.2363 71.1617V95.6079C48.2363 95.8319 48.0547 96.0135 47.8307 96.0135C47.6147 96.0135 47.4381 95.8447 47.4257 95.6317L47.425 95.6079V71.1617C47.425 70.9377 47.6067 70.7561 47.8307 70.7561Z" fill="#F98B7C"/>
<path fill-rule="evenodd" clip-rule="evenodd" d="M150.064 73.4873C150.28 73.4873 150.457 73.6562 150.469 73.8691L150.47 73.893V95.8513C150.47 96.0753 150.288 96.2569 150.064 96.2569C149.848 96.2569 149.671 96.088 149.659 95.8751L149.658 95.8513V73.893C149.658 73.6689 149.84 73.4873 150.064 73.4873Z" fill="#F98B7C"/>
<path fill-rule="evenodd" clip-rule="evenodd" d="M125.185 61.4671L76.2386 61.7916C75.4544 61.7916 74.7513 62.1972 74.4268 62.8192L58.6341 91.5516L18.5034 91.5786C18.5034 91.5786 17.8138 95.6079 23.5874 95.8513L110.123 95.7431L127.024 64.0361C127.673 62.8327 126.672 61.4535 125.185 61.4671Z" fill="#F98B7C"/>
<path fill-rule="evenodd" clip-rule="evenodd" d="M63.6639 91.4299L104.998 91.2541L117.789 66.3346C118.289 65.3746 117.627 64.2118 116.599 64.2253L79.0375 64.6851L63.6639 91.4299Z" fill="white"/>
<path fill-rule="evenodd" clip-rule="evenodd" d="M121.139 61.494C122.91 61.4782 124.117 63.1318 123.375 64.6153L123.352 64.6602L106.613 95.9345C106.507 96.132 106.262 96.2065 106.064 96.1007C105.874 95.9989 105.798 95.7672 105.887 95.5738L105.898 95.5517L122.636 64.2793C123.121 63.3616 122.353 62.2945 121.146 62.3053C120.922 62.3073 120.739 62.1273 120.737 61.9033C120.735 61.6792 120.915 61.496 121.139 61.494Z" fill="white"/>
<path fill-rule="evenodd" clip-rule="evenodd" d="M65.8679 74.2175L70.3975 82.5465C70.6274 82.9386 71.2223 82.7763 71.2223 82.3301L70.9248 78.5442C70.9248 78.5442 73.575 87.6575 77.2121 87.8873C80.8493 88.1172 84.3378 78.2873 84.3378 78.2873L83.3778 82.4113C83.3778 82.871 83.9727 83.0197 84.2026 82.6276L89.0431 74.2175" fill="#454B89"/>
<path fill-rule="evenodd" clip-rule="evenodd" d="M60.2026 42.0101C60.2026 42.0101 49.3992 56.64 50.7919 69.7285H74.6297V41.6992L60.2026 42.0101Z" fill="#454B89"/>
<path fill-rule="evenodd" clip-rule="evenodd" d="M94.1676 42.0101C94.1676 42.0101 104.971 56.64 103.578 69.7285H79.7406V41.6992L94.1676 42.0101Z" fill="#454B89"/>
<path fill-rule="evenodd" clip-rule="evenodd" d="M86.9069 69.7285C96.0607 53.2732 95.0601 40.2118 92.3964 31.2608C89.7193 22.3099 83.4455 12.3313 77.4826 12.3313C71.5198 12.3313 65.246 22.3099 62.5688 31.2608C59.8917 40.2118 58.7694 53.2732 67.9232 69.7285L65.3677 75.2451H89.5029L86.9069 69.7285Z" fill="white"/>
<path fill-rule="evenodd" clip-rule="evenodd" d="M77.4827 11.9256C74.515 11.9256 71.385 14.2176 68.4665 18.1996C65.8534 21.7649 63.5674 26.5068 62.1802 31.1446C60.598 36.4348 59.9256 41.8752 60.4052 47.7138L60.4232 47.9272C61.0231 54.8335 63.2318 62 67.3163 69.468L67.4685 69.7447L64.9997 75.0746C64.8751 75.3434 65.0715 75.6507 65.3677 75.6507H89.5029L89.5262 75.6501C89.8104 75.6345 89.9932 75.3343 89.87 75.0724L87.3621 69.7433L87.5166 69.463C91.646 61.9134 93.8811 54.6752 94.4873 47.7158C94.9975 41.8594 94.3496 36.4019 92.7852 31.1452C91.398 26.5068 89.1119 21.7649 86.4988 18.1996C83.5803 14.2176 80.4503 11.9256 77.4827 11.9256ZM77.4827 12.7369C80.1302 12.7369 83.0635 14.8849 85.8445 18.6792C88.4007 22.1668 90.6464 26.8251 92.0078 31.3771C93.5441 36.5395 94.18 41.8957 93.6791 47.6454C93.0705 54.6312 90.7904 61.9129 86.5524 69.5313L86.5397 69.556C86.4886 69.6649 86.4882 69.7915 86.5399 69.9012L88.8637 74.8394H66.0026L68.2913 69.8989C68.3458 69.7813 68.3408 69.6446 68.2777 69.5313C64.0441 61.9208 61.7883 54.6434 61.2137 47.6474C60.7429 41.9151 61.4029 36.5749 62.9575 31.3771C64.319 26.8251 66.5647 22.1668 69.1208 18.6792C71.9018 14.8849 74.8351 12.7369 77.4827 12.7369Z" fill="#1D2675"/>
<path fill-rule="evenodd" clip-rule="evenodd" d="M77.4826 46.1882C81.2462 46.1882 84.2973 42.556 84.2973 38.0755C84.2973 33.595 81.2462 29.9628 77.4826 29.9628C73.719 29.9628 70.668 33.595 70.668 38.0755C70.668 42.556 73.719 46.1882 77.4826 46.1882Z" fill="#454B89"/>
<path fill-rule="evenodd" clip-rule="evenodd" d="M77.4826 49.8389C78.1098 49.8389 78.6183 49.2335 78.6183 48.4868C78.6183 47.74 78.1098 47.1347 77.4826 47.1347C76.8553 47.1347 76.3468 47.74 76.3468 48.4868C76.3468 49.2335 76.8553 49.8389 77.4826 49.8389Z" fill="#454B89"/>
<path fill-rule="evenodd" clip-rule="evenodd" d="M81.8634 49.8389C82.4907 49.8389 82.9992 49.2335 82.9992 48.4868C82.9992 47.74 82.4907 47.1347 81.8634 47.1347C81.2362 47.1347 80.7277 47.74 80.7277 48.4868C80.7277 49.2335 81.2362 49.8389 81.8634 49.8389Z" fill="#454B89"/>
<path fill-rule="evenodd" clip-rule="evenodd" d="M72.7637 49.8389C73.391 49.8389 73.8995 49.2335 73.8995 48.4868C73.8995 47.74 73.391 47.1347 72.7637 47.1347C72.1364 47.1347 71.6279 47.74 71.6279 48.4868C71.6279 49.2335 72.1364 49.8389 72.7637 49.8389Z" fill="#454B89"/>
<path fill-rule="evenodd" clip-rule="evenodd" d="M77.4826 43.4028C80.3277 43.4028 82.6342 40.6605 82.6342 37.2778C82.6342 33.895 80.3277 31.1527 77.4826 31.1527C74.6375 31.1527 72.3311 33.895 72.3311 37.2778C72.3311 40.6605 74.6375 43.4028 77.4826 43.4028Z" fill="white"/>
<path fill-rule="evenodd" clip-rule="evenodd" d="M77.4826 30.747C74.3964 30.747 71.9254 33.685 71.9254 37.2777C71.9254 40.8705 74.3964 43.8084 77.4826 43.8084C80.5688 43.8084 83.0398 40.8705 83.0398 37.2777C83.0398 33.685 80.5688 30.747 77.4826 30.747ZM77.4826 31.5583C80.0866 31.5583 82.2285 34.1049 82.2285 37.2777C82.2285 40.4505 80.0866 42.9972 77.4826 42.9972C74.8785 42.9972 72.7367 40.4505 72.7367 37.2777C72.7367 34.1049 74.8785 31.5583 77.4826 31.5583Z" fill="#1D2675"/>
<path fill-rule="evenodd" clip-rule="evenodd" d="M78.686 12.1014V2.51493C78.686 2.48789 78.686 2.46085 78.686 2.42028C78.8618 2.1769 78.9699 1.86592 78.9699 1.54141C78.9699 0.71662 78.3074 0.0540848 77.4826 0.0540848C76.6578 0.0540848 75.9953 0.71662 75.9953 1.54141C75.9953 1.86592 76.1034 2.1769 76.2792 2.42028C76.2792 2.44732 76.2792 2.47437 76.2792 2.51493V12.0879C73.7778 12.6017 71.2764 14.6975 68.9913 17.5099C71.5739 16.9149 74.5891 16.5904 78.0505 16.7797C81.1468 16.9555 83.9051 17.3882 86.3254 17.9696C83.9592 14.9408 81.3091 12.6693 78.686 12.1014Z" fill="#454B89"/>
<path fill-rule="evenodd" clip-rule="evenodd" d="M88.5834 22.9454C85.5952 21.9448 82.1609 21.0659 77.5502 20.8901C72.8448 20.7144 69.2752 21.769 66.3412 22.9183C65.0566 25.298 64.0426 27.6507 63.2178 30.1792C66.7333 28.462 71.0465 26.6501 77.6583 26.7718C83.9457 26.88 88.2724 28.2727 91.5581 29.733C90.7603 27.3668 89.7868 25.1899 88.5834 22.9454Z" fill="#454B89"/>
<path fill-rule="evenodd" clip-rule="evenodd" d="M86.5552 69.6608C86.9879 68.8766 87.4071 68.1059 87.7992 67.3352C85.7304 66.4969 82.7558 65.7938 77.469 65.8479C72.1282 65.8073 69.14 66.5239 67.0713 67.3758C67.4634 68.133 67.869 68.9037 68.2882 69.6744C68.2882 69.6744 72.98 68.7549 77.4555 68.7955C81.8634 68.7549 86.5552 69.6608 86.5552 69.6608Z" fill="#454B89"/>
<path fill-rule="evenodd" clip-rule="evenodd" d="M111.488 91.2541H90.233C90.233 91.2541 87.1772 88.5093 88.5834 86.2648C89.9896 84.0203 93.6809 83.4794 94.8843 85.751C94.8843 85.751 95.4116 81.4107 99.8601 81.7487C104.322 82.0867 103.97 86.7245 103.97 86.7245C103.97 86.7245 109.609 82.7358 109.46 88.969C109.447 88.9555 109.798 91.2541 111.488 91.2541Z" fill="white"/>
<path fill-rule="evenodd" clip-rule="evenodd" d="M90.233 91.6597H111.488L111.516 91.659C112.02 91.6325 112.02 90.8757 111.516 90.8492L111.488 90.8485C110.924 90.8485 110.504 90.5145 110.195 89.9196C110.079 89.6965 109.99 89.4537 109.925 89.215C109.906 89.1444 109.891 89.0784 109.879 89.0213L109.868 88.9649L109.866 88.9516L109.866 88.9787C109.937 85.9757 108.681 84.7705 106.648 85.1184C106.076 85.2163 105.476 85.433 104.871 85.7324L104.763 85.7867C104.655 85.8414 104.551 85.8973 104.449 85.9539L104.363 86.0021L104.363 85.9959C104.356 85.9017 104.346 85.8039 104.333 85.7028C104.265 85.1426 104.128 84.5893 103.906 84.0678C103.248 82.5256 101.967 81.523 99.9627 81.3501L99.8908 81.3443C97.7246 81.1797 96.2126 82.0277 95.2841 83.5269L95.23 83.6161C95.0175 83.9744 94.8502 84.349 94.7221 84.7269L94.6915 84.8192L94.6552 84.784C92.9738 83.1876 89.6546 83.7911 88.2397 86.0494C87.997 86.4368 87.859 86.8531 87.8197 87.2903C87.729 88.2965 88.15 89.3331 88.896 90.3513C89.1278 90.6675 89.3754 90.9593 89.6232 91.2204L89.6855 91.2854C89.8059 91.4099 89.9013 91.5014 89.962 91.5559C90.0364 91.6227 90.1329 91.6597 90.233 91.6597ZM99.8293 82.1532C101.561 82.2844 102.609 83.0943 103.16 84.386C103.35 84.8317 103.468 85.3121 103.528 85.8012C103.566 86.1113 103.576 86.3851 103.57 86.601L103.568 86.6605L103.566 86.6938C103.541 87.0285 103.908 87.2442 104.186 87.0682L104.258 87.0192L104.352 86.9572C104.393 86.9306 104.438 86.9025 104.485 86.8731C104.713 86.7322 104.964 86.5911 105.23 86.4596C105.771 86.1922 106.301 86.0009 106.785 85.918C107.465 85.8018 107.995 85.9074 108.364 86.2619L108.39 86.2868C108.824 86.7256 109.068 87.5452 109.057 88.8113L109.055 88.9356L109.054 88.949L109.055 88.997L109.058 89.0272L109.06 89.0485C109.063 89.0672 109.066 89.0892 109.071 89.1135L109.075 89.1385C109.091 89.2228 109.114 89.3209 109.142 89.4257C109.22 89.7175 109.33 90.014 109.475 90.2934L109.5 90.3396C109.586 90.5003 109.681 90.6491 109.785 90.7845L109.835 90.8483H90.3947L90.3605 90.8145C90.3139 90.7681 90.2641 90.7172 90.2117 90.662C89.9862 90.4244 89.7605 90.1584 89.5504 89.8718C88.9101 88.9978 88.5584 88.1319 88.6277 87.363C88.6557 87.0517 88.753 86.7582 88.9272 86.4801C90.2201 84.4164 93.4576 84.0554 94.4951 85.8848L94.5258 85.9409C94.708 86.2846 95.2177 86.1979 95.2834 85.8237L95.2914 85.7686C95.2955 85.7418 95.302 85.7036 95.3114 85.6549C95.3356 85.529 95.3691 85.3876 95.413 85.2347C95.5388 84.7971 95.7226 84.3597 95.9738 83.954C96.7491 82.7022 97.9788 82.0126 99.8293 82.1532Z" fill="#1D2675"/>
<path fill-rule="evenodd" clip-rule="evenodd" d="M43.8149 91.2947H65.0702C65.0702 91.2947 68.1259 88.5499 66.7197 86.3054C65.3135 84.0609 61.6223 83.52 60.4189 85.7916C60.4189 85.7916 59.8916 81.4513 55.4431 81.7893C50.9811 82.1273 51.3327 86.7651 51.3327 86.7651C51.3327 86.7651 45.6944 82.7763 45.8431 89.0096C45.8566 88.9961 45.5051 91.2811 43.8149 91.2947Z" fill="white"/>
<path fill-rule="evenodd" clip-rule="evenodd" d="M43.8149 91.7003H65.0702C65.1702 91.7003 65.2668 91.6633 65.3412 91.5964L65.3744 91.5661C65.4464 91.4994 65.5515 91.3963 65.6799 91.261C65.9278 90.9998 66.1754 90.7081 66.4071 90.3918C67.1531 89.3736 67.5741 88.3371 67.4835 87.3308C67.4441 86.8937 67.3061 86.4773 67.0635 86.09L67.0145 86.0136C65.5734 83.8182 62.3102 83.2463 60.6479 84.8245L60.6116 84.8598L60.5811 84.7674C60.4423 84.3581 60.2575 83.9525 60.019 83.5674C59.1012 82.0854 57.6132 81.2398 55.4869 81.3795L55.4125 81.3848C53.367 81.5398 52.0625 82.5478 51.3973 84.1084C51.1749 84.6298 51.0382 85.1832 50.9698 85.7434L50.961 85.8186C50.9555 85.8683 50.9505 85.9171 50.9462 85.9651L50.9396 86.0426L50.8542 85.9945C50.7185 85.9189 50.5776 85.8447 50.4325 85.7729C49.8267 85.4735 49.227 85.2568 48.6549 85.1589L48.5941 85.1489C46.6169 84.8385 45.3916 86.022 45.4358 88.9297L45.4369 88.9918L45.4306 89.0277C45.4186 89.0913 45.4008 89.1689 45.378 89.2531C45.3138 89.4906 45.2239 89.7322 45.1081 89.9546L45.0847 89.9987C44.7856 90.5505 44.3851 90.868 43.8539 90.888L43.8117 90.889C43.273 90.8933 43.2762 91.7003 43.8149 91.7003ZM59.3293 83.9946C59.5806 84.4003 59.7644 84.8377 59.8902 85.2753C59.9341 85.4282 59.9675 85.5696 59.9918 85.6955L60.0095 85.7948L60.0162 85.8405C60.0631 86.2267 60.5701 86.3283 60.7655 86.0024L60.7773 85.9814C61.78 84.0888 65.07 84.4361 66.376 86.5207C66.5502 86.7987 66.6475 87.0923 66.6755 87.4036C66.7448 88.1725 66.3931 89.0384 65.7527 89.9123C65.5427 90.199 65.317 90.4649 65.0915 90.7025L65.0527 90.7431L64.9782 90.8194C64.9541 90.8437 64.9308 90.8669 64.9084 90.8889L45.4632 90.8889L45.4664 90.8851C45.6008 90.7204 45.7211 90.534 45.8277 90.3293C45.9728 90.0507 46.0826 89.7553 46.1612 89.4649C46.1894 89.3605 46.2118 89.2628 46.2277 89.179L46.2364 89.1306C46.2389 89.1155 46.2411 89.1016 46.2428 89.0892L46.2456 89.0679L46.2484 89.0377L46.2489 88.9913L46.2481 88.9751L46.2462 88.8518C46.2347 87.5614 46.4885 86.7348 46.9389 86.3025C47.3083 85.948 47.8386 85.8423 48.5181 85.9586C49.0025 86.0415 49.5319 86.2328 50.073 86.5002C50.3389 86.6316 50.5899 86.7727 50.8177 86.9136L50.9087 86.9707C50.9231 86.9799 50.9372 86.9889 50.9509 86.9977L51.0452 87.0598L51.0984 87.0962C51.3724 87.2901 51.7461 87.0862 51.7383 86.757L51.7347 86.687C51.7257 86.4646 51.7345 86.1741 51.7751 85.8418C51.8348 85.3527 51.9535 84.8722 52.1435 84.4265C52.6867 83.1526 53.7137 82.3472 55.4031 82.1995L55.4738 82.1938C57.3244 82.0531 58.5541 82.7428 59.3293 83.9946Z" fill="#1D2675"/>
<path fill-rule="evenodd" clip-rule="evenodd" d="M168.399 95.4456C168.623 95.4456 168.804 95.6272 168.804 95.8513C168.804 96.0673 168.635 96.2439 168.422 96.2562L168.399 96.2569H0.601435C0.377409 96.2569 0.195801 96.0753 0.195801 95.8513C0.195801 95.6352 0.364669 95.4587 0.577601 95.4463L0.601435 95.4456H168.399Z" fill="#1D2675"/>
</svg>
