<svg width="236" height="129" viewBox="0 0 236 129" fill="none" xmlns="http://www.w3.org/2000/svg">
<path fill-rule="evenodd" clip-rule="evenodd" d="M100.969 127.923H23.2087V72.8794C23.2087 60.9782 32.8629 51.324 44.7641 51.324H100.969V127.923Z" fill="#454B89"/>
<path fill-rule="evenodd" clip-rule="evenodd" d="M107.183 127.566C107.183 127.566 106.099 87.26 106.316 77.9932C106.548 67.4402 100.04 57.2126 97.7617 55.3375C95.7627 53.6949 80.8706 55.0896 77.229 55.4615C78.3137 59.0411 80.6537 64.124 85.5041 70.9424C86.4338 72.0271 87.3481 73.2513 88.2159 74.5995C92.245 80.9065 95.2823 90.2508 94.8329 104.058C96.367 119.059 95.0963 127.38 95.0963 127.38L107.183 127.566Z" fill="white"/>
<path fill-rule="evenodd" clip-rule="evenodd" d="M152.696 64.7128L142.98 32.5579C141.554 29.4276 140.268 30.7758 139.726 29.7995C138.486 27.5215 137.99 26.5143 137.99 26.5143C133.434 30.3729 124.353 28.6838 124.353 28.6838C124.353 28.6838 124.276 29.5206 124.214 32.062C124.152 34.6034 121.316 34.2315 121.642 37.6097L125.903 60.4358L114.064 57.9099C112.39 48.7516 104.549 33.4102 75.8963 41.0809C59.3152 46.954 58.6179 56.1743 63.2513 64.093C61.0663 64.4339 55.751 67.4247 44.5317 83.2775C28.369 106.088 29.1438 127.38 60.5704 127.923C65.8547 128.016 122.354 127.845 122.354 127.845L120.603 93.2416C157.64 96.7283 156.586 80.922 152.696 64.7128ZM95.0653 127.349C95.0653 127.349 96.336 119.028 94.8019 104.027C94.9104 100.447 94.8019 97.1777 94.492 94.1869C94.492 94.1559 94.492 94.1249 94.4765 94.0784C94.4455 93.7995 94.4145 93.5206 94.3835 93.2416C94.3835 93.1952 94.368 93.1332 94.368 93.0867C94.337 92.8232 94.306 92.5598 94.275 92.3119C94.2595 92.2499 94.2595 92.1879 94.244 92.1259C94.213 91.878 94.1665 91.63 94.1356 91.3821C94.1201 91.3046 94.1201 91.2426 94.1046 91.1651C94.0736 90.9327 94.0271 90.6847 93.9961 90.4523C93.9806 90.3748 93.9651 90.3128 93.9651 90.2353C93.9186 90.0029 93.8876 89.7705 93.8411 89.5535C93.8256 89.476 93.8101 89.3985 93.7946 89.3366C93.7481 89.1196 93.7017 88.8872 93.6707 88.6702C93.6552 88.5927 93.6397 88.5152 93.6242 88.4533C93.5777 88.2363 93.5312 88.0194 93.4847 87.8024C93.4692 87.7249 93.4537 87.6629 93.4382 87.5855C93.3917 87.3685 93.3452 87.1516 93.2833 86.9501C93.2678 86.8726 93.2523 86.8106 93.2368 86.7332C93.1903 86.5162 93.1283 86.3148 93.0818 86.1133C93.0663 86.0513 93.0508 85.9738 93.0353 85.9119C92.9733 85.7104 92.9268 85.4935 92.8648 85.292C92.8494 85.23 92.8339 85.168 92.8184 85.106C92.7564 84.9046 92.6944 84.7031 92.6479 84.5017C92.6324 84.4397 92.6169 84.3777 92.6014 84.3312C92.5394 84.1298 92.4774 83.9283 92.4155 83.7269C92.4 83.6649 92.3845 83.6184 92.369 83.5719C92.307 83.3705 92.245 83.169 92.1675 82.9675C92.152 82.9211 92.1365 82.8746 92.121 82.8281C92.0435 82.6266 91.9816 82.4252 91.9041 82.2237C91.8886 82.1772 91.8731 82.1462 91.8576 82.1152C91.7801 81.9138 91.7026 81.6968 91.6251 81.4954C91.6096 81.4644 91.6096 81.4334 91.5941 81.4179C91.5167 81.201 91.4392 80.9995 91.3462 80.7826C91.3462 80.7671 91.3307 80.7516 91.3307 80.7361C90.4009 78.4271 89.3472 76.4126 88.2159 74.6305C88.1075 74.4755 88.0145 74.3051 87.906 74.1501C87.906 74.1346 87.8905 74.1191 87.8905 74.1191C87.7975 73.9797 87.6891 73.8247 87.5961 73.6852C87.5806 73.6697 87.5651 73.6387 87.5496 73.6232C87.4566 73.4838 87.3636 73.3443 87.2552 73.2048C87.2397 73.1738 87.2242 73.1583 87.2087 73.1274C87.1157 72.9879 87.0072 72.8484 86.9142 72.7244C86.8987 72.709 86.8833 72.6935 86.8678 72.6625C86.7593 72.523 86.6663 72.3835 86.5578 72.2596C86.5578 72.2441 86.5423 72.2441 86.5423 72.2286C86.2014 71.7947 85.8605 71.3608 85.5196 70.9579C80.6692 64.124 78.3448 59.0412 77.2445 55.477C80.8862 55.1051 95.7782 53.7259 97.7772 55.353C98.7225 56.1278 100.381 58.3128 101.977 61.3656C102.054 61.5051 102.116 61.6291 102.194 61.7685V61.784C102.473 62.3419 102.752 62.9152 103.03 63.5196C103.03 63.5196 103.03 63.5196 103.03 63.5351C103.092 63.6746 103.154 63.814 103.216 63.969C103.232 63.9845 103.232 64 103.247 64.031C103.309 64.1705 103.356 64.2944 103.418 64.4339C103.433 64.4494 103.433 64.4804 103.449 64.4959C103.511 64.6353 103.573 64.7748 103.635 64.9298C103.635 64.9453 103.65 64.9453 103.65 64.9608C103.774 65.2707 103.914 65.5961 104.038 65.9215C104.038 65.9215 104.038 65.9215 104.038 65.937C104.1 66.092 104.146 66.247 104.208 66.4019C104.224 66.4329 104.224 66.4639 104.239 66.4949C104.286 66.6189 104.332 66.7429 104.379 66.8823C104.394 66.9288 104.41 66.9598 104.425 67.0063C104.472 67.1303 104.518 67.2542 104.549 67.3782C104.565 67.4247 104.58 67.4557 104.596 67.5022C104.642 67.6416 104.689 67.7811 104.735 67.9206C104.751 67.9516 104.751 67.9671 104.766 67.9981C104.875 68.339 104.968 68.6644 105.076 69.0053C105.091 69.0363 105.091 69.0828 105.107 69.1138C105.138 69.2378 105.184 69.3772 105.215 69.5012C105.231 69.5477 105.246 69.6097 105.262 69.6562C105.293 69.7801 105.324 69.8886 105.355 70.0126C105.37 70.0746 105.386 70.1211 105.401 70.183C105.432 70.307 105.463 70.4155 105.494 70.5395C105.51 70.586 105.525 70.6479 105.541 70.6944C105.572 70.8339 105.603 70.9734 105.634 71.0973C105.649 71.1283 105.649 71.1748 105.665 71.2058C105.696 71.3763 105.742 71.5622 105.773 71.7327C105.773 71.7637 105.789 71.7792 105.789 71.8102C105.82 71.9496 105.851 72.1046 105.866 72.2441C105.882 72.306 105.882 72.3525 105.897 72.4145C105.913 72.5385 105.944 72.647 105.959 72.7709C105.975 72.8329 105.975 72.8949 105.99 72.9569C106.006 73.0654 106.021 73.1893 106.037 73.2978C106.052 73.3598 106.052 73.4218 106.068 73.4993C106.083 73.6232 106.099 73.7317 106.114 73.8557C106.13 73.9177 106.13 73.9797 106.145 74.0416C106.161 74.1811 106.176 74.3361 106.192 74.4755C106.192 74.5065 106.192 74.5375 106.207 74.5685C106.223 74.739 106.238 74.9249 106.254 75.1109C106.254 75.1574 106.269 75.2039 106.269 75.2659C106.285 75.3898 106.285 75.5293 106.3 75.6533C106.3 75.7152 106.316 75.7772 106.316 75.8547C106.316 75.9632 106.331 76.0872 106.331 76.1956C106.331 76.2576 106.331 76.3351 106.347 76.3971C106.347 76.5056 106.362 76.6295 106.362 76.738C106.362 76.8 106.362 76.8775 106.362 76.9395C106.362 77.0634 106.362 77.1874 106.362 77.3114C106.362 77.3734 106.362 77.4353 106.362 77.4818C106.362 77.6678 106.362 77.8383 106.362 78.0242C106.362 78.1172 106.362 78.2257 106.362 78.3341C106.362 78.3651 106.362 78.3806 106.362 78.4116C106.362 78.5201 106.362 78.6286 106.362 78.737C106.362 78.7525 106.362 78.7525 106.362 78.768C106.362 78.8765 106.362 78.985 106.362 79.0935C106.362 79.1245 106.362 79.1554 106.362 79.1709C106.362 79.2949 106.362 79.4189 106.362 79.5429C106.362 79.5583 106.362 79.5738 106.362 79.5893C106.362 79.7133 106.362 79.8218 106.362 79.9458C106.362 79.9767 106.362 80.0077 106.362 80.0387C106.362 80.1782 106.362 80.3177 106.362 80.4571C106.362 80.4726 106.362 80.5036 106.362 80.5191C106.362 80.6431 106.362 80.7671 106.362 80.9065C106.362 80.9375 106.362 80.9685 106.362 80.9995C106.362 81.1545 106.362 81.2939 106.362 81.4489C106.362 81.4799 106.362 81.4954 106.362 81.5264C106.362 81.6659 106.362 81.8053 106.362 81.9448C106.362 81.9758 106.362 82.0068 106.362 82.0378C106.362 82.1927 106.362 82.3477 106.362 82.5182C106.362 82.5491 106.362 82.5956 106.362 82.6266C106.362 82.7816 106.362 82.9211 106.362 83.076C106.362 83.107 106.362 83.1225 106.362 83.1535C106.362 83.324 106.362 83.4944 106.362 83.6804C106.362 83.7269 106.362 83.7579 106.362 83.8044C106.362 83.9593 106.362 84.1298 106.362 84.3002C106.362 84.3157 106.362 84.3467 106.362 84.3622C106.362 84.5482 106.362 84.7341 106.362 84.9201C106.362 84.9666 106.362 84.9976 106.362 85.0441C106.362 85.23 106.362 85.416 106.362 85.6174C106.362 85.8034 106.362 86.0048 106.362 86.2063C106.362 86.2528 106.362 86.2993 106.362 86.3458C106.362 86.7487 106.378 87.1516 106.378 87.5545C106.378 87.601 106.378 87.6475 106.378 87.6939C106.378 87.8954 106.378 88.0968 106.378 88.2983C106.378 88.3293 106.378 88.3603 106.378 88.3758C106.378 88.5617 106.378 88.7632 106.378 88.9491C106.378 88.9956 106.378 89.0266 106.378 89.0731C106.378 89.2901 106.378 89.507 106.393 89.7395C106.393 89.755 106.393 89.7705 106.393 89.7705C106.393 89.9719 106.393 90.1889 106.409 90.3903C106.409 90.4368 106.409 90.4833 106.409 90.5298C106.409 90.7467 106.409 90.9637 106.424 91.1806C106.424 91.2271 106.424 91.2581 106.424 91.3046C106.424 91.4905 106.424 91.692 106.44 91.878C106.44 91.9244 106.44 91.9709 106.44 92.0174C106.44 92.2499 106.44 92.4668 106.455 92.6993C106.455 92.7303 106.455 92.7613 106.455 92.8077C106.455 93.0092 106.455 93.2261 106.471 93.4276C106.471 93.4741 106.471 93.5051 106.471 93.5516C106.471 93.784 106.471 94.001 106.486 94.2334C106.486 94.2799 106.486 94.3264 106.486 94.3729C106.486 94.5898 106.486 94.8068 106.502 95.0237C106.502 95.0547 106.502 95.0702 106.502 95.1012C106.502 95.3336 106.517 95.5816 106.517 95.814C106.517 95.8605 106.517 95.907 106.517 95.9535C106.517 96.155 106.517 96.3719 106.533 96.5734C106.533 96.6044 106.533 96.6508 106.533 96.6818C106.533 96.9298 106.548 97.1777 106.548 97.4102C106.548 97.4412 106.548 97.4721 106.548 97.5031C106.812 111.636 107.245 127.566 107.245 127.566L95.0653 127.349Z" fill="#F98B7C"/>
<path fill-rule="evenodd" clip-rule="evenodd" d="M119.596 59.0721C117.721 58.2973 115.676 58.0339 114.048 57.7704C114.405 59.692 114.498 61.3656 114.451 62.4968C114.095 70.6634 110.453 73.8247 109.694 76.831C119.519 73.2048 120.278 63.6281 119.596 59.0721Z" fill="#1D2675"/>
<path fill-rule="evenodd" clip-rule="evenodd" d="M63.1428 63.876C60.6014 64.9918 57.0992 66.5259 54.1394 71.0354C58.2924 69.3308 72.5646 82.0998 82.6837 79.2019C77.9883 78.7216 67.7607 71.9651 63.1428 63.876Z" fill="#1D2675"/>
<path fill-rule="evenodd" clip-rule="evenodd" d="M85.6851 79.3561C85.984 79.2124 86.3409 79.3299 86.4977 79.6179L86.5302 79.6839L86.656 79.9513L86.7707 80.1986C86.959 80.6068 87.167 81.068 87.3902 81.5757L87.4463 81.7035C88.1445 83.2978 88.8426 85.0047 89.4944 86.7568C90.1709 88.5748 90.7588 90.3393 91.2324 92.0134C91.8441 94.1753 92.2494 96.13 92.4126 97.8314C92.4453 98.1721 92.1956 98.4749 91.8548 98.5076C91.5141 98.5403 91.2113 98.2905 91.1786 97.9498C91.0233 96.3316 90.6325 94.4467 90.0395 92.3509C89.5756 90.7114 88.9981 88.9778 88.3326 87.1891C87.6894 85.4606 87 83.7749 86.3107 82.2008L86.1466 81.8282C85.9675 81.424 85.7994 81.0526 85.645 80.7179L85.4827 80.369L85.3948 80.1832C85.2465 79.8746 85.3765 79.5043 85.6851 79.3561Z" fill="#1D2675"/>
<path fill-rule="evenodd" clip-rule="evenodd" d="M108.63 77.297C108.962 77.3165 109.217 77.593 109.214 77.9214L109.199 78.2236C109.188 78.4479 109.177 78.7082 109.167 79.0015C109.053 82.3786 109.127 86.1572 109.529 89.7186C109.765 91.804 110.103 93.6744 110.554 95.2739C110.647 95.6034 110.455 95.9458 110.126 96.0387C109.796 96.1316 109.454 95.9398 109.361 95.6103C108.89 93.9394 108.54 92.0051 108.297 89.8578C107.898 86.3246 107.816 82.599 107.919 79.2387L107.935 78.7652C107.942 78.5758 107.949 78.4014 107.957 78.2429L107.975 77.8792C107.994 77.5478 108.271 77.2926 108.599 77.2959L108.63 77.297Z" fill="#1D2675"/>
<path fill-rule="evenodd" clip-rule="evenodd" d="M125.594 60.0878C125.777 59.9084 126.072 59.9118 126.251 60.0955C126.355 60.2017 126.424 60.3374 126.49 60.5241L126.513 60.5928C126.559 60.7353 126.606 60.9105 126.66 61.1417L126.726 61.4365C126.786 61.714 126.909 62.2872 126.937 62.4166C127.171 63.4833 127.384 64.3013 127.661 65.1088C128.679 68.0758 130.212 69.7099 132.59 69.6717C132.847 69.6676 133.058 69.8724 133.062 70.1291C133.067 70.3858 132.862 70.5973 132.605 70.6014C129.728 70.6475 127.915 68.7148 126.781 65.4105C126.503 64.5981 126.288 63.7846 126.059 62.7513L125.794 61.5287L125.756 61.362C125.7 61.1191 125.654 60.9506 125.613 60.8329C125.6 60.7969 125.588 60.7677 125.578 60.7461L125.571 60.7312C125.569 60.7259 125.571 60.7299 125.586 60.7452C125.407 60.5615 125.41 60.2672 125.594 60.0878Z" fill="#1D2675"/>
<path fill-rule="evenodd" clip-rule="evenodd" d="M116.683 99.7347L105.339 102.059L104.642 90.5918" fill="white"/>
<path fill-rule="evenodd" clip-rule="evenodd" d="M104.614 90.1278C104.861 90.1127 105.075 90.2936 105.104 90.5364L105.106 90.5636L105.771 101.496L116.589 99.2792C116.832 99.2295 117.069 99.3785 117.132 99.6147L117.138 99.6413C117.188 99.8839 117.039 100.121 116.803 100.184L116.776 100.19L105.433 102.515C105.165 102.569 104.91 102.382 104.878 102.114L104.875 102.087L104.178 90.62C104.162 90.3637 104.358 90.1433 104.614 90.1278Z" fill="#1D2675"/>
<path fill-rule="evenodd" clip-rule="evenodd" d="M112.917 98.7584C112.762 100.339 111.832 103.671 113.041 105.871C113.63 106.94 113.924 109.11 113.924 109.11L121.068 110.908C121.673 113.232 123.005 117.71 124.013 117.648C125.438 117.555 124.679 108.63 124.477 105.887C124.384 104.477 123.393 99.9671 122.587 97.6736C121.533 94.6828 116.745 85.571 106.982 88.9027L99.9312 90.6228" fill="white"/>
<path fill-rule="evenodd" clip-rule="evenodd" d="M106.968 88.417C111.443 86.9337 115.259 87.8513 118.357 90.5677C120.546 92.4871 122.207 95.1975 123.025 97.5195L123.077 97.6687C123.839 99.9049 124.819 104.242 124.937 105.801L125.038 107.143C125.064 107.506 125.088 107.835 125.11 108.17L125.139 108.595C125.202 109.577 125.251 110.487 125.283 111.354L125.293 111.633C125.348 113.29 125.334 114.662 125.236 115.7L125.222 115.841C125.072 117.281 124.771 118.065 124.041 118.112C123.258 118.161 122.663 117.197 121.955 115.338C121.537 114.242 121.118 112.887 120.749 111.518L120.688 111.291L113.811 109.561C113.636 109.517 113.504 109.377 113.469 109.202L113.464 109.172L113.441 109.017L113.42 108.885C113.405 108.794 113.388 108.698 113.37 108.596C113.291 108.16 113.196 107.725 113.087 107.322C112.955 106.837 112.811 106.434 112.66 106.145L112.634 106.095C112.156 105.225 111.955 104.171 111.965 102.928C111.971 102.156 112.05 101.399 112.206 100.383L112.362 99.4038L112.397 99.1687C112.423 98.9878 112.442 98.8417 112.454 98.713C112.48 98.4575 112.707 98.2706 112.963 98.2957C113.218 98.3207 113.405 98.5482 113.38 98.8037L113.371 98.8918C113.357 99.012 113.34 99.1439 113.318 99.2977L113.262 99.6615C113.227 99.8834 113.161 100.292 113.143 100.409L113.109 100.634C112.97 101.554 112.9 102.245 112.895 102.936C112.886 103.998 113.047 104.879 113.412 105.58L113.448 105.647C113.651 106.015 113.827 106.5 113.984 107.078C114.101 107.51 114.201 107.97 114.285 108.43C114.299 108.511 114.313 108.588 114.325 108.662L114.337 108.734L121.182 110.457C121.337 110.496 121.46 110.611 121.51 110.762L121.518 110.791C121.909 112.294 122.37 113.817 122.824 115.007L122.893 115.186C123.145 115.829 123.386 116.344 123.608 116.704C123.72 116.885 123.823 117.02 123.911 117.106L123.942 117.135L123.965 117.154L123.976 117.136C124.002 117.093 124.029 117.035 124.057 116.963L124.071 116.926C124.175 116.634 124.256 116.189 124.31 115.612C124.409 114.566 124.419 113.134 124.354 111.389L124.339 111.018C124.308 110.271 124.265 109.49 124.211 108.655L124.183 108.233C124.166 107.983 124.148 107.736 124.13 107.476L124.006 105.817C123.873 104.264 122.882 99.9173 122.148 97.8281C121.38 95.6463 119.8 93.0701 117.744 91.2667C114.856 88.7345 111.339 87.9071 107.132 89.3427L107.112 89.3489L107.092 89.3543L100.041 91.0744C99.7919 91.1353 99.5404 90.9824 99.4795 90.733C99.4209 90.4924 99.5609 90.2499 99.7947 90.1784L99.821 90.1711L106.852 88.4556L106.968 88.417Z" fill="#1D2675"/>
<path fill-rule="evenodd" clip-rule="evenodd" d="M122.37 105.732C122.37 105.732 121.611 112.209 119.441 112.705C117.272 113.201 117.148 111.372 117.148 111.372" fill="white"/>
<path fill-rule="evenodd" clip-rule="evenodd" d="M122.424 105.27C122.67 105.299 122.848 105.515 122.834 105.759L122.83 105.797L122.821 105.87C122.813 105.936 122.802 106.012 122.79 106.098L122.763 106.286C122.734 106.479 122.701 106.686 122.663 106.906C122.517 107.741 122.334 108.578 122.11 109.362L122.06 109.532C121.45 111.587 120.664 112.902 119.545 113.158C118.307 113.441 117.445 113.089 116.985 112.32C116.866 112.122 116.786 111.913 116.735 111.704C116.703 111.577 116.689 111.473 116.684 111.404C116.666 111.148 116.86 110.926 117.116 110.909C117.363 110.892 117.578 111.071 117.609 111.314L117.611 111.341C117.613 111.36 117.62 111.412 117.638 111.484C117.668 111.607 117.716 111.731 117.783 111.843C118.033 112.261 118.487 112.446 119.338 112.252C120.02 112.096 120.692 110.933 121.216 109.105C121.43 108.357 121.607 107.552 121.747 106.746L121.782 106.539C121.81 106.369 121.835 106.208 121.857 106.057L121.883 105.874L121.908 105.678C121.938 105.423 122.169 105.24 122.424 105.27Z" fill="#1D2675"/>
<path fill-rule="evenodd" clip-rule="evenodd" d="M119.767 105.499C119.767 105.499 118.604 111.202 116.404 111.543C114.203 111.884 114.203 110.055 114.203 110.055" fill="white"/>
<path fill-rule="evenodd" clip-rule="evenodd" d="M119.859 105.044C120.111 105.095 120.273 105.341 120.222 105.592L120.206 105.666C120.194 105.723 120.179 105.79 120.162 105.864C120.113 106.077 120.054 106.313 119.986 106.566C119.792 107.293 119.559 108.019 119.289 108.7L119.223 108.864C118.482 110.676 117.603 111.828 116.475 112.002C115.254 112.191 114.427 111.808 114.007 111.044C113.888 110.83 113.814 110.604 113.772 110.378C113.747 110.241 113.738 110.13 113.738 110.055C113.738 109.798 113.947 109.59 114.203 109.59C114.451 109.59 114.653 109.784 114.667 110.028L114.669 110.074C114.671 110.103 114.676 110.15 114.687 110.21C114.711 110.344 114.755 110.476 114.821 110.596C115.049 111.01 115.49 111.214 116.333 111.083C117.046 110.973 117.786 109.97 118.425 108.358C118.681 107.713 118.902 107.02 119.088 106.326L119.135 106.147C119.173 106.001 119.207 105.862 119.238 105.732L119.274 105.574L119.311 105.406C119.362 105.155 119.608 104.993 119.859 105.044Z" fill="#1D2675"/>
<path fill-rule="evenodd" clip-rule="evenodd" d="M116.559 105.158C116.559 105.158 115.04 111.992 112.607 109.404C110.174 106.816 110.422 105.484 110.422 105.484C110.422 105.484 111.6 103.609 113.475 106.6" fill="white"/>
<path fill-rule="evenodd" clip-rule="evenodd" d="M110.385 104.838C111.358 104.018 112.621 104.362 113.869 106.353C114.005 106.57 113.94 106.857 113.722 106.993C113.504 107.13 113.218 107.064 113.081 106.846C112.522 105.954 112.026 105.505 111.618 105.394C111.375 105.328 111.173 105.391 110.985 105.549C110.95 105.579 110.919 105.608 110.894 105.635L110.881 105.649L110.882 105.666C110.884 105.695 110.888 105.727 110.893 105.763L110.898 105.801C110.928 105.988 110.992 106.211 111.1 106.469C111.405 107.202 111.996 108.076 112.946 109.086C113.436 109.608 113.786 109.64 114.184 109.316C114.59 108.985 114.998 108.308 115.368 107.399C115.576 106.888 115.76 106.337 115.916 105.786L115.961 105.624C115.99 105.519 116.016 105.418 116.04 105.324L116.077 105.175L116.105 105.058C116.161 104.807 116.409 104.649 116.66 104.705C116.901 104.758 117.057 104.991 117.018 105.232L117.011 105.267L116.981 105.393C116.975 105.42 116.968 105.448 116.96 105.478L116.922 105.628C116.889 105.757 116.852 105.895 116.81 106.04C116.645 106.622 116.451 107.203 116.229 107.749C115.804 108.792 115.328 109.583 114.771 110.037C113.986 110.676 113.086 110.593 112.269 109.723C111.246 108.635 110.593 107.669 110.241 106.826C110.008 106.265 109.932 105.822 109.953 105.505L109.956 105.469C109.958 105.441 109.962 105.417 109.965 105.399C109.976 105.341 109.997 105.286 110.029 105.237C110.098 105.127 110.215 104.982 110.385 104.838Z" fill="#1D2675"/>
<path fill-rule="evenodd" clip-rule="evenodd" d="M70.6585 91.9555C78.2053 90.4523 93.2832 87.2755 94.5229 87.3375C97.9631 87.477 101.791 88.1433 102.906 88.2673C105.494 88.5617 106.61 88.6392 106.61 88.6392C104.766 94.3109 109.771 102.09 109.771 102.09C109.771 102.09 109.028 102.477 106.703 103.5C104.379 104.523 105.649 109.032 102.395 109.993C101.093 110.381 76.1442 123.32 69.6978 124.637" fill="#F98B7C"/>
<path fill-rule="evenodd" clip-rule="evenodd" d="M104.983 105.701C99.4973 101.253 97.6532 90.0649 99.9622 87.6165C100.055 86.8417 101.837 88.1434 102.906 88.2673C105.494 88.5618 106.61 88.6392 106.61 88.6392C105.556 91.8625 106.734 95.7676 107.927 98.5414C108.625 100.2 109.353 101.501 109.709 102.106C109.508 102.214 108.671 102.617 106.688 103.485C105.556 103.996 105.324 104.848 104.983 105.701Z" fill="#1D2675"/>
<path fill-rule="evenodd" clip-rule="evenodd" d="M61.4926 88.4461C63.1547 87.8921 65.3616 87.5665 67.301 87.7424C69.9894 87.9861 72.0131 89.1391 72.9908 91.3823C73.0933 91.6177 72.9857 91.8917 72.7503 91.9942C72.5149 92.0968 72.241 91.9892 72.1384 91.7538C71.3141 89.8625 69.5968 88.8841 67.217 88.6683C65.4163 88.5051 63.3347 88.8122 61.7867 89.3282C61.5431 89.4094 61.2798 89.2778 61.1986 89.0342C61.1174 88.7906 61.2491 88.5273 61.4926 88.4461Z" fill="#1D2675"/>
<path fill-rule="evenodd" clip-rule="evenodd" d="M81.617 89.124C93.6179 86.7526 100.826 86.0793 102.039 87.9183C102.049 87.9324 102.057 87.947 102.065 87.962L102.076 87.9848L107.778 100.754C107.834 100.878 107.832 101.019 107.775 101.14L107.758 101.174L107.656 101.361L107.581 101.5C107.517 101.62 107.449 101.75 107.376 101.888C107.087 102.442 106.797 103.021 106.528 103.594C106.391 103.884 106.263 104.165 106.145 104.436C105.697 105.463 105.412 106.29 105.342 106.812L105.336 106.855C105.097 108.897 104.346 109.717 100.681 111.621L98.1172 112.952L97.2795 113.385C96.3111 113.883 95.3674 114.363 94.378 114.859C90.8869 116.608 87.4022 118.266 83.873 119.826C80.0186 121.53 76.304 123.029 72.7752 124.28C67.8935 126.01 63.491 127.22 59.6666 127.824C59.413 127.864 59.1749 127.691 59.1349 127.437C59.0949 127.183 59.268 126.945 59.5217 126.905C63.2825 126.312 67.6325 125.116 72.4646 123.404C75.9696 122.161 79.6629 120.67 83.4971 118.976C87.0114 117.422 90.4829 115.771 93.9615 114.027C94.9477 113.533 95.8886 113.055 96.8543 112.558L100.345 110.748C103.607 109.049 104.195 108.429 104.4 106.848L104.413 106.747C104.487 106.11 104.797 105.2 105.293 104.064C105.415 103.785 105.546 103.495 105.686 103.198C105.962 102.612 106.257 102.022 106.552 101.458L106.681 101.213L106.836 100.923L101.245 88.4049L101.237 88.3939C100.773 87.8193 98.5575 87.6411 95.02 87.9563L94.8006 87.9763C91.4454 88.2897 87.0237 89.0034 81.7973 90.0361C80.0065 90.39 78.1438 90.777 76.226 91.1919C72.9911 91.8917 69.7445 92.6386 66.6266 93.3883L65.6629 93.6211C64.7209 93.8497 63.8512 94.064 63.0661 94.26L62.539 94.3921L61.7553 94.5907C61.5066 94.6546 61.2532 94.5048 61.1894 94.2561C61.1278 94.0163 61.2648 93.7722 61.4977 93.6977L61.5334 93.6877L62.6845 93.397L63.6556 93.1555C64.2731 93.0028 64.934 92.8409 65.6333 92.6715L65.825 92.6251C69.127 91.8268 72.5844 91.0284 76.0294 90.2831C77.9525 89.8671 79.8205 89.479 81.617 89.124Z" fill="#1D2675"/>
<path fill-rule="evenodd" clip-rule="evenodd" d="M101.543 56.1743L84.6053 56.9336L83.2571 50.2392L78.0039 44.3816C78.0039 44.3816 77.7714 51.076 77.601 56.5927C78.4997 59.1651 80.5763 62.7138 83.0402 66.6809C86.9453 68.7419 91.8111 71.3298 98.3351 75.8392C100.071 72.9724 101.651 62.7448 101.543 56.1743Z" fill="white"/>
<path fill-rule="evenodd" clip-rule="evenodd" d="M77.5392 44.3655L77.4486 47.011C77.4079 48.2126 77.3671 49.4277 77.3273 50.6301L77.1856 55.0015C77.1683 55.5465 77.1518 56.0727 77.1362 56.5784C77.1344 56.6354 77.1432 56.6922 77.162 56.7461L77.2116 56.8859C78.0383 59.1838 79.6873 62.1638 82.6452 66.9262C82.6887 66.9963 82.7501 67.0535 82.8231 67.092L83.6555 67.5327C89.3128 70.5374 92.9493 72.6817 98.0707 76.2216C98.291 76.3739 98.594 76.3091 98.7327 76.08C100.486 73.1847 102.12 62.9806 102.008 56.1667L102.006 56.1398C101.988 55.8908 101.775 55.6986 101.522 55.7099L84.9823 56.4514L83.7128 50.1474C83.6964 50.0661 83.6586 49.9906 83.6031 49.9288L78.3499 44.0712C78.0704 43.7596 77.5537 43.9471 77.5392 44.3655ZM78.4285 45.5514L82.8263 50.4552L84.1495 57.0254L84.1557 57.0521C84.211 57.2625 84.4062 57.4079 84.6261 57.3981L101.083 56.6601L101.083 56.7897C101.091 63.0897 99.685 71.9953 98.1829 75.1384L98.1714 75.1619L98.046 75.0758C93.1183 71.6961 89.4883 69.5732 83.8974 66.6085L83.3685 66.3285L83.0081 65.7458C80.3808 61.485 78.8766 58.7358 78.1114 56.64L78.0682 56.5201L78.1787 53.0404L78.2766 50.0588L78.4285 45.5514Z" fill="#1D2675"/>
<path fill-rule="evenodd" clip-rule="evenodd" d="M76.1908 36.5869C76.1908 36.5869 70.2402 36.6954 71.2939 42.0262C72.3632 47.3569 78.9491 44.2731 78.9491 44.2731L78.0658 36.6954L76.1908 36.5869Z" fill="white"/>
<path fill-rule="evenodd" clip-rule="evenodd" d="M76.2176 36.1231C76.2058 36.1224 76.194 36.1222 76.1823 36.1224L76.119 36.1242C75.9388 36.1311 75.6683 36.1549 75.3345 36.207C74.7098 36.3043 74.0844 36.4707 73.4957 36.7246C71.3932 37.6311 70.2997 39.3945 70.8378 42.1166C71.3162 44.5017 72.8607 45.5953 75.0422 45.6249C75.9614 45.6374 76.9328 45.4613 77.8993 45.161C78.1835 45.0727 78.4496 44.9789 78.6929 44.8842L78.7958 44.8436C78.9601 44.7778 79.0793 44.7258 79.1462 44.6944C79.3274 44.6096 79.434 44.4183 79.4109 44.2196L78.5276 36.6419C78.5014 36.4176 78.318 36.2446 78.0926 36.2316L76.2176 36.1231ZM76.1844 37.0522L77.6493 37.137L78.447 43.9814L78.4501 43.9803C78.2016 44.0798 77.9235 44.1797 77.6235 44.2729C76.7427 44.5465 75.8631 44.706 75.0549 44.695C73.285 44.671 72.1352 43.8569 71.7497 41.9348C71.3026 39.673 72.141 38.321 73.8639 37.5781C74.3737 37.3583 74.9253 37.2116 75.4777 37.1255C75.6713 37.0953 75.8507 37.0749 76.0107 37.0625L76.1178 37.0553L76.1844 37.0522Z" fill="#1D2675"/>
<path fill-rule="evenodd" clip-rule="evenodd" d="M93.1593 19.7889C94.7244 19.6649 105.479 18.9831 106.657 27.9555C107.834 36.9279 106.564 46.83 105.572 51.355C104.58 55.8799 83.9855 53.7879 82.8232 53.385C81.661 52.9821 80.2663 51.6184 80.2663 51.6184L77.446 37.8421C77.446 37.8266 76.2838 21.1835 93.1593 19.7889Z" fill="white"/>
<path fill-rule="evenodd" clip-rule="evenodd" d="M76.9774 37.7892L76.981 37.8421C76.981 37.8734 76.9842 37.9047 76.9905 37.9354L79.8108 51.7116C79.8294 51.8026 79.8748 51.8859 79.9412 51.9508L80.0335 52.0385L80.1242 52.1224C80.1718 52.166 80.2229 52.212 80.2771 52.2599C80.5351 52.4881 80.8127 52.7163 81.1004 52.9302C81.4429 53.1848 81.7776 53.4023 82.0988 53.5715C82.2964 53.6756 82.4871 53.7605 82.6709 53.8242C83.6037 54.1476 89.5795 54.6658 94.1235 54.6825L94.2607 54.6828C101.185 54.6927 105.513 53.7934 106.026 51.4545L106.084 51.1859C106.641 48.5577 107.133 45.0051 107.391 41.3558C107.725 36.6433 107.662 32.0409 107.117 27.8949C106.571 23.7316 104.039 21.2046 100.19 20.0168C98.7986 19.5873 97.3083 19.3584 95.7848 19.2865C94.7635 19.2383 93.9086 19.2632 93.1225 19.3254C85.842 19.9271 81.2276 23.3171 78.8003 28.5742C77.9566 30.4015 77.4316 32.351 77.1634 34.3256C76.9896 35.6048 76.9432 36.722 76.9699 37.5943L76.9728 37.6807C76.9743 37.7205 76.9758 37.7566 76.9774 37.7892ZM95.741 20.2152C97.1915 20.2837 98.6063 20.501 99.9161 20.9052C103.442 21.9935 105.701 24.2476 106.196 28.016C106.731 32.0944 106.793 36.6359 106.464 41.2902C106.2 45.0214 105.689 48.6485 105.118 51.2554C104.756 52.904 100.626 53.7621 94.2621 53.753L93.9928 53.752C89.5654 53.726 83.7717 53.2218 82.9754 52.9457C82.839 52.8985 82.6906 52.8324 82.5323 52.749C82.2579 52.6044 81.962 52.4121 81.6551 52.184C81.3903 51.9872 81.1326 51.7754 80.8932 51.5636L80.7969 51.4774L80.6923 51.3815L77.9078 37.7788L77.902 37.6465C77.8713 36.8124 77.9128 35.716 78.0847 34.4508C78.3412 32.5623 78.8425 30.7008 79.6445 28.964C81.9346 24.0038 86.2611 20.8254 93.1975 20.2522C93.946 20.1929 94.7636 20.1691 95.741 20.2152Z" fill="#1D2675"/>
<path fill-rule="evenodd" clip-rule="evenodd" d="M79.3985 37.7182C80.3902 38.7099 83.0556 44.4126 83.7065 47.0625C83.7065 47.0625 90.3079 44.831 99.7762 44.6915C99.7762 44.6915 104.936 44.8 106.998 45.4044C106.998 45.4044 106.548 54.8106 102.364 59.692C98.1801 64.5579 89.3471 63.1942 85.1941 60.2654C81.0411 57.3366 80.3593 55.9419 79.3985 52.7961C78.4377 49.6504 75.8963 37.9661 75.8963 37.9661L79.3985 37.7182Z" fill="#A8ADD3"/>
<path fill-rule="evenodd" clip-rule="evenodd" d="M96.8164 52.8271C96.8164 52.8271 99.3423 52.3157 100.381 53.3385L96.8164 52.8271Z" fill="white"/>
<path fill-rule="evenodd" clip-rule="evenodd" d="M97.1691 52.302C97.7311 52.231 98.3131 52.2091 98.8657 52.267C99.6368 52.3478 100.269 52.5762 100.707 53.0073C100.89 53.1875 100.892 53.4818 100.712 53.6648C100.532 53.8477 100.237 53.8499 100.054 53.6697C99.7937 53.4129 99.3498 53.2526 98.7689 53.1917C98.2972 53.1423 97.7827 53.1616 97.2856 53.2244C97.2023 53.235 97.1252 53.246 97.0553 53.2572L96.9294 53.2788C96.9206 53.2804 96.9136 53.2818 96.9087 53.2828C96.657 53.3337 96.4117 53.171 96.3608 52.9194C96.3098 52.6677 96.4725 52.4224 96.7242 52.3715L96.8246 52.3528C96.9128 52.3375 97.0293 52.3196 97.1691 52.302Z" fill="#1D2675"/>
<path fill-rule="evenodd" clip-rule="evenodd" d="M76.7021 39.7327C76.7021 39.7327 73.8973 35.3937 72.8281 30.8998C71.8053 26.6693 73.7733 22.2373 77.6939 20.3312C80.9791 18.7506 83.4121 19.9903 83.4121 19.9903C83.4121 19.9903 79.9254 14.0707 85.1477 8.83293C86.9917 6.98886 89.5331 5.9661 92.1365 6.04358C98.5055 6.22954 100.489 11.6223 100.489 11.6223C100.489 11.6223 107.307 -0.914286 121.301 6.50848C122.711 7.2523 124.307 9.34431 125.066 10.7545C129.684 19.2775 114.451 29.3656 106.533 30.1559C97.8237 31.0392 92.7254 29.5826 89.9205 27.4596C91.9971 28.6993 89.6571 41.7317 76.7021 39.7327Z" fill="#1D2675"/>
<path fill-rule="evenodd" clip-rule="evenodd" d="M99.9873 40.6034C100.233 40.5756 100.456 40.7451 100.498 40.986L100.502 41.0131L101.431 49.2261C101.467 49.541 101.185 49.7955 100.879 49.7346L100.853 49.7286L97.9709 48.9848C97.7223 48.9206 97.5728 48.6671 97.6369 48.4184C97.6988 48.1787 97.9368 48.0311 98.1766 48.0784L98.2032 48.0845L100.432 48.6595L99.5777 41.1177C99.5498 40.8717 99.7194 40.6488 99.9603 40.6073L99.9873 40.6034Z" fill="#1D2675"/>
<path fill-rule="evenodd" clip-rule="evenodd" d="M103.061 43.2968C103.524 43.2968 103.898 42.7141 103.898 41.9951C103.898 41.2762 103.524 40.6935 103.061 40.6935C102.599 40.6935 102.225 41.2762 102.225 41.9951C102.225 42.7141 102.599 43.2968 103.061 43.2968Z" fill="#1D2675"/>
<path fill-rule="evenodd" clip-rule="evenodd" d="M94.9723 43.1419C95.4345 43.1419 95.8091 42.5591 95.8091 41.8402C95.8091 41.1213 95.4345 40.5385 94.9723 40.5385C94.5101 40.5385 94.1355 41.1213 94.1355 41.8402C94.1355 42.5591 94.5101 43.1419 94.9723 43.1419Z" fill="#1D2675"/>
<path fill-rule="evenodd" clip-rule="evenodd" d="M91.8235 33.9338C92.7076 33.2862 93.7876 32.9646 95.041 33.1518C95.2949 33.1898 95.47 33.4264 95.4321 33.6803C95.3942 33.9342 95.1576 34.1093 94.9036 34.0714C93.9099 33.923 93.0705 34.1729 92.3729 34.6839C92.1763 34.8279 92.007 34.9821 91.866 35.1352L91.8207 35.1854C91.779 35.2326 91.7481 35.2706 91.7281 35.2968L91.7118 35.3189C91.5648 35.5294 91.275 35.5809 91.0645 35.4339C90.854 35.2869 90.8025 34.9971 90.9495 34.7866C90.9934 34.7237 91.0709 34.6261 91.182 34.5054C91.3621 34.3098 91.5758 34.1152 91.8235 33.9338Z" fill="#1D2675"/>
<path fill-rule="evenodd" clip-rule="evenodd" d="M102.85 32.9828C103.328 32.9081 103.836 32.9056 104.325 33.0266C105.15 33.2306 105.771 33.7592 106.047 34.6521C106.123 34.8974 105.985 35.1577 105.74 35.2335C105.495 35.3093 105.234 35.1719 105.159 34.9266C104.985 34.364 104.626 34.0589 104.102 33.9292C103.75 33.8423 103.36 33.8442 102.994 33.9014L102.936 33.911C102.892 33.9188 102.856 33.9259 102.831 33.9316L102.806 33.9376C102.558 34.0022 102.304 33.8531 102.24 33.6046C102.175 33.3561 102.324 33.1023 102.573 33.0377C102.63 33.0226 102.725 33.0024 102.85 32.9828Z" fill="#1D2675"/>
<path fill-rule="evenodd" clip-rule="evenodd" d="M123.346 23.0431L125.965 33.5806L137.463 30.1714" fill="white"/>
<path fill-rule="evenodd" clip-rule="evenodd" d="M123.234 22.5919C123.474 22.5322 123.717 22.6712 123.79 22.9046L123.797 22.931L126.299 32.9966L137.331 29.7257C137.569 29.6553 137.818 29.7834 137.901 30.0133L137.909 30.0393C137.979 30.2766 137.851 30.5257 137.621 30.6086L137.596 30.6171L126.097 34.0263C125.852 34.099 125.596 33.96 125.521 33.719L125.514 33.6928L122.895 23.1552C122.833 22.9061 122.985 22.6539 123.234 22.5919Z" fill="#1D2675"/>
<path fill-rule="evenodd" clip-rule="evenodd" d="M127.034 23.8644C125.733 24.7167 120.867 27.0257 118.418 26.9637C117.225 26.9327 115.211 27.6765 115.211 27.6765L110.422 22.3148C108.144 22.8417 103.666 23.7094 103.263 22.8107C102.69 21.54 110.748 18.1617 113.212 17.0925C114.467 16.5346 118.821 15.3414 121.177 15.0005C124.229 14.5511 135.371 14.2722 136.905 24.2053L138.548 30.3419L127.608 33.5806" fill="white"/>
<path fill-rule="evenodd" clip-rule="evenodd" d="M121.109 14.5405C123.586 14.1759 126.908 14.3219 129.757 15.2683C133.857 16.6302 136.596 19.4566 137.343 23.9963L137.361 24.1083L138.997 30.2217C139.06 30.4561 138.932 30.6975 138.707 30.779L138.68 30.7877L127.74 34.0264C127.493 34.0993 127.235 33.9588 127.162 33.7126C127.092 33.4752 127.22 33.2262 127.45 33.1434L127.476 33.1349L137.982 30.0245L136.456 24.3255C136.454 24.3174 136.452 24.3093 136.451 24.3011L136.446 24.2763C135.789 20.0249 133.294 17.4227 129.464 16.1506C126.813 15.2698 123.693 15.1201 121.359 15.444L121.243 15.4606C119.082 15.7733 114.798 16.913 113.44 17.4998L111.891 18.1705C111.725 18.2424 111.566 18.3123 111.404 18.3831L111.028 18.5488C110.224 18.9049 109.481 19.2427 108.773 19.5769C108.135 19.8782 107.545 20.1677 107.005 20.4451L106.803 20.55C105.771 21.0882 104.96 21.5676 104.41 21.9748C104.106 22.1997 103.891 22.3965 103.774 22.5524C103.763 22.5673 103.753 22.5813 103.744 22.5943L103.727 22.6221L103.754 22.633C103.868 22.6753 104.041 22.7067 104.264 22.7227C104.714 22.755 105.332 22.7239 106.085 22.6356C107.321 22.4908 108.851 22.201 110.317 21.8618C110.472 21.826 110.634 21.872 110.747 21.9822L110.769 22.0051L115.351 27.1352L115.384 27.1241C115.598 27.0525 115.825 26.981 116.06 26.9127L116.201 26.8722C116.529 26.7798 116.848 26.7008 117.151 26.6392C117.609 26.5464 118.015 26.4961 118.362 26.4979L118.43 26.4989C119.456 26.5249 121.09 26.0848 122.983 25.3254L123.241 25.2207C124.673 24.6306 126.113 23.912 126.78 23.4755C126.994 23.3348 127.283 23.3949 127.423 23.6097C127.564 23.8246 127.504 24.1127 127.289 24.2533C126.524 24.7539 124.897 25.5597 123.329 26.1884C121.363 26.9772 119.657 27.4414 118.472 27.4296L118.406 27.4284C118.126 27.4211 117.762 27.4641 117.336 27.5504C117.057 27.607 116.76 27.6806 116.453 27.7671C116.229 27.8303 116.01 27.8975 115.802 27.9652L115.679 28.0059C115.628 28.0229 115.58 28.0392 115.536 28.0546L115.372 28.1126C115.202 28.1751 115.013 28.1338 114.886 28.0091L114.864 27.9862L110.258 22.8289L110.193 22.8438C108.856 23.1444 107.489 23.3995 106.336 23.5419L106.194 23.5591C104.26 23.7856 103.155 23.7062 102.839 23.0019C102.418 22.0675 103.699 21.1065 106.495 19.6622L106.58 19.6183C107.129 19.3357 107.729 19.0417 108.376 18.7362L108.709 18.58C109.379 18.2671 110.082 17.9495 110.84 17.6156L111.619 17.2745L113.118 16.6267C114.602 16 118.896 14.8609 121.109 14.5405Z" fill="#1D2675"/>
<path fill-rule="evenodd" clip-rule="evenodd" d="M114.343 18.8436C114.343 18.8436 109.09 22.4233 109.632 24.5308C110.174 26.6228 111.817 25.9254 111.817 25.9254" fill="white"/>
<path fill-rule="evenodd" clip-rule="evenodd" d="M114.727 18.5818C114.872 18.794 114.817 19.0832 114.605 19.2278L114.472 19.3203L114.409 19.3653C114.25 19.4787 114.072 19.6088 113.881 19.7535C113.335 20.1666 112.788 20.6124 112.28 21.0728C111.646 21.6464 111.119 22.2012 110.733 22.7167C110.2 23.4298 109.98 24.0164 110.082 24.4141C110.243 25.036 110.5 25.3638 110.819 25.4986C111.039 25.5914 111.29 25.5912 111.527 25.5307C111.55 25.5248 111.571 25.5187 111.591 25.5127L111.635 25.4975C111.872 25.3972 112.144 25.5074 112.245 25.7438C112.345 25.9801 112.235 26.253 111.999 26.3534C111.945 26.3761 111.863 26.4046 111.757 26.4317C111.34 26.538 110.892 26.5384 110.458 26.3551C109.856 26.1009 109.412 25.5355 109.182 24.6466C108.991 23.9064 109.302 23.0771 109.989 22.1598C110.415 21.59 110.982 20.9941 111.656 20.3837C112.186 19.9031 112.753 19.4405 113.32 19.0118L113.466 18.9021C113.562 18.8309 113.654 18.7635 113.741 18.7002L113.936 18.5609L114.081 18.4594C114.293 18.3148 114.582 18.3696 114.727 18.5818Z" fill="#1D2675"/>
<path fill-rule="evenodd" clip-rule="evenodd" d="M115.706 20.9821C115.706 20.9821 111.305 24.5772 112.003 26.6228C112.7 28.6683 114.281 27.847 114.281 27.847" fill="white"/>
<path fill-rule="evenodd" clip-rule="evenodd" d="M116.067 20.688C116.223 20.8792 116.201 21.1573 116.023 21.3228L115.996 21.3458L115.908 21.4193L115.846 21.4719C115.721 21.5796 115.58 21.7033 115.429 21.841C114.996 22.2343 114.563 22.6595 114.16 23.0994C113.638 23.6695 113.207 24.2211 112.899 24.733C112.458 25.4653 112.303 26.0625 112.443 26.4728C112.631 27.0259 112.883 27.3317 113.173 27.4646C113.409 27.5723 113.675 27.5661 113.933 27.4849L113.981 27.4691C114.017 27.4563 114.044 27.4453 114.059 27.4382L114.066 27.4345C114.294 27.3161 114.575 27.4048 114.693 27.6326C114.812 27.8605 114.723 28.1411 114.495 28.2595C114.433 28.2917 114.337 28.3327 114.212 28.3719C113.754 28.516 113.262 28.5275 112.786 28.31C112.248 28.0637 111.829 27.5548 111.563 26.7728C111.314 26.0436 111.534 25.1977 112.102 24.2535C112.447 23.6818 112.914 23.0837 113.474 22.4716C113.898 22.0087 114.351 21.5641 114.803 21.1528L114.936 21.0329C115.023 20.9554 115.106 20.8827 115.184 20.8153L115.276 20.7366L115.412 20.6221C115.611 20.4596 115.904 20.4891 116.067 20.688Z" fill="#1D2675"/>
<path fill-rule="evenodd" clip-rule="evenodd" d="M117.458 23.5855C117.458 23.5855 112.235 27.9864 115.582 28.9162C118.93 29.846 119.952 29.0247 119.952 29.0247C119.952 29.0247 121.053 27.1651 117.597 26.9017" fill="white"/>
<path fill-rule="evenodd" clip-rule="evenodd" d="M117.158 23.23C117.354 23.0645 117.648 23.0896 117.813 23.2859C117.979 23.4822 117.954 23.7755 117.757 23.941L117.677 24.0101L117.636 24.0458C117.537 24.1333 117.426 24.2336 117.307 24.3452C116.965 24.664 116.624 25.0075 116.306 25.3615C115.924 25.7878 115.603 26.1996 115.366 26.5818L115.31 26.6737C114.704 27.6858 114.79 28.2137 115.707 28.4683C117.514 28.9703 118.726 28.9929 119.45 28.7512C119.498 28.7352 119.54 28.7192 119.575 28.7035L119.593 28.6956L119.599 28.6812C119.662 28.504 119.675 28.327 119.617 28.1725L119.604 28.1397C119.433 27.7629 118.822 27.4613 117.562 27.3652C117.306 27.3457 117.114 27.1224 117.134 26.8664C117.153 26.6104 117.376 26.4186 117.632 26.4382C119.196 26.5573 120.112 27.0098 120.45 27.7558C120.639 28.1717 120.617 28.5996 120.473 28.9969C120.431 29.113 120.387 29.2027 120.353 29.2614C120.324 29.3096 120.287 29.3522 120.244 29.3872C120.149 29.4634 119.985 29.5529 119.745 29.6331C118.829 29.9386 117.432 29.9126 115.458 29.3642C113.776 28.8968 113.628 27.6165 114.576 26.0911C114.846 25.6572 115.198 25.2043 115.614 24.7406C115.952 24.3644 116.312 24.0018 116.672 23.6654L116.796 23.5516C116.836 23.515 116.874 23.4797 116.912 23.4458L117.086 23.2919C117.118 23.2644 117.142 23.2437 117.158 23.23Z" fill="#1D2675"/>
<path fill-rule="evenodd" clip-rule="evenodd" d="M122.819 34.4639C125.02 37.3773 139.912 35.1768 142.36 31.4112C141.183 29.7995 140.253 30.7138 139.726 29.7685C138.486 27.4906 137.99 26.4833 137.99 26.4833C135.402 28.6838 131.342 29.0712 128.321 29.0092C126.523 28.9937 125.035 28.8078 124.338 28.7148C124.322 28.9472 124.26 29.877 124.199 32.031C124.183 33.2862 123.486 33.8441 122.819 34.4639Z" fill="#1D2675"/>
<path fill-rule="evenodd" clip-rule="evenodd" d="M204.129 84.4862H143.879C143.089 84.4862 142.407 85.0286 142.221 85.8034L133.837 121.259H112.003C112.003 121.259 110.794 127.504 117.845 127.504H194.769C195.559 127.504 196.241 126.962 196.427 126.187L205.787 86.5782C206.035 85.509 205.229 84.4862 204.129 84.4862Z" fill="#454B89"/>
<path fill-rule="evenodd" clip-rule="evenodd" d="M199.154 99.7036C195.342 99.7036 192.352 96.4494 192.661 92.6528C192.894 89.8479 192.925 88.1123 193.219 86.8106C193.622 85.0131 197.078 82.5491 201.122 79.5738C203.245 78.0242 204.718 76.5675 205.539 75.2194C206.36 73.8712 206.779 72.2131 206.779 70.2295C206.779 67.7811 206.004 65.8441 204.439 64.4339C202.889 63.0237 200.998 62.3264 198.783 62.3264C194.382 62.3264 191.437 64.6508 189.919 69.3152C188.911 72.4145 185.797 74.3051 182.573 73.8557C178.281 73.2513 175.724 68.7884 177.32 64.7593C178.761 61.1177 180.822 58.1424 183.503 55.8179C187.951 51.9748 193.405 50.0533 199.821 50.0533C206.376 50.0533 211.877 51.9438 216.309 55.7094C220.741 59.4905 222.972 64.2789 222.972 70.0746C222.972 77.2649 219.284 83.2775 211.892 88.1123C208.685 90.2353 206.732 91.8935 206.05 93.0867C205.818 93.4896 205.632 94.001 205.477 94.6363C204.795 97.5961 202.192 99.7036 199.154 99.7036ZM200.038 119.121H199.449C195.311 119.121 191.949 115.758 191.949 111.62C191.949 107.483 195.311 104.12 199.449 104.12H200.038C204.175 104.12 207.538 107.483 207.538 111.62C207.538 115.773 204.191 119.121 200.038 119.121Z" fill="#F98B7C"/>
<path fill-rule="evenodd" clip-rule="evenodd" d="M46.1123 36.246C45.26 36.6179 44.2837 36.184 43.9893 35.3007C43.7723 34.6499 43.6174 34.2625 43.5554 33.9525C43.4779 33.5186 44.0048 32.6353 44.6091 31.5816C44.9346 31.0392 45.1205 30.5743 45.167 30.1869C45.229 29.815 45.1515 29.3966 44.9655 28.9627C44.7331 28.4203 44.3767 28.0639 43.8963 27.9089C43.4159 27.7385 42.9355 27.7695 42.4396 27.9864C41.4634 28.4048 41.0295 29.2106 41.1379 30.3884C41.2154 31.1787 40.704 31.8915 39.9447 32.1085C38.9375 32.3874 37.9302 31.6436 37.8992 30.5898C37.8682 29.6445 38.0387 28.7767 38.4106 28.0019C39.0304 26.7157 40.0532 25.7704 41.4789 25.1506C42.9355 24.5152 44.3302 24.4068 45.6939 24.8252C47.0421 25.2436 48.0028 26.0804 48.5607 27.3666C49.258 28.9627 49.0101 30.6518 47.8324 32.4339C47.321 33.2087 47.0576 33.7666 47.0111 34.092C46.9956 34.2005 47.0111 34.3399 47.0266 34.4949C47.166 35.2387 46.7941 35.9516 46.1123 36.246ZM48.1733 40.4765L48.0338 40.5385C47.1195 40.9414 46.0503 40.5075 45.6474 39.5932C45.2445 38.6789 45.6784 37.6097 46.5927 37.2068L46.7321 37.1448C47.6464 36.7419 48.7157 37.1758 49.1186 38.0901C49.5215 39.0043 49.1031 40.0736 48.1733 40.4765Z" fill="#F98B7C"/>
<path fill-rule="evenodd" clip-rule="evenodd" d="M54.3563 16.4106C53.1011 16.3487 52.1713 15.2174 52.3418 13.9777C52.4658 13.0634 52.5123 12.4901 52.6362 12.0562C52.8067 11.4673 53.9844 10.7235 55.3791 9.80919C56.1074 9.32881 56.6188 8.87941 56.9132 8.46101C57.2077 8.02711 57.3781 7.50024 57.4091 6.83389C57.4556 6.02808 57.2386 5.37723 56.7428 4.88135C56.2624 4.38547 55.6425 4.12203 54.9142 4.07554C53.4575 3.99806 52.4503 4.71089 51.8614 6.21404C51.474 7.2213 50.4048 7.77917 49.351 7.57772C47.9563 7.29878 47.1815 5.78014 47.7859 4.47844C48.3282 3.30072 49.0566 2.35544 49.9863 1.64261C51.5205 0.464885 53.3491 -0.0774881 55.4721 0.0464828C57.6261 0.170454 59.4081 0.883287 60.8028 2.21597C62.1975 3.54866 62.8483 5.16028 62.7399 7.06634C62.6159 9.43728 61.2832 11.3433 58.7573 12.8155C57.6571 13.4508 56.9907 13.9622 56.7428 14.3496C56.6653 14.4736 56.5878 14.6441 56.5258 14.8455C56.2624 15.8218 55.3636 16.4571 54.3563 16.4106ZM54.2943 22.8261L54.0929 22.8106C52.7292 22.7332 51.6755 21.5709 51.7529 20.2073C51.8304 18.8436 52.9926 17.7898 54.3563 17.8673L54.5578 17.8828C55.9215 17.9603 56.9752 19.1225 56.8977 20.4862C56.8357 21.8499 55.658 22.9036 54.2943 22.8261Z" fill="#F98B7C"/>
<path fill-rule="evenodd" clip-rule="evenodd" d="M235.261 127.427C235.518 127.427 235.726 127.635 235.726 127.892C235.726 128.139 235.532 128.341 235.288 128.356L235.261 128.356H0.723436C0.466684 128.356 0.258545 128.148 0.258545 127.892C0.258545 127.644 0.452082 127.442 0.69612 127.427L0.723436 127.427H235.261Z" fill="#1D2675"/>
</svg>
