<svg width="13" height="12" viewBox="0 0 13 12" fill="none" xmlns="http://www.w3.org/2000/svg">
<path d="M5.70105 0.298952L0.662913 5.33709C0.488237 5.51351 0.39025 5.75174 0.39025 6C0.39025 6.24826 0.488237 6.48649 0.662913 6.66291L5.70105 11.701C5.87747 11.8757 6.1157 11.9737 6.36396 11.9737C6.61222 11.9737 6.85046 11.8757 7.02687 11.701L12.065 6.66291C12.2397 6.48649 12.3377 6.24826 12.3377 6C12.3377 5.75174 12.2397 5.51351 12.065 5.33709L7.02687 0.298952C6.85046 0.124276 6.61222 0.0262896 6.36396 0.0262893C6.1157 0.026289 5.87747 0.124276 5.70105 0.298952ZM8.3527 3.21577L6.36396 5.2045L4.37522 3.21577L6.36396 1.22703L8.3527 3.21577ZM3.57973 4.01126L5.56847 6L3.57973 7.98874L1.59099 6L3.57973 4.01126ZM4.37522 8.78423L6.36396 6.7955L8.3527 8.78423L6.36396 10.773L4.37522 8.78423ZM9.14819 7.98874L7.15946 6L9.14819 4.01126L11.1369 6L9.14819 7.98874Z" fill="#D220FF"/>
</svg>
