<svg width="279" height="129" viewBox="0 0 279 129" fill="none" xmlns="http://www.w3.org/2000/svg">
<path fill-rule="evenodd" clip-rule="evenodd" d="M139.598 127.669H39.9844V75.3583C39.9844 60.3958 52.122 48.2582 67.0845 48.2582H139.598V127.669Z" fill="#F98B7C"/>
<path fill-rule="evenodd" clip-rule="evenodd" d="M74.2736 48.1023C74.5964 48.1023 74.8581 48.364 74.8581 48.6868C74.8581 49.0096 74.5964 49.2712 74.2736 49.2712C61.5008 49.2712 51.1235 59.4748 50.9172 72.1296L50.9141 72.5139V127.669C50.9141 127.992 50.6524 128.253 50.3296 128.253C50.0183 128.253 49.7639 128.01 49.7461 127.703L49.7451 127.669V72.5139C49.7451 59.0352 60.7274 48.1023 74.2736 48.1023Z" fill="white"/>
<path fill-rule="evenodd" clip-rule="evenodd" d="M112.965 54.0055L88.1639 64.5066C81.6957 67.2341 76.4939 72.2801 73.5326 78.6314C73.5326 78.6314 49.9782 109.881 58.083 127.162C63.8303 127.162 192.376 127.162 192.376 127.162L173.049 74.8323C171.861 71.6372 169.464 69.0265 166.367 67.5653L142.481 56.8889L112.965 54.0055Z" fill="#454B89"/>
<path fill-rule="evenodd" clip-rule="evenodd" d="M94.1493 61.7595C94.4399 61.6478 94.7647 61.7836 94.8914 62.0636L94.9046 62.0953L99.8671 75.0055L109.66 76.4556C110.213 76.5375 110.342 77.2678 109.869 77.5391L109.838 77.5558L102.451 81.2763L102.939 82.036C103.391 82.7409 103.884 83.5165 104.41 84.3496C106.145 87.0964 107.88 89.9073 109.5 92.6212C109.8 93.1246 110.094 93.6207 110.381 94.1089L110.595 94.4736C112.325 97.425 113.761 100.013 114.831 102.137C114.976 102.425 114.86 102.777 114.572 102.922C114.284 103.067 113.932 102.951 113.787 102.663L113.641 102.374C112.65 100.427 111.357 98.0972 109.819 95.4622L109.587 95.0647C109.234 94.4621 108.87 93.8469 108.496 93.2202C106.997 90.7088 105.398 88.1127 103.793 85.5617L103.422 84.9738C102.897 84.143 102.405 83.3695 101.955 82.6667L101.526 82.0001L101.117 81.3659C100.933 81.0841 101.026 80.7088 101.312 80.5422L101.344 80.5252L107.664 77.3416L99.3584 76.1118C99.1629 76.0829 98.9962 75.9573 98.9138 75.7796L98.8984 75.7434L93.8135 62.5147C93.6977 62.2134 93.848 61.8753 94.1493 61.7595Z" fill="#1D2675"/>
<path fill-rule="evenodd" clip-rule="evenodd" d="M161.406 66.0269C161.46 65.7086 161.761 65.4938 162.079 65.5472C162.386 65.5987 162.597 65.8808 162.564 66.1863L162.559 66.2203L160.611 77.8319C160.578 78.0269 160.449 78.1911 160.27 78.2701L160.234 78.2847L152.34 81.1448L159.176 83.0162C159.495 83.1035 159.675 83.4364 159.581 83.7485L159.549 83.8382L159.156 84.915L158.565 86.5445C158.404 86.992 158.236 87.4582 158.063 87.941C156.932 91.094 155.802 94.3127 154.747 97.4083L154.491 98.1601C154.407 98.409 154.324 98.6561 154.241 98.9014L153.823 100.146C151.509 107.086 150.096 111.964 149.96 113.782C149.936 114.104 149.656 114.346 149.334 114.322C149.012 114.298 148.771 114.017 148.795 113.695C148.945 111.678 150.447 106.536 152.934 99.1211L153.258 98.1578C153.342 97.9101 153.426 97.6606 153.512 97.4094L153.64 97.0313C154.616 94.1678 155.656 91.2002 156.701 88.2764L157.325 86.5364C157.538 85.9465 157.741 85.3866 157.932 84.8607L158.254 83.9758L150.256 81.7863C149.718 81.639 149.676 80.9004 150.177 80.6865L150.211 80.673L159.514 77.3017L161.406 66.0269Z" fill="#1D2675"/>
<path fill-rule="evenodd" clip-rule="evenodd" d="M77.8411 100.674C80.6955 100.208 87.8366 100.322 98.0383 100.863L98.3484 100.879C100.943 101.018 103.67 101.181 106.483 101.364L108.127 101.472C110.312 101.618 112.462 101.77 114.538 101.923L116.477 102.067C116.999 102.107 117.495 102.145 117.963 102.181L120.026 102.343C120.441 102.377 120.685 102.82 120.502 103.186L120.486 103.216L118.869 106.041C118.708 106.321 118.351 106.419 118.071 106.258C117.801 106.104 117.701 105.767 117.837 105.492L117.854 105.461L119.013 103.435L117.696 103.333C117.162 103.291 116.594 103.248 115.993 103.203L114.453 103.088C112.034 102.91 109.513 102.734 106.956 102.566L106.407 102.531C103.949 102.371 101.558 102.226 99.2634 102.1L97.6741 102.014C87.7399 101.493 80.7362 101.386 78.0292 101.827C77.7106 101.879 77.4102 101.663 77.3583 101.345C77.3063 101.026 77.5225 100.726 77.8411 100.674Z" fill="#1D2675"/>
<path fill-rule="evenodd" clip-rule="evenodd" d="M96.7786 90.4306C96.8686 90.1206 97.1928 89.9423 97.5028 90.0323C97.8017 90.1191 97.9783 90.4237 97.9098 90.7233L97.9012 90.7566L94.9203 101.024C94.8303 101.334 94.5061 101.512 94.1961 101.422C93.8972 101.335 93.7207 101.031 93.7891 100.731L93.7977 100.698L96.7786 90.4306Z" fill="#1D2675"/>
<path fill-rule="evenodd" clip-rule="evenodd" d="M103.096 101.238C103.372 101.07 103.731 101.159 103.898 101.435C104.066 101.711 103.978 102.07 103.702 102.237C99.4703 104.804 96.408 108.402 94.3505 112.777C92.9719 115.708 92.1091 118.849 91.6654 122.032C91.3854 124.041 91.3043 125.793 91.3384 127.147L91.3473 127.429L91.3571 127.629C91.3789 127.951 91.1355 128.23 90.8135 128.252C90.4914 128.274 90.2127 128.03 90.1909 127.708L90.1821 127.543C90.1805 127.505 90.1788 127.463 90.1771 127.417L90.1698 127.178C90.1342 125.763 90.2181 123.948 90.5076 121.871C90.9666 118.578 91.8602 115.326 93.2927 112.28C95.4438 107.706 98.6571 103.93 103.096 101.238Z" fill="#1D2675"/>
<path fill-rule="evenodd" clip-rule="evenodd" d="M111.289 54.5315L105.873 57.0058C105.873 57.0058 127.167 86.7361 124.187 116.544C127.83 123.675 143.981 116.544 143.981 116.544L147.936 59.3047L141.448 56.3628L111.289 54.5315Z" fill="white"/>
<path fill-rule="evenodd" clip-rule="evenodd" d="M144.839 103.822C140.845 104.465 137.084 104.524 133.928 104.348C129.993 104.134 126.564 103.511 124.012 102.926C124.109 103.803 124.207 104.699 124.265 105.576C126.798 106.121 130.032 106.647 133.695 106.861C134.805 106.92 135.916 106.959 137.007 106.959C139.637 106.959 142.189 106.764 144.663 106.394L144.839 103.822Z" fill="#A8ADD3"/>
<path fill-rule="evenodd" clip-rule="evenodd" d="M136.812 101.757C139.598 101.757 142.345 101.582 145.014 101.251L145.189 98.6594C139.383 99.4581 133.967 99.3218 129.564 98.8542C127.285 98.6204 125.161 98.2892 123.232 97.8995C123.388 98.7762 123.544 99.6724 123.681 100.569C125.395 100.88 127.246 101.153 129.214 101.367C131.785 101.621 134.318 101.757 136.812 101.757Z" fill="#A8ADD3"/>
<path fill-rule="evenodd" clip-rule="evenodd" d="M127.362 91.295C125.278 91.1002 123.329 90.8274 121.518 90.5157C121.771 91.3924 122.005 92.2886 122.219 93.2043C123.739 93.4381 125.336 93.6524 127.031 93.8082C129.486 94.042 131.921 94.1589 134.298 94.1589C138 94.1589 141.604 93.8667 145.091 93.3017C145.247 93.2822 145.384 93.2432 145.54 93.2238L145.715 90.5936C138.896 91.8405 132.467 91.782 127.362 91.295Z" fill="#A8ADD3"/>
<path fill-rule="evenodd" clip-rule="evenodd" d="M134.688 87.5933C138.233 87.5933 142.071 87.2621 146.026 86.4243L146.202 83.7942C138.662 85.5281 131.512 85.2359 126.057 84.4176C123.524 84.0475 121.186 83.5409 119.121 82.9954C119.452 83.9306 119.803 84.8852 120.115 85.8593C121.81 86.249 123.641 86.6192 125.589 86.9114C128.297 87.3011 131.356 87.5933 134.688 87.5933Z" fill="#A8ADD3"/>
<path fill-rule="evenodd" clip-rule="evenodd" d="M146.709 76.4493C138.487 78.4755 130.363 78.1443 124.168 77.2676C121.245 76.8585 118.576 76.2935 116.199 75.709C116.608 76.6441 117.017 77.6183 117.427 78.5924C119.394 79.0405 121.537 79.4301 123.797 79.7613C127.207 80.2484 130.538 80.4822 133.772 80.4822C136.266 80.4822 138.702 80.3458 141.059 80.0536C142.929 79.8198 144.741 79.5081 146.533 79.0989L146.709 76.4493Z" fill="#A8ADD3"/>
<path fill-rule="evenodd" clip-rule="evenodd" d="M147.137 69.9227C138.37 71.9879 129.681 71.5203 123.115 70.4877C119.063 69.8448 115.439 68.9681 112.517 68.1108C113.023 69.085 113.549 70.0981 114.075 71.1696C116.452 71.793 119.219 72.4165 122.219 72.9035C126.33 73.5659 130.343 73.9166 134.22 73.9166C136.324 73.9166 138.389 73.8192 140.396 73.6244C142.656 73.4101 144.838 73.0594 146.962 72.5918L147.137 69.9227Z" fill="#A8ADD3"/>
<path fill-rule="evenodd" clip-rule="evenodd" d="M147.468 65.2858L147.644 62.6167C131.804 67.2536 115.712 63.1817 108.289 60.7075C108.874 61.6426 109.516 62.7336 110.237 63.961C113.082 64.7988 116.9 65.7534 121.264 66.3963C124.44 66.8834 128.122 67.2341 132.077 67.2341C136.909 67.2341 142.169 66.7276 147.468 65.2858Z" fill="#A8ADD3"/>
<path fill-rule="evenodd" clip-rule="evenodd" d="M118.284 39.7638L116.55 50.6935L111.114 55.0965C111.114 55.0965 118.673 66.4159 128.941 68.9875C132.428 69.8643 137.903 68.9096 139.695 65.8119C141.41 62.8311 141.975 58.6034 142.306 53.5769C142.462 51.0442 118.284 39.7638 118.284 39.7638Z" fill="white"/>
<path fill-rule="evenodd" clip-rule="evenodd" d="M117.707 39.6722L116.008 50.3802L110.747 54.6423C110.512 54.8324 110.461 55.17 110.629 55.4211L110.726 55.5626L110.831 55.7134C110.905 55.8185 110.988 55.9342 111.08 56.0598C111.444 56.56 111.871 57.1165 112.356 57.7154C113.74 59.425 115.319 61.1343 117.065 62.7311C120.764 66.1122 124.704 68.5287 128.799 69.5545C132.947 70.5972 138.406 69.2078 140.201 66.1046C141.786 63.3493 142.488 59.7131 142.889 53.6153C142.974 52.2337 139.574 49.9836 132.903 46.4056L132.335 46.1027C131.762 45.7979 131.172 45.4874 130.565 45.1718C128.087 43.8826 125.444 42.5608 122.79 41.2708L122.293 41.0294C121.372 40.5832 120.512 40.1711 119.733 39.801L118.531 39.2341C118.179 39.0699 117.768 39.2885 117.707 39.6722ZM117.128 50.785L118.739 40.6237L119.399 40.9366C120.131 41.2846 120.93 41.6683 121.783 42.0814L122.775 42.5635C125.087 43.6917 127.384 44.8409 129.561 45.9677L130.026 46.2088C130.73 46.5751 131.412 46.9344 132.07 47.2857L132.693 47.6202C135.303 49.0273 137.444 50.2677 139.008 51.2953L139.11 51.362C140.008 51.9565 140.697 52.4704 141.155 52.891C141.379 53.0966 141.542 53.2749 141.64 53.4182C141.674 53.4666 141.697 53.5076 141.712 53.5396L141.721 53.5614L141.721 53.5615L141.687 54.0677C141.291 59.6755 140.613 63.0448 139.189 65.5205C137.698 68.097 132.778 69.3493 129.084 68.4207C125.203 67.4486 121.421 65.1295 117.854 61.8684C116.154 60.3138 114.614 58.6466 113.264 56.9797C112.828 56.4416 112.442 55.9394 112.107 55.4842L111.906 55.2078L116.918 51.1476C117.03 51.0568 117.105 50.9276 117.128 50.785Z" fill="#1D2675"/>
<path fill-rule="evenodd" clip-rule="evenodd" d="M148.735 16.9303C147.04 7.53976 135.409 8.76716 133.714 8.98146C118.07 10.9297 117.329 24.0804 117.446 27.7626L116.764 27.8405C116.764 27.8405 116.842 28.464 116.979 29.4965C114.952 29.9836 111.309 31.5812 112.498 36.6271C113.394 40.4457 116.258 40.7964 118.635 40.3483C118.946 42.0433 119.278 43.485 119.57 44.3422C120.778 47.7711 121.596 49.2908 126.272 52.3495C130.967 55.4083 140.708 56.4993 145.072 50.8883C149.105 45.6865 149.417 36.3349 149.456 34.9711C149.826 29.7693 149.846 23.1063 148.735 16.9303Z" fill="white"/>
<path fill-rule="evenodd" clip-rule="evenodd" d="M136.538 8.22798C135.476 8.22679 134.56 8.29045 133.766 8.38606L133.641 8.40141C126.469 9.29458 121.768 12.5379 119.153 17.447L119.069 17.6066C117.462 20.6978 116.839 24.0586 116.85 27.1463L116.851 27.2422L116.697 27.2598C116.386 27.2954 116.16 27.5696 116.18 27.8785L116.187 27.939L116.314 28.9284L116.332 29.0645L116.273 29.0822C115.04 29.4553 113.937 30.0587 113.104 30.954C111.805 32.35 111.345 34.2847 111.928 36.7611L111.954 36.8695C112.772 40.1737 115.036 41.3849 118.049 41.0293L118.164 41.0149L118.233 41.3659C118.502 42.7169 118.772 43.8166 119.016 44.5307L119.1 44.7672C120.469 48.5814 121.65 50.0252 125.951 52.8386C128.478 54.485 132.228 55.5008 135.803 55.4544C139.894 55.4014 143.386 54.0071 145.533 51.2471C147.384 48.8598 148.606 45.5224 149.336 41.5972C149.601 40.17 149.785 38.742 149.903 37.3515L149.916 37.1983C149.978 36.4418 150.012 35.8202 150.032 35.2248L150.039 35.0014L150.038 35.0125C150.486 28.718 150.306 22.3672 149.31 16.8268C148.515 12.4257 145.624 9.86083 141.367 8.78728C139.831 8.39992 138.197 8.22985 136.538 8.22798ZM136.536 9.39687C138.107 9.39863 139.647 9.55901 141.081 9.92068C144.927 10.8907 147.455 13.1328 148.159 17.034C149.136 22.4672 149.314 28.7245 148.872 34.9295L148.871 34.9543L148.864 35.1846C148.843 35.8016 148.807 36.4476 148.738 37.2524C148.623 38.6066 148.444 39.9968 148.186 41.3835C147.488 45.1421 146.325 48.3181 144.61 50.5301C142.706 52.9771 139.552 54.2367 135.788 54.2855C132.438 54.3289 128.916 53.3748 126.59 51.8597L126.343 51.6976C122.377 49.0788 121.413 47.8164 120.12 44.1479L120.081 44.03C119.818 43.2178 119.509 41.8775 119.209 40.2424C119.15 39.924 118.844 39.7138 118.526 39.7738C115.688 40.3087 113.756 39.4348 113.066 36.4935C112.569 34.3859 112.934 32.8522 113.96 31.7503C114.738 30.914 115.858 30.3668 117.114 30.0647C117.405 29.9948 117.596 29.7165 117.557 29.4199L117.418 28.3538L117.512 28.3432C117.814 28.3086 118.039 28.048 118.03 27.7439C117.93 24.6203 118.512 21.1366 120.185 17.9964C122.597 13.4683 126.904 10.4679 133.583 9.58724L133.787 9.5612C134.565 9.46275 135.473 9.39568 136.536 9.39687Z" fill="#1D2675"/>
<path fill-rule="evenodd" clip-rule="evenodd" d="M155.69 31.9318C155.554 28.8146 153.586 26.3209 150.956 25.035C150.722 25.3857 150.449 25.6974 150.196 25.9312C150.254 30.2369 149.923 38.0493 149.553 40.3288C149.748 40.2703 149.943 40.2119 150.118 40.1535C149.962 41.5367 149.533 43.1343 148.501 44.2837C147.605 45.2773 146.377 45.8229 144.76 45.9787C144.41 45.667 143.942 45.4722 143.435 45.4722C142.325 45.4722 141.448 46.3684 141.448 47.4594C141.448 48.5504 142.344 49.4466 143.435 49.4466C143.981 49.4466 144.468 49.2323 144.819 48.8816C147.274 48.7063 149.222 47.8101 150.644 46.232C152.846 43.7772 153.138 40.2898 153.099 38.3026C154.794 36.705 155.807 34.4256 155.69 31.9318Z" fill="#454B89"/>
<path fill-rule="evenodd" clip-rule="evenodd" d="M141.551 30.1467C141.858 30.0978 142.148 30.2981 142.213 30.5983L142.22 30.632L143.661 39.6914C143.724 40.0846 143.385 40.4202 142.998 40.3613L142.964 40.3553L139.711 39.6734C139.395 39.6072 139.192 39.2974 139.259 38.9815C139.322 38.6768 139.613 38.4777 139.917 38.5233L139.951 38.5293L142.374 39.0371L141.065 30.8158C141.016 30.5084 141.217 30.2188 141.517 30.1531L141.551 30.1467Z" fill="#1D2675"/>
<path fill-rule="evenodd" clip-rule="evenodd" d="M145.691 32.5122C146.207 32.4897 146.597 31.8265 146.562 31.0311C146.528 30.2357 146.081 29.6091 145.565 29.6317C145.049 29.6543 144.659 30.3174 144.694 31.1129C144.729 31.9083 145.175 32.5348 145.691 32.5122Z" fill="#1D2675"/>
<path fill-rule="evenodd" clip-rule="evenodd" d="M136.554 32.473C137.07 32.4504 137.46 31.7873 137.426 30.9919C137.391 30.1964 136.944 29.5699 136.428 29.5925C135.912 29.6151 135.522 30.2782 135.557 31.0736C135.592 31.8691 136.038 32.4956 136.554 32.473Z" fill="#1D2675"/>
<path fill-rule="evenodd" clip-rule="evenodd" d="M130.991 24.6533C132.087 23.973 133.395 23.7072 134.858 24.1004C135.17 24.1842 135.355 24.5048 135.271 24.8165C135.187 25.1283 134.867 25.3131 134.555 25.2293C133.428 24.9266 132.445 25.1263 131.608 25.6464C131.411 25.7688 131.239 25.8996 131.094 26.029L131.043 26.0751C130.997 26.118 130.965 26.1507 130.947 26.1704L130.939 26.1791C130.727 26.4223 130.358 26.4475 130.114 26.2353C129.871 26.0231 129.846 25.6539 130.058 25.4107L130.097 25.3678C130.148 25.3129 130.221 25.2412 130.315 25.1576C130.508 24.9847 130.734 24.8131 130.991 24.6533Z" fill="#1D2675"/>
<path fill-rule="evenodd" clip-rule="evenodd" d="M142.856 23.1228C143.402 23.0209 143.975 23.0032 144.53 23.1274C145.446 23.3329 146.153 23.9031 146.499 24.8784C146.607 25.1826 146.448 25.5167 146.144 25.6248C145.84 25.7328 145.506 25.5738 145.398 25.2696C145.193 24.6936 144.817 24.3897 144.274 24.2681C143.897 24.1835 143.474 24.1966 143.071 24.2719L142.996 24.2866C142.95 24.2962 142.911 24.3053 142.88 24.3129L142.827 24.3277C142.518 24.4219 142.191 24.2481 142.097 23.9393C142.003 23.6306 142.177 23.3039 142.485 23.2097L142.544 23.1926C142.622 23.1716 142.727 23.1469 142.856 23.1228Z" fill="#1D2675"/>
<path fill-rule="evenodd" clip-rule="evenodd" d="M139.831 43.3681C137.006 46.4658 135.428 43.6993 134.083 41.6731C133.733 41.1665 134.2 40.4846 134.804 40.6405C137.337 41.3029 140.785 42.316 139.831 43.3681Z" fill="#1D2675"/>
<path fill-rule="evenodd" clip-rule="evenodd" d="M151.852 13.8131C150.955 11.8649 149.845 11.3194 148.851 11.3194C148.812 10.9687 148.754 10.618 148.676 10.2673C147.994 7.16958 146.026 4.53944 143.338 2.92239C143.338 2.92239 140.026 -0.603937 129.622 0.136398C119.199 0.876733 118.926 6.85786 118.926 6.85786C114.192 10.053 110.763 14.0664 110.51 17.4758C109.789 27.0807 113.841 29.3991 115.497 29.9446C115.673 29.8667 115.848 29.7888 116.023 29.7303C116.082 29.8862 116.14 30.0226 116.179 30.1005C122.745 29.6524 123.096 20.3982 125.18 15.9562C125.394 15.4886 125.979 15.2938 126.427 15.5665C129.349 17.2225 133.324 17.7486 138.019 17.1057C143.104 16.4043 145.383 14.0274 146.397 12.1571C146.436 12.1961 146.455 12.235 146.494 12.2545C146.533 12.313 146.591 12.3519 146.63 12.4104C146.65 12.4299 146.669 12.4493 146.689 12.4883C146.728 12.5273 146.767 12.5857 146.806 12.6247C146.825 12.6636 146.864 12.6831 146.884 12.7221C146.923 12.7611 146.942 12.8 146.981 12.8585C147.02 12.8974 147.04 12.9364 147.078 12.9754C147.117 13.0143 147.137 13.0533 147.176 13.0923C147.215 13.1312 147.234 13.1897 147.273 13.2286C147.293 13.2676 147.332 13.3066 147.351 13.3455C147.39 13.404 147.41 13.4429 147.449 13.5014C147.468 13.5404 147.488 13.5793 147.507 13.6183C147.546 13.6767 147.585 13.7352 147.605 13.7936C147.624 13.8326 147.643 13.8521 147.663 13.891C147.702 13.9495 147.741 14.0274 147.76 14.0859C147.78 14.1248 147.799 14.1443 147.799 14.1833C147.838 14.2612 147.877 14.3391 147.916 14.4171C148.267 15.1574 148.52 15.9757 148.696 16.9108C149.241 19.9696 149.514 23.1452 149.611 26.1845C149.728 26.204 149.864 26.165 149.981 26.0676C152.105 24.4311 153.995 18.4305 151.852 13.8131Z" fill="#1D2675"/>
<path fill-rule="evenodd" clip-rule="evenodd" d="M125.203 25.8343C124.862 25.8207 124.581 26.1023 124.596 26.4441C124.722 29.2921 125.182 31.4936 126.129 33.1456C127.285 35.1599 129.135 36.256 131.737 36.2958C136.416 36.2518 139.124 34.5219 140.184 31.6531C140.558 30.6414 140.695 29.5623 140.657 28.4776C140.643 28.09 140.608 27.7251 140.557 27.3902L140.537 27.2641C140.513 27.1236 140.49 27.0063 140.469 26.9148L140.457 26.8647C140.396 26.6111 140.173 26.4291 139.913 26.4187L125.203 25.8343ZM125.799 27.0277L139.401 27.5681L139.401 27.5654C139.445 27.8575 139.477 28.1781 139.489 28.5189C139.522 29.4619 139.404 30.393 139.088 31.2479C138.204 33.6408 135.939 35.0873 131.74 35.127C127.856 35.0673 126.156 32.3715 125.801 27.0689L125.799 27.0277Z" fill="#F98B7C"/>
<path fill-rule="evenodd" clip-rule="evenodd" d="M124.937 25.9064C125.23 25.772 125.577 25.9009 125.712 26.1943C125.841 26.4773 125.726 26.81 125.454 26.9539L125.424 26.9691L121.469 28.781C121.175 28.9155 120.828 28.7865 120.694 28.4931C120.564 28.2101 120.679 27.8774 120.951 27.7335L120.982 27.7183L124.937 25.9064Z" fill="#F98B7C"/>
<path fill-rule="evenodd" clip-rule="evenodd" d="M142.08 29.8668C142.403 29.8607 142.669 30.1174 142.675 30.4402C142.681 30.7514 142.443 31.0103 142.136 31.0339L142.102 31.0355L140.037 31.0745C139.714 31.0806 139.448 30.8239 139.442 30.5012C139.436 30.19 139.674 29.931 139.981 29.9074L140.015 29.9058L142.08 29.8668Z" fill="#F98B7C"/>
<path fill-rule="evenodd" clip-rule="evenodd" d="M154.813 26.0679L141.721 26.516C141.386 26.5275 141.129 26.8181 141.159 27.1522L141.17 27.264C141.178 27.3325 141.19 27.4193 141.205 27.5228C141.246 27.8055 141.303 28.1193 141.377 28.4566C141.59 29.421 141.905 30.386 142.344 31.2921C143.662 34.0143 145.809 35.6492 148.909 35.5553C151.515 35.4844 153.107 34.9071 154.018 33.717C154.721 32.799 154.937 31.853 155.119 29.649L155.217 28.4428C155.281 27.6958 155.326 27.3047 155.411 26.7386C155.465 26.3773 155.178 26.0554 154.813 26.0679ZM142.411 27.662L154.16 27.2599L154.137 27.4581C154.094 27.8426 154.056 28.2808 154.002 28.9571L153.955 29.5415C153.792 31.5197 153.608 32.3292 153.09 33.0065C152.433 33.8649 151.166 34.3245 148.875 34.3868C146.29 34.4652 144.53 33.1251 143.396 30.7826C143.001 29.9661 142.713 29.0856 142.519 28.2044L142.494 28.0897C142.47 27.9762 142.448 27.8659 142.428 27.7594L142.411 27.662Z" fill="#F98B7C"/>
<path fill-rule="evenodd" clip-rule="evenodd" d="M124.187 34.4645C124.07 31.6396 122.531 29.2043 120.31 27.782L119.336 5.63043L118.634 5.6694C116.764 5.74733 115.303 7.34489 115.381 9.21521L116.14 26.5157C115.926 26.5157 115.712 26.5157 115.498 26.5157C110.9 26.7105 107.354 30.607 107.549 35.1854C107.743 39.7638 111.64 43.3291 116.218 43.1342C120.816 42.9394 124.382 39.0429 124.187 34.4645Z" fill="#454B89"/>
<path fill-rule="evenodd" clip-rule="evenodd" d="M114.153 29.9056C116.316 29.9056 118.108 31.8539 118.206 34.3477C118.303 36.8999 116.569 39.0624 114.329 39.1793C114.27 39.1793 114.212 39.1793 114.153 39.1793C111.991 39.1793 110.198 37.2311 110.101 34.7373C110.004 32.1851 111.738 30.0225 113.978 29.9056C114.037 29.9056 114.095 29.9056 114.153 29.9056ZM114.153 28.7367C114.075 28.7367 113.998 28.7367 113.92 28.7367C111.056 28.8731 108.815 31.6006 108.932 34.7763C109.049 37.8935 111.348 40.3288 114.153 40.3288C114.231 40.3288 114.309 40.3288 114.387 40.3288C117.251 40.1924 119.492 37.4649 119.375 34.2892C119.258 31.172 116.959 28.7367 114.153 28.7367Z" fill="white"/>
<path fill-rule="evenodd" clip-rule="evenodd" d="M154.229 107.29C154.229 107.29 135.662 106.336 118.401 105.673C115.615 109.959 110.257 119.233 110.257 127.162H111.289L140.026 119.701C140.357 119.817 158.729 119.701 158.729 119.701L154.229 107.29Z" fill="white"/>
<path fill-rule="evenodd" clip-rule="evenodd" d="M118.423 105.089C118.218 105.081 118.023 105.182 117.911 105.355C116.006 108.285 114.203 111.503 112.749 114.817C110.784 119.294 109.673 123.471 109.673 127.162C109.673 127.485 109.935 127.747 110.257 127.747H111.29L111.327 127.746C111.364 127.743 111.401 127.737 111.437 127.728L140.099 120.285L140.293 120.296C141.33 120.343 144.115 120.345 149.378 120.329L152.508 120.318L158.733 120.285C159.137 120.282 159.417 119.881 159.279 119.501L154.779 107.091C154.703 106.882 154.516 106.736 154.298 106.71L154.134 106.7L149.921 106.489L147.21 106.357C142.654 106.136 137.925 105.915 133.187 105.704L130.523 105.587C127.934 105.474 125.408 105.368 122.961 105.268L120.848 105.184C120.029 105.151 119.22 105.12 118.423 105.089ZM118.711 106.27L120.312 106.332L121.79 106.391C124.584 106.503 127.486 106.625 130.472 106.755L133.135 106.872C137.575 107.069 142.008 107.276 146.297 107.483L153.052 107.816L153.812 107.854L157.898 119.121L153.952 119.142C152.367 119.15 150.826 119.156 149.374 119.16L145.993 119.167C145.125 119.168 144.336 119.168 143.637 119.167L141.972 119.16C141.716 119.158 141.485 119.156 141.278 119.154L140.597 119.144C140.483 119.141 140.386 119.138 140.309 119.136L140.159 119.129C140.168 119.13 140.175 119.133 140.221 119.149L140.18 119.136C140.082 119.11 139.978 119.109 139.88 119.135L111.215 126.578H110.852L110.854 126.509C110.977 123.161 112.031 119.361 113.82 115.286C115.199 112.143 116.905 109.077 118.711 106.27Z" fill="#1D2675"/>
<path fill-rule="evenodd" clip-rule="evenodd" d="M202.78 38.1078C196.078 38.1078 190.662 43.5434 190.662 50.2259C190.662 50.4012 190.662 50.5766 190.682 50.7324L190.662 50.713V62.2856H201.728C202.079 62.3245 202.43 62.3245 202.78 62.3245C209.482 62.3245 214.898 56.8889 214.898 50.2064C214.898 43.5434 209.463 38.1078 202.78 38.1078Z" fill="#454B89"/>
<path fill-rule="evenodd" clip-rule="evenodd" d="M196.818 51.239C196.818 50.4986 197.325 49.9726 198.026 49.9726C198.728 49.9726 199.215 50.4986 199.215 51.239C199.215 51.9598 198.747 52.5053 198.007 52.5053C197.305 52.5053 196.818 51.9598 196.818 51.239Z" fill="white"/>
<path fill-rule="evenodd" clip-rule="evenodd" d="M200.968 51.239C200.968 50.4986 201.474 49.9726 202.176 49.9726C202.877 49.9726 203.364 50.4986 203.364 51.239C203.364 51.9598 202.897 52.5053 202.156 52.5053C201.435 52.5053 200.968 51.9598 200.968 51.239Z" fill="white"/>
<path fill-rule="evenodd" clip-rule="evenodd" d="M205.099 51.239C205.099 50.4986 205.605 49.9726 206.307 49.9726C207.008 49.9726 207.495 50.4986 207.495 51.239C207.495 51.9598 207.027 52.5053 206.287 52.5053C205.586 52.5053 205.099 51.9598 205.099 51.239Z" fill="white"/>
<path fill-rule="evenodd" clip-rule="evenodd" d="M221.211 50.6545C210.574 50.6545 201.924 42.0043 201.924 31.3668C201.924 20.7294 210.574 12.0792 221.211 12.0792C226.316 12.0792 231.128 14.0664 234.771 17.6512C238.337 21.1775 240.363 25.8728 240.499 30.8798C240.519 30.9577 240.538 31.0161 240.538 31.0941V50.07C240.538 50.4012 240.285 50.6545 239.954 50.6545H221.211Z" fill="#F98B7C"/>
<path fill-rule="evenodd" clip-rule="evenodd" d="M221.211 12.6636C231.459 12.6636 239.797 20.9047 239.914 31.133L239.953 31.0941V50.07H221.211C210.885 50.07 202.508 41.6926 202.508 31.3668C202.508 21.0216 210.885 12.6636 221.211 12.6636ZM221.211 11.4947C210.262 11.4947 201.339 20.4177 201.339 31.3668C201.339 42.316 210.262 51.239 221.211 51.239H239.953C240.596 51.239 241.122 50.713 241.122 50.07V31.0941C241.122 30.9772 241.103 30.8798 241.083 30.7629C240.927 25.639 238.843 20.8463 235.199 17.2225C231.439 13.5209 226.471 11.4947 221.211 11.4947Z" fill="white"/>
<path fill-rule="evenodd" clip-rule="evenodd" d="M220.587 36.9583C219.964 36.9583 219.457 36.4517 219.457 35.8283C219.477 34.8542 219.496 34.2113 219.516 33.8995C219.555 33.4904 219.672 33.1008 219.847 32.6916C220.042 32.2825 220.256 31.9708 220.49 31.7565C220.724 31.5227 221.289 31.172 222.165 30.6849C223.12 30.1589 223.783 29.7303 224.133 29.438C224.503 29.1458 224.815 28.7172 225.068 28.1912C225.341 27.6651 225.477 27.0807 225.477 26.4572C225.477 25.2688 225.049 24.3336 224.172 23.6517C223.315 22.9699 222.282 22.6387 221.113 22.6387C218.775 22.6387 217.256 23.8271 216.516 26.204C216.321 26.8079 215.717 27.1781 215.113 27.0417C214.431 26.8858 214.022 26.1845 214.217 25.5026C215.23 22.1321 217.587 20.4371 221.25 20.4371C223.354 20.4371 225.029 21.0021 226.335 22.1516C227.621 23.3011 228.263 24.7622 228.263 26.5546C228.263 28.8925 226.919 30.7629 224.231 32.1461C223.062 32.7696 222.341 33.2566 222.068 33.6073C221.815 33.958 221.678 34.5035 221.678 35.2438V35.8478C221.717 36.4517 221.211 36.9583 220.587 36.9583ZM222.263 40.7574C222.263 41.6146 221.562 42.2965 220.724 42.2965H220.646C219.789 42.2965 219.107 41.5951 219.107 40.7574C219.107 39.9001 219.808 39.2183 220.646 39.2183H220.724C221.562 39.2183 222.263 39.9001 222.263 40.7574Z" fill="white"/>
<path fill-rule="evenodd" clip-rule="evenodd" d="M223.742 79.3522H156.781C155.904 79.3522 155.145 79.9561 154.93 80.8134L145.871 119.135H119.044C119.044 119.135 117.485 127.162 126.544 127.162H213.339C214.216 127.162 214.975 126.558 215.19 125.701L225.593 81.6901C225.866 80.5016 224.97 79.3522 223.742 79.3522Z" fill="#FFD1CB"/>
<path fill-rule="evenodd" clip-rule="evenodd" d="M161.963 79.1964C162.286 79.1964 162.548 79.458 162.548 79.7808C162.548 80.1036 162.286 80.3653 161.963 80.3653C161.371 80.3653 160.843 80.7632 160.692 81.3143L160.68 81.3605L149.517 127.3C149.441 127.614 149.125 127.806 148.811 127.73C148.508 127.657 148.319 127.36 148.374 127.058L148.381 127.024L159.543 81.0901C159.8 79.9866 160.816 79.1964 161.963 79.1964Z" fill="white"/>
<path fill-rule="evenodd" clip-rule="evenodd" d="M188.791 108.673C191.384 108.673 193.486 106.571 193.486 103.978C193.486 101.385 191.384 99.2828 188.791 99.2828C186.198 99.2828 184.096 101.385 184.096 103.978C184.096 106.571 186.198 108.673 188.791 108.673Z" fill="white"/>
<path fill-rule="evenodd" clip-rule="evenodd" d="M207.066 109.414C209.579 109.414 211.625 111.459 211.625 113.973C211.625 116.486 209.579 118.532 207.066 118.532C204.553 118.532 202.507 116.486 202.507 113.973C202.507 111.459 204.553 109.414 207.066 109.414ZM207.066 108.245C203.91 108.245 201.338 110.816 201.338 113.973C201.338 117.129 203.91 119.7 207.066 119.7C210.222 119.7 212.794 117.129 212.794 113.973C212.794 110.816 210.222 108.245 207.066 108.245Z" fill="white"/>
<path fill-rule="evenodd" clip-rule="evenodd" d="M221.444 127.727H214.079C210.845 127.727 208.234 125.117 208.234 121.883V107.777H227.288V121.883C227.288 125.097 224.678 127.727 221.444 127.727Z" fill="#F98B7C"/>
<path fill-rule="evenodd" clip-rule="evenodd" d="M277.495 126.987C277.926 126.987 278.274 127.336 278.274 127.766C278.274 128.184 277.946 128.524 277.534 128.545L277.495 128.546H1.58399C1.15359 128.546 0.804688 128.197 0.804688 127.766C0.804688 127.349 1.13277 127.008 1.54509 126.988L1.58399 126.987H277.495Z" fill="#1D2675"/>
</svg>
