<svg width="18" height="18" viewBox="0 0 18 18" fill="none" xmlns="http://www.w3.org/2000/svg">
<path d="M7.875 3.375V14.625" stroke="#393D4E" stroke-width="1.5" stroke-linecap="round" stroke-linejoin="round"/>
<path d="M10.6875 5.0625H16.3125C16.4617 5.0625 16.6048 5.12176 16.7102 5.22725C16.8157 5.33274 16.875 5.47582 16.875 5.625V12.375C16.875 12.5242 16.8157 12.6673 16.7102 12.7727C16.6048 12.8782 16.4617 12.9375 16.3125 12.9375H10.6875" stroke="#393D4E" stroke-width="1.5" stroke-linecap="round" stroke-linejoin="round"/>
<path d="M7.875 12.9375H1.6875C1.53832 12.9375 1.39524 12.8782 1.28975 12.7727C1.18426 12.6673 1.125 12.5242 1.125 12.375V5.625C1.125 5.47582 1.18426 5.33274 1.28975 5.22725C1.39524 5.12176 1.53832 5.0625 1.6875 5.0625H7.875" stroke="#393D4E" stroke-width="1.5" stroke-linecap="round" stroke-linejoin="round"/>
<path d="M3.51562 7.875H5.48438" stroke="#393D4E" stroke-width="1.5" stroke-linecap="round" stroke-linejoin="round"/>
<path d="M4.5 7.875V10.4062" stroke="#393D4E" stroke-width="1.5" stroke-linecap="round" stroke-linejoin="round"/>
</svg>
