<svg width="17" height="17" viewBox="0 0 17 17" fill="none" xmlns="http://www.w3.org/2000/svg">
<path d="M7.6014 0.898602L0.883883 7.61612C0.650983 7.85134 0.520334 8.16898 0.520334 8.5C0.520334 8.83102 0.650983 9.14866 0.883883 9.38388L7.6014 16.1014C7.83662 16.3343 8.15426 16.4649 8.48528 16.4649C8.8163 16.4649 9.13394 16.3343 9.36916 16.1014L16.0867 9.38388C16.3196 9.14866 16.4502 8.83102 16.4502 8.5C16.4502 8.16898 16.3196 7.85134 16.0867 7.61612L9.36916 0.898602C9.13394 0.665702 8.8163 0.535053 8.48528 0.535052C8.15426 0.535052 7.83662 0.665701 7.6014 0.898602ZM11.1369 4.78769L8.48528 7.43934L5.83363 4.78769L8.48528 2.13604L11.1369 4.78769ZM4.77297 5.84835L7.42462 8.5L4.77297 11.1517L2.12132 8.5L4.77297 5.84835ZM5.83363 12.2123L8.48528 9.56066L11.1369 12.2123L8.48528 14.864L5.83363 12.2123ZM12.1976 11.1517L9.54594 8.5L12.1976 5.84835L14.8492 8.5L12.1976 11.1517Z" fill="#393D4E"/>
</svg>
