<svg width="18" height="18" viewBox="0 0 18 18" fill="none" xmlns="http://www.w3.org/2000/svg">
<path d="M9.00008 1.43994C7.01586 1.43994 5.40008 3.05572 5.40008 5.03994C5.40008 6.224 5.98789 7.26322 6.87383 7.91994L5.08508 10.8674C4.71945 10.7592 4.31305 10.7873 3.96008 10.9912C3.27523 11.3863 3.03617 12.2751 3.43133 12.9599C3.82648 13.6448 4.71523 13.8838 5.40008 13.4887C6.08492 13.0935 6.32398 12.2048 5.92883 11.5199C5.86695 11.4131 5.7868 11.3231 5.70383 11.2387L7.66133 8.02119L7.85258 7.70619L7.53758 7.52619C6.68961 7.02557 6.12008 6.09885 6.12008 5.03994C6.12008 3.44525 7.40539 2.15994 9.00008 2.15994C10.5948 2.15994 11.8801 3.44525 11.8801 5.03994C11.8801 5.21048 11.8666 5.37499 11.8394 5.53505C11.8062 5.73047 11.9095 5.9314 12.0988 5.99035C12.2886 6.04947 12.4922 5.9435 12.5311 5.74855C12.5768 5.51935 12.6001 5.28301 12.6001 5.03994C12.6001 3.05572 10.9843 1.43994 9.00008 1.43994ZM9.00008 3.59994C8.20836 3.59994 7.56008 4.24822 7.56008 5.03994C7.56008 5.83166 8.20836 6.47994 9.00008 6.47994C9.11961 6.47994 9.23773 6.46307 9.34883 6.43494L11.0813 9.57369L11.2501 9.88869L11.5763 9.71994C11.9884 9.49213 12.4552 9.35994 12.9601 9.35994C14.5548 9.35994 15.8401 10.6453 15.8401 12.2399C15.8401 13.8346 14.5548 15.1199 12.9601 15.1199C12.3116 15.1199 11.7129 14.9038 11.231 14.5425C11.0724 14.4236 10.8463 14.4263 10.7093 14.5695C10.5729 14.7121 10.5766 14.9397 10.7314 15.0621C11.3446 15.5467 12.1206 15.8399 12.9601 15.8399C14.9443 15.8399 16.5601 14.2242 16.5601 12.2399C16.5601 10.2557 14.9443 8.63994 12.9601 8.63994C12.4609 8.63994 11.9982 8.77072 11.5651 8.95494L9.97883 6.07494C10.2573 5.81197 10.4401 5.44916 10.4401 5.03994C10.4401 4.24822 9.7918 3.59994 9.00008 3.59994ZM9.00008 4.31994C9.40227 4.31994 9.72008 4.63775 9.72008 5.03994C9.72008 5.44213 9.40227 5.75994 9.00008 5.75994C8.59789 5.75994 8.28008 5.44213 8.28008 5.03994C8.28008 4.63775 8.59789 4.31994 9.00008 4.31994ZM3.89219 9.09404C3.84264 8.89892 3.6437 8.77879 3.45438 8.84724C2.06664 9.34899 1.08008 10.6839 1.08008 12.2399C1.08008 14.2242 2.69586 15.8399 4.68008 15.8399C6.53633 15.8399 8.02273 14.407 8.21258 12.5999H11.5763C11.7366 13.2187 12.2935 13.6799 12.9601 13.6799C13.7518 13.6799 14.4001 13.0317 14.4001 12.2399C14.4001 11.4482 13.7518 10.7999 12.9601 10.7999C12.2935 10.7999 11.7366 11.2612 11.5763 11.8799H7.56008V12.2399C7.56008 13.8346 6.27477 15.1199 4.68008 15.1199C3.08539 15.1199 1.80008 13.8346 1.80008 12.2399C1.80008 11.0165 2.5615 9.97936 3.63288 9.56128C3.82157 9.48765 3.94205 9.29035 3.89219 9.09404ZM4.59008 11.5199C4.86852 11.4848 5.14836 11.6184 5.29883 11.8799C5.49992 12.2287 5.38883 12.6576 5.04008 12.8587C4.69133 13.0598 4.26242 12.9487 4.06133 12.5999C3.86023 12.2512 3.97133 11.8223 4.32008 11.6212C4.40727 11.5706 4.49727 11.5312 4.59008 11.5199ZM12.9601 11.5199C13.3623 11.5199 13.6801 11.8378 13.6801 12.2399C13.6801 12.6421 13.3623 12.9599 12.9601 12.9599C12.5579 12.9599 12.2401 12.6421 12.2401 12.2399C12.2401 11.8378 12.5579 11.5199 12.9601 11.5199Z" fill="#393D4E" stroke="#393D4E" stroke-width="0.75"/>
</svg>
